%TF.GenerationSoftware,KiCad,Pcbnew,5.1.10*%
%TF.CreationDate,2021-06-02T18:32:35+01:00*%
%TF.ProjectId,BB_Dash_Display,42425f44-6173-4685-9f44-6973706c6179,A3*%
%TF.SameCoordinates,PX43d3480PY41672a0*%
%TF.FileFunction,Legend,Top*%
%TF.FilePolarity,Positive*%
%FSLAX46Y46*%
G04 Gerber Fmt 4.6, Leading zero omitted, Abs format (unit mm)*
G04 Created by KiCad (PCBNEW 5.1.10) date 2021-06-02 18:32:35*
%MOMM*%
%LPD*%
G01*
G04 APERTURE LIST*
%ADD10C,0.120000*%
%ADD11C,0.150000*%
G04 APERTURE END LIST*
D10*
%TO.C,U3*%
X20828000Y-23078000D02*
X19028000Y-23078000D01*
X20828000Y-23078000D02*
X21628000Y-23078000D01*
X20828000Y-26198000D02*
X20028000Y-26198000D01*
X20828000Y-26198000D02*
X21628000Y-26198000D01*
%TO.C,U1*%
X21880000Y-38608000D02*
X21880000Y-36808000D01*
X21880000Y-38608000D02*
X21880000Y-39408000D01*
X18760000Y-38608000D02*
X18760000Y-37808000D01*
X18760000Y-38608000D02*
X18760000Y-39408000D01*
%TO.C,R6*%
X27659000Y-24865064D02*
X27659000Y-24410936D01*
X26189000Y-24865064D02*
X26189000Y-24410936D01*
%TO.C,R5*%
X24157000Y-24410936D02*
X24157000Y-24865064D01*
X25627000Y-24410936D02*
X25627000Y-24865064D01*
%TO.C,L2*%
X18443000Y-22684000D02*
X19468000Y-22684000D01*
X23213000Y-22684000D02*
X22188000Y-22684000D01*
X18443000Y-22684000D02*
X18443000Y-21659000D01*
X23213000Y-22684000D02*
X23213000Y-21659000D01*
X23213000Y-18464000D02*
X23213000Y-19489000D01*
X23213000Y-18464000D02*
X22188000Y-18464000D01*
X18443000Y-18464000D02*
X19468000Y-18464000D01*
X18443000Y-18464000D02*
X18443000Y-19489000D01*
%TO.C,L1*%
X22705000Y-31926000D02*
X21680000Y-31926000D01*
X17935000Y-31926000D02*
X18960000Y-31926000D01*
X22705000Y-31926000D02*
X22705000Y-32951000D01*
X17935000Y-31926000D02*
X17935000Y-32951000D01*
X17935000Y-36146000D02*
X17935000Y-35121000D01*
X17935000Y-36146000D02*
X18960000Y-36146000D01*
X22705000Y-36146000D02*
X21680000Y-36146000D01*
X22705000Y-36146000D02*
X22705000Y-35121000D01*
%TO.C,C11*%
X24157000Y-20820748D02*
X24157000Y-21343252D01*
X25627000Y-20820748D02*
X25627000Y-21343252D01*
%TO.C,C10*%
X26189000Y-20820748D02*
X26189000Y-21343252D01*
X27659000Y-20820748D02*
X27659000Y-21343252D01*
%TO.C,C9*%
X15346000Y-23672748D02*
X15346000Y-25095252D01*
X17166000Y-23672748D02*
X17166000Y-25095252D01*
%TO.C,C8*%
X12806000Y-23672748D02*
X12806000Y-25095252D01*
X14626000Y-23672748D02*
X14626000Y-25095252D01*
%TO.C,C7*%
X17499000Y-20073252D02*
X17499000Y-19550748D01*
X16029000Y-20073252D02*
X16029000Y-19550748D01*
%TO.C,C4*%
X18007000Y-39377252D02*
X18007000Y-38854748D01*
X16537000Y-39377252D02*
X16537000Y-38854748D01*
%TO.C,C3*%
X14568000Y-35255252D02*
X14568000Y-33832748D01*
X11848000Y-35255252D02*
X11848000Y-33832748D01*
%TO.C,C1*%
X37873000Y-62222748D02*
X37873000Y-62745252D01*
X39343000Y-62222748D02*
X39343000Y-62745252D01*
%TO.C,C6*%
X37390000Y-22601422D02*
X37390000Y-23118578D01*
X38810000Y-22601422D02*
X38810000Y-23118578D01*
%TO.C,C5*%
X47550000Y-22601422D02*
X47550000Y-23118578D01*
X48970000Y-22601422D02*
X48970000Y-23118578D01*
%TO.C,P8*%
X8950000Y-6290000D02*
X7620000Y-6290000D01*
X8950000Y-7620000D02*
X8950000Y-6290000D01*
X6350000Y-6290000D02*
X3750000Y-6290000D01*
X6350000Y-8890000D02*
X6350000Y-6290000D01*
X8950000Y-8890000D02*
X6350000Y-8890000D01*
X3750000Y-6290000D02*
X3750000Y-64830000D01*
X8950000Y-8890000D02*
X8950000Y-64830000D01*
X8950000Y-64830000D02*
X3750000Y-64830000D01*
%TO.C,R4*%
X43438578Y-9450000D02*
X42921422Y-9450000D01*
X43438578Y-10870000D02*
X42921422Y-10870000D01*
%TO.C,C2*%
X23474000Y-33433936D02*
X23474000Y-34638064D01*
X25294000Y-33433936D02*
X25294000Y-34638064D01*
%TO.C,U2*%
X43180000Y-25420000D02*
X46630000Y-25420000D01*
X43180000Y-25420000D02*
X41230000Y-25420000D01*
X43180000Y-20300000D02*
X45130000Y-20300000D01*
X43180000Y-20300000D02*
X41230000Y-20300000D01*
%TO.C,R2*%
X24642578Y-38152000D02*
X24125422Y-38152000D01*
X24642578Y-39572000D02*
X24125422Y-39572000D01*
%TO.C,R1*%
X27634000Y-36072578D02*
X27634000Y-35555422D01*
X26214000Y-36072578D02*
X26214000Y-35555422D01*
%TO.C,R3*%
X35358000Y-62225422D02*
X35358000Y-62742578D01*
X36778000Y-62225422D02*
X36778000Y-62742578D01*
%TO.C,P9*%
X57210000Y-6290000D02*
X55880000Y-6290000D01*
X57210000Y-7620000D02*
X57210000Y-6290000D01*
X54610000Y-6290000D02*
X52010000Y-6290000D01*
X54610000Y-8890000D02*
X54610000Y-6290000D01*
X57210000Y-8890000D02*
X54610000Y-8890000D01*
X52010000Y-6290000D02*
X52010000Y-64830000D01*
X57210000Y-8890000D02*
X57210000Y-64830000D01*
X57210000Y-64830000D02*
X52010000Y-64830000D01*
%TO.C,D1*%
X15256000Y-36794000D02*
X15256000Y-32894000D01*
X17256000Y-36794000D02*
X17256000Y-32894000D01*
X15256000Y-36794000D02*
X17256000Y-36794000D01*
%TO.C,U3*%
D11*
X20066095Y-26630380D02*
X20066095Y-27439904D01*
X20113714Y-27535142D01*
X20161333Y-27582761D01*
X20256571Y-27630380D01*
X20447047Y-27630380D01*
X20542285Y-27582761D01*
X20589904Y-27535142D01*
X20637523Y-27439904D01*
X20637523Y-26630380D01*
X21018476Y-26630380D02*
X21637523Y-26630380D01*
X21304190Y-27011333D01*
X21447047Y-27011333D01*
X21542285Y-27058952D01*
X21589904Y-27106571D01*
X21637523Y-27201809D01*
X21637523Y-27439904D01*
X21589904Y-27535142D01*
X21542285Y-27582761D01*
X21447047Y-27630380D01*
X21161333Y-27630380D01*
X21066095Y-27582761D01*
X21018476Y-27535142D01*
%TO.C,U1*%
X22312380Y-37845904D02*
X23121904Y-37845904D01*
X23217142Y-37798285D01*
X23264761Y-37750666D01*
X23312380Y-37655428D01*
X23312380Y-37464952D01*
X23264761Y-37369714D01*
X23217142Y-37322095D01*
X23121904Y-37274476D01*
X22312380Y-37274476D01*
X23312380Y-36274476D02*
X23312380Y-36845904D01*
X23312380Y-36560190D02*
X22312380Y-36560190D01*
X22455238Y-36655428D01*
X22550476Y-36750666D01*
X22598095Y-36845904D01*
%TO.C,R6*%
X27376380Y-27344666D02*
X26900190Y-27678000D01*
X27376380Y-27916095D02*
X26376380Y-27916095D01*
X26376380Y-27535142D01*
X26424000Y-27439904D01*
X26471619Y-27392285D01*
X26566857Y-27344666D01*
X26709714Y-27344666D01*
X26804952Y-27392285D01*
X26852571Y-27439904D01*
X26900190Y-27535142D01*
X26900190Y-27916095D01*
X26376380Y-26487523D02*
X26376380Y-26678000D01*
X26424000Y-26773238D01*
X26471619Y-26820857D01*
X26614476Y-26916095D01*
X26804952Y-26963714D01*
X27185904Y-26963714D01*
X27281142Y-26916095D01*
X27328761Y-26868476D01*
X27376380Y-26773238D01*
X27376380Y-26582761D01*
X27328761Y-26487523D01*
X27281142Y-26439904D01*
X27185904Y-26392285D01*
X26947809Y-26392285D01*
X26852571Y-26439904D01*
X26804952Y-26487523D01*
X26757333Y-26582761D01*
X26757333Y-26773238D01*
X26804952Y-26868476D01*
X26852571Y-26916095D01*
X26947809Y-26963714D01*
%TO.C,R5*%
X25344380Y-27344666D02*
X24868190Y-27678000D01*
X25344380Y-27916095D02*
X24344380Y-27916095D01*
X24344380Y-27535142D01*
X24392000Y-27439904D01*
X24439619Y-27392285D01*
X24534857Y-27344666D01*
X24677714Y-27344666D01*
X24772952Y-27392285D01*
X24820571Y-27439904D01*
X24868190Y-27535142D01*
X24868190Y-27916095D01*
X24344380Y-26439904D02*
X24344380Y-26916095D01*
X24820571Y-26963714D01*
X24772952Y-26916095D01*
X24725333Y-26820857D01*
X24725333Y-26582761D01*
X24772952Y-26487523D01*
X24820571Y-26439904D01*
X24915809Y-26392285D01*
X25153904Y-26392285D01*
X25249142Y-26439904D01*
X25296761Y-26487523D01*
X25344380Y-26582761D01*
X25344380Y-26820857D01*
X25296761Y-26916095D01*
X25249142Y-26963714D01*
%TO.C,L2*%
X20661333Y-18232380D02*
X20185142Y-18232380D01*
X20185142Y-17232380D01*
X20947047Y-17327619D02*
X20994666Y-17280000D01*
X21089904Y-17232380D01*
X21328000Y-17232380D01*
X21423238Y-17280000D01*
X21470857Y-17327619D01*
X21518476Y-17422857D01*
X21518476Y-17518095D01*
X21470857Y-17660952D01*
X20899428Y-18232380D01*
X21518476Y-18232380D01*
%TO.C,L1*%
X20153333Y-31694380D02*
X19677142Y-31694380D01*
X19677142Y-30694380D01*
X21010476Y-31694380D02*
X20439047Y-31694380D01*
X20724761Y-31694380D02*
X20724761Y-30694380D01*
X20629523Y-30837238D01*
X20534285Y-30932476D01*
X20439047Y-30980095D01*
%TO.C,C11*%
X25249142Y-18676857D02*
X25296761Y-18724476D01*
X25344380Y-18867333D01*
X25344380Y-18962571D01*
X25296761Y-19105428D01*
X25201523Y-19200666D01*
X25106285Y-19248285D01*
X24915809Y-19295904D01*
X24772952Y-19295904D01*
X24582476Y-19248285D01*
X24487238Y-19200666D01*
X24392000Y-19105428D01*
X24344380Y-18962571D01*
X24344380Y-18867333D01*
X24392000Y-18724476D01*
X24439619Y-18676857D01*
X25344380Y-17724476D02*
X25344380Y-18295904D01*
X25344380Y-18010190D02*
X24344380Y-18010190D01*
X24487238Y-18105428D01*
X24582476Y-18200666D01*
X24630095Y-18295904D01*
X25344380Y-16772095D02*
X25344380Y-17343523D01*
X25344380Y-17057809D02*
X24344380Y-17057809D01*
X24487238Y-17153047D01*
X24582476Y-17248285D01*
X24630095Y-17343523D01*
%TO.C,C10*%
X27281142Y-18676857D02*
X27328761Y-18724476D01*
X27376380Y-18867333D01*
X27376380Y-18962571D01*
X27328761Y-19105428D01*
X27233523Y-19200666D01*
X27138285Y-19248285D01*
X26947809Y-19295904D01*
X26804952Y-19295904D01*
X26614476Y-19248285D01*
X26519238Y-19200666D01*
X26424000Y-19105428D01*
X26376380Y-18962571D01*
X26376380Y-18867333D01*
X26424000Y-18724476D01*
X26471619Y-18676857D01*
X27376380Y-17724476D02*
X27376380Y-18295904D01*
X27376380Y-18010190D02*
X26376380Y-18010190D01*
X26519238Y-18105428D01*
X26614476Y-18200666D01*
X26662095Y-18295904D01*
X26376380Y-17105428D02*
X26376380Y-17010190D01*
X26424000Y-16914952D01*
X26471619Y-16867333D01*
X26566857Y-16819714D01*
X26757333Y-16772095D01*
X26995428Y-16772095D01*
X27185904Y-16819714D01*
X27281142Y-16867333D01*
X27328761Y-16914952D01*
X27376380Y-17010190D01*
X27376380Y-17105428D01*
X27328761Y-17200666D01*
X27281142Y-17248285D01*
X27185904Y-17295904D01*
X26995428Y-17343523D01*
X26757333Y-17343523D01*
X26566857Y-17295904D01*
X26471619Y-17248285D01*
X26424000Y-17200666D01*
X26376380Y-17105428D01*
%TO.C,C9*%
X18391142Y-24550666D02*
X18438761Y-24598285D01*
X18486380Y-24741142D01*
X18486380Y-24836380D01*
X18438761Y-24979238D01*
X18343523Y-25074476D01*
X18248285Y-25122095D01*
X18057809Y-25169714D01*
X17914952Y-25169714D01*
X17724476Y-25122095D01*
X17629238Y-25074476D01*
X17534000Y-24979238D01*
X17486380Y-24836380D01*
X17486380Y-24741142D01*
X17534000Y-24598285D01*
X17581619Y-24550666D01*
X18486380Y-24074476D02*
X18486380Y-23884000D01*
X18438761Y-23788761D01*
X18391142Y-23741142D01*
X18248285Y-23645904D01*
X18057809Y-23598285D01*
X17676857Y-23598285D01*
X17581619Y-23645904D01*
X17534000Y-23693523D01*
X17486380Y-23788761D01*
X17486380Y-23979238D01*
X17534000Y-24074476D01*
X17581619Y-24122095D01*
X17676857Y-24169714D01*
X17914952Y-24169714D01*
X18010190Y-24122095D01*
X18057809Y-24074476D01*
X18105428Y-23979238D01*
X18105428Y-23788761D01*
X18057809Y-23693523D01*
X18010190Y-23645904D01*
X17914952Y-23598285D01*
%TO.C,C8*%
X12295142Y-24550666D02*
X12342761Y-24598285D01*
X12390380Y-24741142D01*
X12390380Y-24836380D01*
X12342761Y-24979238D01*
X12247523Y-25074476D01*
X12152285Y-25122095D01*
X11961809Y-25169714D01*
X11818952Y-25169714D01*
X11628476Y-25122095D01*
X11533238Y-25074476D01*
X11438000Y-24979238D01*
X11390380Y-24836380D01*
X11390380Y-24741142D01*
X11438000Y-24598285D01*
X11485619Y-24550666D01*
X11818952Y-23979238D02*
X11771333Y-24074476D01*
X11723714Y-24122095D01*
X11628476Y-24169714D01*
X11580857Y-24169714D01*
X11485619Y-24122095D01*
X11438000Y-24074476D01*
X11390380Y-23979238D01*
X11390380Y-23788761D01*
X11438000Y-23693523D01*
X11485619Y-23645904D01*
X11580857Y-23598285D01*
X11628476Y-23598285D01*
X11723714Y-23645904D01*
X11771333Y-23693523D01*
X11818952Y-23788761D01*
X11818952Y-23979238D01*
X11866571Y-24074476D01*
X11914190Y-24122095D01*
X12009428Y-24169714D01*
X12199904Y-24169714D01*
X12295142Y-24122095D01*
X12342761Y-24074476D01*
X12390380Y-23979238D01*
X12390380Y-23788761D01*
X12342761Y-23693523D01*
X12295142Y-23645904D01*
X12199904Y-23598285D01*
X12009428Y-23598285D01*
X11914190Y-23645904D01*
X11866571Y-23693523D01*
X11818952Y-23788761D01*
%TO.C,C7*%
X15441142Y-19978666D02*
X15488761Y-20026285D01*
X15536380Y-20169142D01*
X15536380Y-20264380D01*
X15488761Y-20407238D01*
X15393523Y-20502476D01*
X15298285Y-20550095D01*
X15107809Y-20597714D01*
X14964952Y-20597714D01*
X14774476Y-20550095D01*
X14679238Y-20502476D01*
X14584000Y-20407238D01*
X14536380Y-20264380D01*
X14536380Y-20169142D01*
X14584000Y-20026285D01*
X14631619Y-19978666D01*
X14536380Y-19645333D02*
X14536380Y-18978666D01*
X15536380Y-19407238D01*
%TO.C,C4*%
X16105142Y-39282666D02*
X16152761Y-39330285D01*
X16200380Y-39473142D01*
X16200380Y-39568380D01*
X16152761Y-39711238D01*
X16057523Y-39806476D01*
X15962285Y-39854095D01*
X15771809Y-39901714D01*
X15628952Y-39901714D01*
X15438476Y-39854095D01*
X15343238Y-39806476D01*
X15248000Y-39711238D01*
X15200380Y-39568380D01*
X15200380Y-39473142D01*
X15248000Y-39330285D01*
X15295619Y-39282666D01*
X15533714Y-38425523D02*
X16200380Y-38425523D01*
X15152761Y-38663619D02*
X15867047Y-38901714D01*
X15867047Y-38282666D01*
%TO.C,C3*%
X11279142Y-34710666D02*
X11326761Y-34758285D01*
X11374380Y-34901142D01*
X11374380Y-34996380D01*
X11326761Y-35139238D01*
X11231523Y-35234476D01*
X11136285Y-35282095D01*
X10945809Y-35329714D01*
X10802952Y-35329714D01*
X10612476Y-35282095D01*
X10517238Y-35234476D01*
X10422000Y-35139238D01*
X10374380Y-34996380D01*
X10374380Y-34901142D01*
X10422000Y-34758285D01*
X10469619Y-34710666D01*
X10374380Y-34377333D02*
X10374380Y-33758285D01*
X10755333Y-34091619D01*
X10755333Y-33948761D01*
X10802952Y-33853523D01*
X10850571Y-33805904D01*
X10945809Y-33758285D01*
X11183904Y-33758285D01*
X11279142Y-33805904D01*
X11326761Y-33853523D01*
X11374380Y-33948761D01*
X11374380Y-34234476D01*
X11326761Y-34329714D01*
X11279142Y-34377333D01*
%TO.C,C1*%
X40645142Y-62650666D02*
X40692761Y-62698285D01*
X40740380Y-62841142D01*
X40740380Y-62936380D01*
X40692761Y-63079238D01*
X40597523Y-63174476D01*
X40502285Y-63222095D01*
X40311809Y-63269714D01*
X40168952Y-63269714D01*
X39978476Y-63222095D01*
X39883238Y-63174476D01*
X39788000Y-63079238D01*
X39740380Y-62936380D01*
X39740380Y-62841142D01*
X39788000Y-62698285D01*
X39835619Y-62650666D01*
X40740380Y-61698285D02*
X40740380Y-62269714D01*
X40740380Y-61984000D02*
X39740380Y-61984000D01*
X39883238Y-62079238D01*
X39978476Y-62174476D01*
X40026095Y-62269714D01*
%TO.C,C6*%
X36933142Y-23026666D02*
X36980761Y-23074285D01*
X37028380Y-23217142D01*
X37028380Y-23312380D01*
X36980761Y-23455238D01*
X36885523Y-23550476D01*
X36790285Y-23598095D01*
X36599809Y-23645714D01*
X36456952Y-23645714D01*
X36266476Y-23598095D01*
X36171238Y-23550476D01*
X36076000Y-23455238D01*
X36028380Y-23312380D01*
X36028380Y-23217142D01*
X36076000Y-23074285D01*
X36123619Y-23026666D01*
X36028380Y-22169523D02*
X36028380Y-22360000D01*
X36076000Y-22455238D01*
X36123619Y-22502857D01*
X36266476Y-22598095D01*
X36456952Y-22645714D01*
X36837904Y-22645714D01*
X36933142Y-22598095D01*
X36980761Y-22550476D01*
X37028380Y-22455238D01*
X37028380Y-22264761D01*
X36980761Y-22169523D01*
X36933142Y-22121904D01*
X36837904Y-22074285D01*
X36599809Y-22074285D01*
X36504571Y-22121904D01*
X36456952Y-22169523D01*
X36409333Y-22264761D01*
X36409333Y-22455238D01*
X36456952Y-22550476D01*
X36504571Y-22598095D01*
X36599809Y-22645714D01*
%TO.C,C5*%
X50141142Y-23026666D02*
X50188761Y-23074285D01*
X50236380Y-23217142D01*
X50236380Y-23312380D01*
X50188761Y-23455238D01*
X50093523Y-23550476D01*
X49998285Y-23598095D01*
X49807809Y-23645714D01*
X49664952Y-23645714D01*
X49474476Y-23598095D01*
X49379238Y-23550476D01*
X49284000Y-23455238D01*
X49236380Y-23312380D01*
X49236380Y-23217142D01*
X49284000Y-23074285D01*
X49331619Y-23026666D01*
X49236380Y-22121904D02*
X49236380Y-22598095D01*
X49712571Y-22645714D01*
X49664952Y-22598095D01*
X49617333Y-22502857D01*
X49617333Y-22264761D01*
X49664952Y-22169523D01*
X49712571Y-22121904D01*
X49807809Y-22074285D01*
X50045904Y-22074285D01*
X50141142Y-22121904D01*
X50188761Y-22169523D01*
X50236380Y-22264761D01*
X50236380Y-22502857D01*
X50188761Y-22598095D01*
X50141142Y-22645714D01*
%TO.C,P8*%
X5611904Y-5742380D02*
X5611904Y-4742380D01*
X5992857Y-4742380D01*
X6088095Y-4790000D01*
X6135714Y-4837619D01*
X6183333Y-4932857D01*
X6183333Y-5075714D01*
X6135714Y-5170952D01*
X6088095Y-5218571D01*
X5992857Y-5266190D01*
X5611904Y-5266190D01*
X6754761Y-5170952D02*
X6659523Y-5123333D01*
X6611904Y-5075714D01*
X6564285Y-4980476D01*
X6564285Y-4932857D01*
X6611904Y-4837619D01*
X6659523Y-4790000D01*
X6754761Y-4742380D01*
X6945238Y-4742380D01*
X7040476Y-4790000D01*
X7088095Y-4837619D01*
X7135714Y-4932857D01*
X7135714Y-4980476D01*
X7088095Y-5075714D01*
X7040476Y-5123333D01*
X6945238Y-5170952D01*
X6754761Y-5170952D01*
X6659523Y-5218571D01*
X6611904Y-5266190D01*
X6564285Y-5361428D01*
X6564285Y-5551904D01*
X6611904Y-5647142D01*
X6659523Y-5694761D01*
X6754761Y-5742380D01*
X6945238Y-5742380D01*
X7040476Y-5694761D01*
X7088095Y-5647142D01*
X7135714Y-5551904D01*
X7135714Y-5361428D01*
X7088095Y-5266190D01*
X7040476Y-5218571D01*
X6945238Y-5170952D01*
%TO.C,R4*%
X43013333Y-9088380D02*
X42680000Y-8612190D01*
X42441904Y-9088380D02*
X42441904Y-8088380D01*
X42822857Y-8088380D01*
X42918095Y-8136000D01*
X42965714Y-8183619D01*
X43013333Y-8278857D01*
X43013333Y-8421714D01*
X42965714Y-8516952D01*
X42918095Y-8564571D01*
X42822857Y-8612190D01*
X42441904Y-8612190D01*
X43870476Y-8421714D02*
X43870476Y-9088380D01*
X43632380Y-8040761D02*
X43394285Y-8755047D01*
X44013333Y-8755047D01*
%TO.C,C2*%
X26519142Y-32678666D02*
X26566761Y-32726285D01*
X26614380Y-32869142D01*
X26614380Y-32964380D01*
X26566761Y-33107238D01*
X26471523Y-33202476D01*
X26376285Y-33250095D01*
X26185809Y-33297714D01*
X26042952Y-33297714D01*
X25852476Y-33250095D01*
X25757238Y-33202476D01*
X25662000Y-33107238D01*
X25614380Y-32964380D01*
X25614380Y-32869142D01*
X25662000Y-32726285D01*
X25709619Y-32678666D01*
X25709619Y-32297714D02*
X25662000Y-32250095D01*
X25614380Y-32154857D01*
X25614380Y-31916761D01*
X25662000Y-31821523D01*
X25709619Y-31773904D01*
X25804857Y-31726285D01*
X25900095Y-31726285D01*
X26042952Y-31773904D01*
X26614380Y-32345333D01*
X26614380Y-31726285D01*
%TO.C,U2*%
X42418095Y-19010380D02*
X42418095Y-19819904D01*
X42465714Y-19915142D01*
X42513333Y-19962761D01*
X42608571Y-20010380D01*
X42799047Y-20010380D01*
X42894285Y-19962761D01*
X42941904Y-19915142D01*
X42989523Y-19819904D01*
X42989523Y-19010380D01*
X43418095Y-19105619D02*
X43465714Y-19058000D01*
X43560952Y-19010380D01*
X43799047Y-19010380D01*
X43894285Y-19058000D01*
X43941904Y-19105619D01*
X43989523Y-19200857D01*
X43989523Y-19296095D01*
X43941904Y-19438952D01*
X43370476Y-20010380D01*
X43989523Y-20010380D01*
%TO.C,R2*%
X24217333Y-40838380D02*
X23884000Y-40362190D01*
X23645904Y-40838380D02*
X23645904Y-39838380D01*
X24026857Y-39838380D01*
X24122095Y-39886000D01*
X24169714Y-39933619D01*
X24217333Y-40028857D01*
X24217333Y-40171714D01*
X24169714Y-40266952D01*
X24122095Y-40314571D01*
X24026857Y-40362190D01*
X23645904Y-40362190D01*
X24598285Y-39933619D02*
X24645904Y-39886000D01*
X24741142Y-39838380D01*
X24979238Y-39838380D01*
X25074476Y-39886000D01*
X25122095Y-39933619D01*
X25169714Y-40028857D01*
X25169714Y-40124095D01*
X25122095Y-40266952D01*
X24550666Y-40838380D01*
X25169714Y-40838380D01*
%TO.C,R1*%
X29154380Y-35980666D02*
X28678190Y-36314000D01*
X29154380Y-36552095D02*
X28154380Y-36552095D01*
X28154380Y-36171142D01*
X28202000Y-36075904D01*
X28249619Y-36028285D01*
X28344857Y-35980666D01*
X28487714Y-35980666D01*
X28582952Y-36028285D01*
X28630571Y-36075904D01*
X28678190Y-36171142D01*
X28678190Y-36552095D01*
X29154380Y-35028285D02*
X29154380Y-35599714D01*
X29154380Y-35314000D02*
X28154380Y-35314000D01*
X28297238Y-35409238D01*
X28392476Y-35504476D01*
X28440095Y-35599714D01*
%TO.C,R3*%
X34996380Y-62650666D02*
X34520190Y-62984000D01*
X34996380Y-63222095D02*
X33996380Y-63222095D01*
X33996380Y-62841142D01*
X34044000Y-62745904D01*
X34091619Y-62698285D01*
X34186857Y-62650666D01*
X34329714Y-62650666D01*
X34424952Y-62698285D01*
X34472571Y-62745904D01*
X34520190Y-62841142D01*
X34520190Y-63222095D01*
X33996380Y-62317333D02*
X33996380Y-61698285D01*
X34377333Y-62031619D01*
X34377333Y-61888761D01*
X34424952Y-61793523D01*
X34472571Y-61745904D01*
X34567809Y-61698285D01*
X34805904Y-61698285D01*
X34901142Y-61745904D01*
X34948761Y-61793523D01*
X34996380Y-61888761D01*
X34996380Y-62174476D01*
X34948761Y-62269714D01*
X34901142Y-62317333D01*
%TO.C,P9*%
X53871904Y-5742380D02*
X53871904Y-4742380D01*
X54252857Y-4742380D01*
X54348095Y-4790000D01*
X54395714Y-4837619D01*
X54443333Y-4932857D01*
X54443333Y-5075714D01*
X54395714Y-5170952D01*
X54348095Y-5218571D01*
X54252857Y-5266190D01*
X53871904Y-5266190D01*
X54919523Y-5742380D02*
X55110000Y-5742380D01*
X55205238Y-5694761D01*
X55252857Y-5647142D01*
X55348095Y-5504285D01*
X55395714Y-5313809D01*
X55395714Y-4932857D01*
X55348095Y-4837619D01*
X55300476Y-4790000D01*
X55205238Y-4742380D01*
X55014761Y-4742380D01*
X54919523Y-4790000D01*
X54871904Y-4837619D01*
X54824285Y-4932857D01*
X54824285Y-5170952D01*
X54871904Y-5266190D01*
X54919523Y-5313809D01*
X55014761Y-5361428D01*
X55205238Y-5361428D01*
X55300476Y-5313809D01*
X55348095Y-5266190D01*
X55395714Y-5170952D01*
%TO.C,D1*%
X16708380Y-31980095D02*
X15708380Y-31980095D01*
X15708380Y-31742000D01*
X15756000Y-31599142D01*
X15851238Y-31503904D01*
X15946476Y-31456285D01*
X16136952Y-31408666D01*
X16279809Y-31408666D01*
X16470285Y-31456285D01*
X16565523Y-31503904D01*
X16660761Y-31599142D01*
X16708380Y-31742000D01*
X16708380Y-31980095D01*
X16708380Y-30456285D02*
X16708380Y-31027714D01*
X16708380Y-30742000D02*
X15708380Y-30742000D01*
X15851238Y-30837238D01*
X15946476Y-30932476D01*
X15994095Y-31027714D01*
%TD*%
M02*
