M48
; DRILL file {KiCad 5.1.10} date Wed Jun  2 18:32:54 2021
; FORMAT={-:-/ absolute / metric / decimal}
; #@! TF.CreationDate,2021-06-02T18:32:54+01:00
; #@! TF.GenerationSoftware,Kicad,Pcbnew,5.1.10
; #@! TF.FileFunction,Plated,1,2,PTH
FMAT,2
METRIC
T1C0.300
T2C0.400
T3C0.850
T4C1.000
%
G90
G05
T1
X15.748Y-38.1
X19.304Y-41.148
X20.32Y-36.322
X21.547Y-44.45
X22.479Y-44.45
X22.86Y-60.452
X22.86Y-36.83
X23.241Y-45.085
X23.876Y-24.638
X24.003Y-44.45
X24.892Y-19.05
X25.273Y-50.927
X25.4Y-63.246
X26.162Y-51.308
X26.162Y-60.452
X26.924Y-51.816
X27.813Y-52.197
X29.21Y-52.832
X29.718Y-47.625
X29.718Y-60.452
X30.861Y-48.492
X31.75Y-49.149
X33.147Y-49.784
X33.782Y-60.452
X34.036Y-50.419
X34.671Y-51.054
X35.56Y-45.466
X36.83Y-46.609
X37.338Y-60.452
X37.592Y-47.879
X38.481Y-48.514
X38.608Y-60.452
X38.608Y-64.516
X39.116Y-57.658
X39.243Y-47.244
X42.418Y-22.098
X43.18Y-23.368
X48.26Y-60.452
X49.784Y-22.86
X49.784Y-34.798
X50.8Y-24.892
X51.562Y-20.32
T2
X13.208Y-34.29
X15.748Y-24.638
X17.78Y-13.97
X18.288Y-29.464
X18.73Y-23.688
X22.352Y-29.464
X23.622Y-23.114
X24.384Y-34.29
X24.384Y-37.592
X40.259Y-42.291
X40.894Y-41.402
X48.26Y-20.828
T3
X12.7Y-12.7
X15.2Y-12.7
X41.91Y-12.7
X44.41Y-12.7
X46.91Y-12.7
T4
X5.08Y-7.62
X5.08Y-10.16
X5.08Y-12.7
X5.08Y-15.24
X5.08Y-17.78
X5.08Y-20.32
X5.08Y-22.86
X5.08Y-25.4
X5.08Y-27.94
X5.08Y-30.48
X5.08Y-33.02
X5.08Y-35.56
X5.08Y-38.1
X5.08Y-40.64
X5.08Y-43.18
X5.08Y-45.72
X5.08Y-48.26
X5.08Y-50.8
X5.08Y-53.34
X5.08Y-55.88
X5.08Y-58.42
X5.08Y-60.96
X5.08Y-63.5
X7.62Y-7.62
X7.62Y-10.16
X7.62Y-12.7
X7.62Y-15.24
X7.62Y-17.78
X7.62Y-20.32
X7.62Y-22.86
X7.62Y-25.4
X7.62Y-27.94
X7.62Y-30.48
X7.62Y-33.02
X7.62Y-35.56
X7.62Y-38.1
X7.62Y-40.64
X7.62Y-43.18
X7.62Y-45.72
X7.62Y-48.26
X7.62Y-50.8
X7.62Y-53.34
X7.62Y-55.88
X7.62Y-58.42
X7.62Y-60.96
X7.62Y-63.5
X34.29Y-20.32
X34.29Y-22.86
X34.29Y-29.21
X34.29Y-31.75
X34.29Y-36.83
X43.18Y-29.21
X43.18Y-31.75
X45.72Y-53.34
X45.72Y-55.88
X53.34Y-7.62
X53.34Y-10.16
X53.34Y-12.7
X53.34Y-15.24
X53.34Y-17.78
X53.34Y-20.32
X53.34Y-22.86
X53.34Y-25.4
X53.34Y-27.94
X53.34Y-30.48
X53.34Y-33.02
X53.34Y-35.56
X53.34Y-38.1
X53.34Y-40.64
X53.34Y-43.18
X53.34Y-45.72
X53.34Y-48.26
X53.34Y-50.8
X53.34Y-53.34
X53.34Y-55.88
X53.34Y-58.42
X53.34Y-60.96
X53.34Y-63.5
X55.88Y-7.62
X55.88Y-10.16
X55.88Y-12.7
X55.88Y-15.24
X55.88Y-17.78
X55.88Y-20.32
X55.88Y-22.86
X55.88Y-25.4
X55.88Y-27.94
X55.88Y-30.48
X55.88Y-33.02
X55.88Y-35.56
X55.88Y-38.1
X55.88Y-40.64
X55.88Y-43.18
X55.88Y-45.72
X55.88Y-48.26
X55.88Y-50.8
X55.88Y-53.34
X55.88Y-55.88
X55.88Y-58.42
X55.88Y-60.96
X55.88Y-63.5
T0
M30
