%TF.GenerationSoftware,KiCad,Pcbnew,5.1.10*%
%TF.CreationDate,2021-06-02T18:32:35+01:00*%
%TF.ProjectId,BB_Dash_Display,42425f44-6173-4685-9f44-6973706c6179,A3*%
%TF.SameCoordinates,PX43d3480PY41672a0*%
%TF.FileFunction,Soldermask,Top*%
%TF.FilePolarity,Negative*%
%FSLAX46Y46*%
G04 Gerber Fmt 4.6, Leading zero omitted, Abs format (unit mm)*
G04 Created by KiCad (PCBNEW 5.1.10) date 2021-06-02 18:32:35*
%MOMM*%
%LPD*%
G01*
G04 APERTURE LIST*
%ADD10R,1.500000X3.600000*%
%ADD11O,1.700000X1.700000*%
%ADD12R,1.700000X1.700000*%
%ADD13C,2.000000*%
%ADD14O,1.700000X1.850000*%
%ADD15R,1.200000X0.900000*%
G04 APERTURE END LIST*
%TO.C,U3*%
G36*
G01*
X21303000Y-23838000D02*
X21303000Y-23538000D01*
G75*
G02*
X21453000Y-23388000I150000J0D01*
G01*
X22478000Y-23388000D01*
G75*
G02*
X22628000Y-23538000I0J-150000D01*
G01*
X22628000Y-23838000D01*
G75*
G02*
X22478000Y-23988000I-150000J0D01*
G01*
X21453000Y-23988000D01*
G75*
G02*
X21303000Y-23838000I0J150000D01*
G01*
G37*
G36*
G01*
X21303000Y-24788000D02*
X21303000Y-24488000D01*
G75*
G02*
X21453000Y-24338000I150000J0D01*
G01*
X22478000Y-24338000D01*
G75*
G02*
X22628000Y-24488000I0J-150000D01*
G01*
X22628000Y-24788000D01*
G75*
G02*
X22478000Y-24938000I-150000J0D01*
G01*
X21453000Y-24938000D01*
G75*
G02*
X21303000Y-24788000I0J150000D01*
G01*
G37*
G36*
G01*
X21303000Y-25738000D02*
X21303000Y-25438000D01*
G75*
G02*
X21453000Y-25288000I150000J0D01*
G01*
X22478000Y-25288000D01*
G75*
G02*
X22628000Y-25438000I0J-150000D01*
G01*
X22628000Y-25738000D01*
G75*
G02*
X22478000Y-25888000I-150000J0D01*
G01*
X21453000Y-25888000D01*
G75*
G02*
X21303000Y-25738000I0J150000D01*
G01*
G37*
G36*
G01*
X19028000Y-25738000D02*
X19028000Y-25438000D01*
G75*
G02*
X19178000Y-25288000I150000J0D01*
G01*
X20203000Y-25288000D01*
G75*
G02*
X20353000Y-25438000I0J-150000D01*
G01*
X20353000Y-25738000D01*
G75*
G02*
X20203000Y-25888000I-150000J0D01*
G01*
X19178000Y-25888000D01*
G75*
G02*
X19028000Y-25738000I0J150000D01*
G01*
G37*
G36*
G01*
X19028000Y-24788000D02*
X19028000Y-24488000D01*
G75*
G02*
X19178000Y-24338000I150000J0D01*
G01*
X20203000Y-24338000D01*
G75*
G02*
X20353000Y-24488000I0J-150000D01*
G01*
X20353000Y-24788000D01*
G75*
G02*
X20203000Y-24938000I-150000J0D01*
G01*
X19178000Y-24938000D01*
G75*
G02*
X19028000Y-24788000I0J150000D01*
G01*
G37*
G36*
G01*
X19028000Y-23838000D02*
X19028000Y-23538000D01*
G75*
G02*
X19178000Y-23388000I150000J0D01*
G01*
X20203000Y-23388000D01*
G75*
G02*
X20353000Y-23538000I0J-150000D01*
G01*
X20353000Y-23838000D01*
G75*
G02*
X20203000Y-23988000I-150000J0D01*
G01*
X19178000Y-23988000D01*
G75*
G02*
X19028000Y-23838000I0J150000D01*
G01*
G37*
%TD*%
%TO.C,U1*%
G36*
G01*
X21120000Y-39083000D02*
X21420000Y-39083000D01*
G75*
G02*
X21570000Y-39233000I0J-150000D01*
G01*
X21570000Y-40258000D01*
G75*
G02*
X21420000Y-40408000I-150000J0D01*
G01*
X21120000Y-40408000D01*
G75*
G02*
X20970000Y-40258000I0J150000D01*
G01*
X20970000Y-39233000D01*
G75*
G02*
X21120000Y-39083000I150000J0D01*
G01*
G37*
G36*
G01*
X20170000Y-39083000D02*
X20470000Y-39083000D01*
G75*
G02*
X20620000Y-39233000I0J-150000D01*
G01*
X20620000Y-40258000D01*
G75*
G02*
X20470000Y-40408000I-150000J0D01*
G01*
X20170000Y-40408000D01*
G75*
G02*
X20020000Y-40258000I0J150000D01*
G01*
X20020000Y-39233000D01*
G75*
G02*
X20170000Y-39083000I150000J0D01*
G01*
G37*
G36*
G01*
X19220000Y-39083000D02*
X19520000Y-39083000D01*
G75*
G02*
X19670000Y-39233000I0J-150000D01*
G01*
X19670000Y-40258000D01*
G75*
G02*
X19520000Y-40408000I-150000J0D01*
G01*
X19220000Y-40408000D01*
G75*
G02*
X19070000Y-40258000I0J150000D01*
G01*
X19070000Y-39233000D01*
G75*
G02*
X19220000Y-39083000I150000J0D01*
G01*
G37*
G36*
G01*
X19220000Y-36808000D02*
X19520000Y-36808000D01*
G75*
G02*
X19670000Y-36958000I0J-150000D01*
G01*
X19670000Y-37983000D01*
G75*
G02*
X19520000Y-38133000I-150000J0D01*
G01*
X19220000Y-38133000D01*
G75*
G02*
X19070000Y-37983000I0J150000D01*
G01*
X19070000Y-36958000D01*
G75*
G02*
X19220000Y-36808000I150000J0D01*
G01*
G37*
G36*
G01*
X20170000Y-36808000D02*
X20470000Y-36808000D01*
G75*
G02*
X20620000Y-36958000I0J-150000D01*
G01*
X20620000Y-37983000D01*
G75*
G02*
X20470000Y-38133000I-150000J0D01*
G01*
X20170000Y-38133000D01*
G75*
G02*
X20020000Y-37983000I0J150000D01*
G01*
X20020000Y-36958000D01*
G75*
G02*
X20170000Y-36808000I150000J0D01*
G01*
G37*
G36*
G01*
X21120000Y-36808000D02*
X21420000Y-36808000D01*
G75*
G02*
X21570000Y-36958000I0J-150000D01*
G01*
X21570000Y-37983000D01*
G75*
G02*
X21420000Y-38133000I-150000J0D01*
G01*
X21120000Y-38133000D01*
G75*
G02*
X20970000Y-37983000I0J150000D01*
G01*
X20970000Y-36958000D01*
G75*
G02*
X21120000Y-36808000I150000J0D01*
G01*
G37*
%TD*%
%TO.C,R6*%
G36*
G01*
X27374001Y-24238000D02*
X26473999Y-24238000D01*
G75*
G02*
X26224000Y-23988001I0J249999D01*
G01*
X26224000Y-23462999D01*
G75*
G02*
X26473999Y-23213000I249999J0D01*
G01*
X27374001Y-23213000D01*
G75*
G02*
X27624000Y-23462999I0J-249999D01*
G01*
X27624000Y-23988001D01*
G75*
G02*
X27374001Y-24238000I-249999J0D01*
G01*
G37*
G36*
G01*
X27374001Y-26063000D02*
X26473999Y-26063000D01*
G75*
G02*
X26224000Y-25813001I0J249999D01*
G01*
X26224000Y-25287999D01*
G75*
G02*
X26473999Y-25038000I249999J0D01*
G01*
X27374001Y-25038000D01*
G75*
G02*
X27624000Y-25287999I0J-249999D01*
G01*
X27624000Y-25813001D01*
G75*
G02*
X27374001Y-26063000I-249999J0D01*
G01*
G37*
%TD*%
%TO.C,R5*%
G36*
G01*
X24441999Y-25038000D02*
X25342001Y-25038000D01*
G75*
G02*
X25592000Y-25287999I0J-249999D01*
G01*
X25592000Y-25813001D01*
G75*
G02*
X25342001Y-26063000I-249999J0D01*
G01*
X24441999Y-26063000D01*
G75*
G02*
X24192000Y-25813001I0J249999D01*
G01*
X24192000Y-25287999D01*
G75*
G02*
X24441999Y-25038000I249999J0D01*
G01*
G37*
G36*
G01*
X24441999Y-23213000D02*
X25342001Y-23213000D01*
G75*
G02*
X25592000Y-23462999I0J-249999D01*
G01*
X25592000Y-23988001D01*
G75*
G02*
X25342001Y-24238000I-249999J0D01*
G01*
X24441999Y-24238000D01*
G75*
G02*
X24192000Y-23988001I0J249999D01*
G01*
X24192000Y-23462999D01*
G75*
G02*
X24441999Y-23213000I249999J0D01*
G01*
G37*
%TD*%
D10*
%TO.C,L2*%
X22353000Y-20574000D03*
X19303000Y-20574000D03*
%TD*%
%TO.C,L1*%
X18795000Y-34036000D03*
X21845000Y-34036000D03*
%TD*%
%TO.C,C11*%
G36*
G01*
X24417000Y-21532000D02*
X25367000Y-21532000D01*
G75*
G02*
X25617000Y-21782000I0J-250000D01*
G01*
X25617000Y-22282000D01*
G75*
G02*
X25367000Y-22532000I-250000J0D01*
G01*
X24417000Y-22532000D01*
G75*
G02*
X24167000Y-22282000I0J250000D01*
G01*
X24167000Y-21782000D01*
G75*
G02*
X24417000Y-21532000I250000J0D01*
G01*
G37*
G36*
G01*
X24417000Y-19632000D02*
X25367000Y-19632000D01*
G75*
G02*
X25617000Y-19882000I0J-250000D01*
G01*
X25617000Y-20382000D01*
G75*
G02*
X25367000Y-20632000I-250000J0D01*
G01*
X24417000Y-20632000D01*
G75*
G02*
X24167000Y-20382000I0J250000D01*
G01*
X24167000Y-19882000D01*
G75*
G02*
X24417000Y-19632000I250000J0D01*
G01*
G37*
%TD*%
%TO.C,C10*%
G36*
G01*
X26449000Y-21532000D02*
X27399000Y-21532000D01*
G75*
G02*
X27649000Y-21782000I0J-250000D01*
G01*
X27649000Y-22282000D01*
G75*
G02*
X27399000Y-22532000I-250000J0D01*
G01*
X26449000Y-22532000D01*
G75*
G02*
X26199000Y-22282000I0J250000D01*
G01*
X26199000Y-21782000D01*
G75*
G02*
X26449000Y-21532000I250000J0D01*
G01*
G37*
G36*
G01*
X26449000Y-19632000D02*
X27399000Y-19632000D01*
G75*
G02*
X27649000Y-19882000I0J-250000D01*
G01*
X27649000Y-20382000D01*
G75*
G02*
X27399000Y-20632000I-250000J0D01*
G01*
X26449000Y-20632000D01*
G75*
G02*
X26199000Y-20382000I0J250000D01*
G01*
X26199000Y-19882000D01*
G75*
G02*
X26449000Y-19632000I250000J0D01*
G01*
G37*
%TD*%
%TO.C,C9*%
G36*
G01*
X15605999Y-25284000D02*
X16906001Y-25284000D01*
G75*
G02*
X17156000Y-25533999I0J-249999D01*
G01*
X17156000Y-26184001D01*
G75*
G02*
X16906001Y-26434000I-249999J0D01*
G01*
X15605999Y-26434000D01*
G75*
G02*
X15356000Y-26184001I0J249999D01*
G01*
X15356000Y-25533999D01*
G75*
G02*
X15605999Y-25284000I249999J0D01*
G01*
G37*
G36*
G01*
X15605999Y-22334000D02*
X16906001Y-22334000D01*
G75*
G02*
X17156000Y-22583999I0J-249999D01*
G01*
X17156000Y-23234001D01*
G75*
G02*
X16906001Y-23484000I-249999J0D01*
G01*
X15605999Y-23484000D01*
G75*
G02*
X15356000Y-23234001I0J249999D01*
G01*
X15356000Y-22583999D01*
G75*
G02*
X15605999Y-22334000I249999J0D01*
G01*
G37*
%TD*%
%TO.C,C8*%
G36*
G01*
X13065999Y-25284000D02*
X14366001Y-25284000D01*
G75*
G02*
X14616000Y-25533999I0J-249999D01*
G01*
X14616000Y-26184001D01*
G75*
G02*
X14366001Y-26434000I-249999J0D01*
G01*
X13065999Y-26434000D01*
G75*
G02*
X12816000Y-26184001I0J249999D01*
G01*
X12816000Y-25533999D01*
G75*
G02*
X13065999Y-25284000I249999J0D01*
G01*
G37*
G36*
G01*
X13065999Y-22334000D02*
X14366001Y-22334000D01*
G75*
G02*
X14616000Y-22583999I0J-249999D01*
G01*
X14616000Y-23234001D01*
G75*
G02*
X14366001Y-23484000I-249999J0D01*
G01*
X13065999Y-23484000D01*
G75*
G02*
X12816000Y-23234001I0J249999D01*
G01*
X12816000Y-22583999D01*
G75*
G02*
X13065999Y-22334000I249999J0D01*
G01*
G37*
%TD*%
%TO.C,C7*%
G36*
G01*
X17239000Y-19362000D02*
X16289000Y-19362000D01*
G75*
G02*
X16039000Y-19112000I0J250000D01*
G01*
X16039000Y-18612000D01*
G75*
G02*
X16289000Y-18362000I250000J0D01*
G01*
X17239000Y-18362000D01*
G75*
G02*
X17489000Y-18612000I0J-250000D01*
G01*
X17489000Y-19112000D01*
G75*
G02*
X17239000Y-19362000I-250000J0D01*
G01*
G37*
G36*
G01*
X17239000Y-21262000D02*
X16289000Y-21262000D01*
G75*
G02*
X16039000Y-21012000I0J250000D01*
G01*
X16039000Y-20512000D01*
G75*
G02*
X16289000Y-20262000I250000J0D01*
G01*
X17239000Y-20262000D01*
G75*
G02*
X17489000Y-20512000I0J-250000D01*
G01*
X17489000Y-21012000D01*
G75*
G02*
X17239000Y-21262000I-250000J0D01*
G01*
G37*
%TD*%
%TO.C,C4*%
G36*
G01*
X17747000Y-38666000D02*
X16797000Y-38666000D01*
G75*
G02*
X16547000Y-38416000I0J250000D01*
G01*
X16547000Y-37916000D01*
G75*
G02*
X16797000Y-37666000I250000J0D01*
G01*
X17747000Y-37666000D01*
G75*
G02*
X17997000Y-37916000I0J-250000D01*
G01*
X17997000Y-38416000D01*
G75*
G02*
X17747000Y-38666000I-250000J0D01*
G01*
G37*
G36*
G01*
X17747000Y-40566000D02*
X16797000Y-40566000D01*
G75*
G02*
X16547000Y-40316000I0J250000D01*
G01*
X16547000Y-39816000D01*
G75*
G02*
X16797000Y-39566000I250000J0D01*
G01*
X17747000Y-39566000D01*
G75*
G02*
X17997000Y-39816000I0J-250000D01*
G01*
X17997000Y-40316000D01*
G75*
G02*
X17747000Y-40566000I-250000J0D01*
G01*
G37*
%TD*%
%TO.C,C3*%
G36*
G01*
X14308001Y-33644000D02*
X12107999Y-33644000D01*
G75*
G02*
X11858000Y-33394001I0J249999D01*
G01*
X11858000Y-32743999D01*
G75*
G02*
X12107999Y-32494000I249999J0D01*
G01*
X14308001Y-32494000D01*
G75*
G02*
X14558000Y-32743999I0J-249999D01*
G01*
X14558000Y-33394001D01*
G75*
G02*
X14308001Y-33644000I-249999J0D01*
G01*
G37*
G36*
G01*
X14308001Y-36594000D02*
X12107999Y-36594000D01*
G75*
G02*
X11858000Y-36344001I0J249999D01*
G01*
X11858000Y-35693999D01*
G75*
G02*
X12107999Y-35444000I249999J0D01*
G01*
X14308001Y-35444000D01*
G75*
G02*
X14558000Y-35693999I0J-249999D01*
G01*
X14558000Y-36344001D01*
G75*
G02*
X14308001Y-36594000I-249999J0D01*
G01*
G37*
%TD*%
%TO.C,C1*%
G36*
G01*
X38133000Y-62934000D02*
X39083000Y-62934000D01*
G75*
G02*
X39333000Y-63184000I0J-250000D01*
G01*
X39333000Y-63684000D01*
G75*
G02*
X39083000Y-63934000I-250000J0D01*
G01*
X38133000Y-63934000D01*
G75*
G02*
X37883000Y-63684000I0J250000D01*
G01*
X37883000Y-63184000D01*
G75*
G02*
X38133000Y-62934000I250000J0D01*
G01*
G37*
G36*
G01*
X38133000Y-61034000D02*
X39083000Y-61034000D01*
G75*
G02*
X39333000Y-61284000I0J-250000D01*
G01*
X39333000Y-61784000D01*
G75*
G02*
X39083000Y-62034000I-250000J0D01*
G01*
X38133000Y-62034000D01*
G75*
G02*
X37883000Y-61784000I0J250000D01*
G01*
X37883000Y-61284000D01*
G75*
G02*
X38133000Y-61034000I250000J0D01*
G01*
G37*
%TD*%
%TO.C,C6*%
G36*
G01*
X37643750Y-23310000D02*
X38556250Y-23310000D01*
G75*
G02*
X38800000Y-23553750I0J-243750D01*
G01*
X38800000Y-24041250D01*
G75*
G02*
X38556250Y-24285000I-243750J0D01*
G01*
X37643750Y-24285000D01*
G75*
G02*
X37400000Y-24041250I0J243750D01*
G01*
X37400000Y-23553750D01*
G75*
G02*
X37643750Y-23310000I243750J0D01*
G01*
G37*
G36*
G01*
X37643750Y-21435000D02*
X38556250Y-21435000D01*
G75*
G02*
X38800000Y-21678750I0J-243750D01*
G01*
X38800000Y-22166250D01*
G75*
G02*
X38556250Y-22410000I-243750J0D01*
G01*
X37643750Y-22410000D01*
G75*
G02*
X37400000Y-22166250I0J243750D01*
G01*
X37400000Y-21678750D01*
G75*
G02*
X37643750Y-21435000I243750J0D01*
G01*
G37*
%TD*%
%TO.C,C5*%
G36*
G01*
X47803750Y-23310000D02*
X48716250Y-23310000D01*
G75*
G02*
X48960000Y-23553750I0J-243750D01*
G01*
X48960000Y-24041250D01*
G75*
G02*
X48716250Y-24285000I-243750J0D01*
G01*
X47803750Y-24285000D01*
G75*
G02*
X47560000Y-24041250I0J243750D01*
G01*
X47560000Y-23553750D01*
G75*
G02*
X47803750Y-23310000I243750J0D01*
G01*
G37*
G36*
G01*
X47803750Y-21435000D02*
X48716250Y-21435000D01*
G75*
G02*
X48960000Y-21678750I0J-243750D01*
G01*
X48960000Y-22166250D01*
G75*
G02*
X48716250Y-22410000I-243750J0D01*
G01*
X47803750Y-22410000D01*
G75*
G02*
X47560000Y-22166250I0J243750D01*
G01*
X47560000Y-21678750D01*
G75*
G02*
X47803750Y-21435000I243750J0D01*
G01*
G37*
%TD*%
D11*
%TO.C,P8*%
X5080000Y-63500000D03*
X7620000Y-63500000D03*
X5080000Y-60960000D03*
X7620000Y-60960000D03*
X5080000Y-58420000D03*
X7620000Y-58420000D03*
X5080000Y-55880000D03*
X7620000Y-55880000D03*
X5080000Y-53340000D03*
X7620000Y-53340000D03*
X5080000Y-50800000D03*
X7620000Y-50800000D03*
X5080000Y-48260000D03*
X7620000Y-48260000D03*
X5080000Y-45720000D03*
X7620000Y-45720000D03*
X5080000Y-43180000D03*
X7620000Y-43180000D03*
X5080000Y-40640000D03*
X7620000Y-40640000D03*
X5080000Y-38100000D03*
X7620000Y-38100000D03*
X5080000Y-35560000D03*
X7620000Y-35560000D03*
X5080000Y-33020000D03*
X7620000Y-33020000D03*
X5080000Y-30480000D03*
X7620000Y-30480000D03*
X5080000Y-27940000D03*
X7620000Y-27940000D03*
X5080000Y-25400000D03*
X7620000Y-25400000D03*
X5080000Y-22860000D03*
X7620000Y-22860000D03*
X5080000Y-20320000D03*
X7620000Y-20320000D03*
X5080000Y-17780000D03*
X7620000Y-17780000D03*
X5080000Y-15240000D03*
X7620000Y-15240000D03*
X5080000Y-12700000D03*
X7620000Y-12700000D03*
X5080000Y-10160000D03*
X7620000Y-10160000D03*
X5080000Y-7620000D03*
D12*
X7620000Y-7620000D03*
%TD*%
%TO.C,R4*%
G36*
G01*
X42730000Y-9703750D02*
X42730000Y-10616250D01*
G75*
G02*
X42486250Y-10860000I-243750J0D01*
G01*
X41998750Y-10860000D01*
G75*
G02*
X41755000Y-10616250I0J243750D01*
G01*
X41755000Y-9703750D01*
G75*
G02*
X41998750Y-9460000I243750J0D01*
G01*
X42486250Y-9460000D01*
G75*
G02*
X42730000Y-9703750I0J-243750D01*
G01*
G37*
G36*
G01*
X44605000Y-9703750D02*
X44605000Y-10616250D01*
G75*
G02*
X44361250Y-10860000I-243750J0D01*
G01*
X43873750Y-10860000D01*
G75*
G02*
X43630000Y-10616250I0J243750D01*
G01*
X43630000Y-9703750D01*
G75*
G02*
X43873750Y-9460000I243750J0D01*
G01*
X44361250Y-9460000D01*
G75*
G02*
X44605000Y-9703750I0J-243750D01*
G01*
G37*
%TD*%
%TO.C,C2*%
G36*
G01*
X23759000Y-34811000D02*
X25009000Y-34811000D01*
G75*
G02*
X25259000Y-35061000I0J-250000D01*
G01*
X25259000Y-35811000D01*
G75*
G02*
X25009000Y-36061000I-250000J0D01*
G01*
X23759000Y-36061000D01*
G75*
G02*
X23509000Y-35811000I0J250000D01*
G01*
X23509000Y-35061000D01*
G75*
G02*
X23759000Y-34811000I250000J0D01*
G01*
G37*
G36*
G01*
X23759000Y-32011000D02*
X25009000Y-32011000D01*
G75*
G02*
X25259000Y-32261000I0J-250000D01*
G01*
X25259000Y-33011000D01*
G75*
G02*
X25009000Y-33261000I-250000J0D01*
G01*
X23759000Y-33261000D01*
G75*
G02*
X23509000Y-33011000I0J250000D01*
G01*
X23509000Y-32261000D01*
G75*
G02*
X23759000Y-32011000I250000J0D01*
G01*
G37*
%TD*%
%TO.C,U2*%
G36*
G01*
X41680000Y-24615000D02*
X41680000Y-24915000D01*
G75*
G02*
X41530000Y-25065000I-150000J0D01*
G01*
X39880000Y-25065000D01*
G75*
G02*
X39730000Y-24915000I0J150000D01*
G01*
X39730000Y-24615000D01*
G75*
G02*
X39880000Y-24465000I150000J0D01*
G01*
X41530000Y-24465000D01*
G75*
G02*
X41680000Y-24615000I0J-150000D01*
G01*
G37*
G36*
G01*
X41680000Y-23345000D02*
X41680000Y-23645000D01*
G75*
G02*
X41530000Y-23795000I-150000J0D01*
G01*
X39880000Y-23795000D01*
G75*
G02*
X39730000Y-23645000I0J150000D01*
G01*
X39730000Y-23345000D01*
G75*
G02*
X39880000Y-23195000I150000J0D01*
G01*
X41530000Y-23195000D01*
G75*
G02*
X41680000Y-23345000I0J-150000D01*
G01*
G37*
G36*
G01*
X41680000Y-22075000D02*
X41680000Y-22375000D01*
G75*
G02*
X41530000Y-22525000I-150000J0D01*
G01*
X39880000Y-22525000D01*
G75*
G02*
X39730000Y-22375000I0J150000D01*
G01*
X39730000Y-22075000D01*
G75*
G02*
X39880000Y-21925000I150000J0D01*
G01*
X41530000Y-21925000D01*
G75*
G02*
X41680000Y-22075000I0J-150000D01*
G01*
G37*
G36*
G01*
X41680000Y-20805000D02*
X41680000Y-21105000D01*
G75*
G02*
X41530000Y-21255000I-150000J0D01*
G01*
X39880000Y-21255000D01*
G75*
G02*
X39730000Y-21105000I0J150000D01*
G01*
X39730000Y-20805000D01*
G75*
G02*
X39880000Y-20655000I150000J0D01*
G01*
X41530000Y-20655000D01*
G75*
G02*
X41680000Y-20805000I0J-150000D01*
G01*
G37*
G36*
G01*
X46630000Y-20805000D02*
X46630000Y-21105000D01*
G75*
G02*
X46480000Y-21255000I-150000J0D01*
G01*
X44830000Y-21255000D01*
G75*
G02*
X44680000Y-21105000I0J150000D01*
G01*
X44680000Y-20805000D01*
G75*
G02*
X44830000Y-20655000I150000J0D01*
G01*
X46480000Y-20655000D01*
G75*
G02*
X46630000Y-20805000I0J-150000D01*
G01*
G37*
G36*
G01*
X46630000Y-22075000D02*
X46630000Y-22375000D01*
G75*
G02*
X46480000Y-22525000I-150000J0D01*
G01*
X44830000Y-22525000D01*
G75*
G02*
X44680000Y-22375000I0J150000D01*
G01*
X44680000Y-22075000D01*
G75*
G02*
X44830000Y-21925000I150000J0D01*
G01*
X46480000Y-21925000D01*
G75*
G02*
X46630000Y-22075000I0J-150000D01*
G01*
G37*
G36*
G01*
X46630000Y-23345000D02*
X46630000Y-23645000D01*
G75*
G02*
X46480000Y-23795000I-150000J0D01*
G01*
X44830000Y-23795000D01*
G75*
G02*
X44680000Y-23645000I0J150000D01*
G01*
X44680000Y-23345000D01*
G75*
G02*
X44830000Y-23195000I150000J0D01*
G01*
X46480000Y-23195000D01*
G75*
G02*
X46630000Y-23345000I0J-150000D01*
G01*
G37*
G36*
G01*
X46630000Y-24615000D02*
X46630000Y-24915000D01*
G75*
G02*
X46480000Y-25065000I-150000J0D01*
G01*
X44830000Y-25065000D01*
G75*
G02*
X44680000Y-24915000I0J150000D01*
G01*
X44680000Y-24615000D01*
G75*
G02*
X44830000Y-24465000I150000J0D01*
G01*
X46480000Y-24465000D01*
G75*
G02*
X46630000Y-24615000I0J-150000D01*
G01*
G37*
%TD*%
D13*
%TO.C,TP9*%
X34290000Y-22860000D03*
%TD*%
%TO.C,TP6*%
X34290000Y-31750000D03*
%TD*%
%TO.C,TP3*%
X43180000Y-31750000D03*
%TD*%
%TO.C,TP8*%
X43180000Y-29210000D03*
%TD*%
%TO.C,TP5*%
X34290000Y-29210000D03*
%TD*%
%TO.C,TP2*%
X34290000Y-20320000D03*
%TD*%
%TO.C,TP7*%
X45720000Y-53340000D03*
%TD*%
%TO.C,TP4*%
X45720000Y-55880000D03*
%TD*%
%TO.C,TP1*%
X34290000Y-36830000D03*
%TD*%
%TO.C,R2*%
G36*
G01*
X23934000Y-38405750D02*
X23934000Y-39318250D01*
G75*
G02*
X23690250Y-39562000I-243750J0D01*
G01*
X23202750Y-39562000D01*
G75*
G02*
X22959000Y-39318250I0J243750D01*
G01*
X22959000Y-38405750D01*
G75*
G02*
X23202750Y-38162000I243750J0D01*
G01*
X23690250Y-38162000D01*
G75*
G02*
X23934000Y-38405750I0J-243750D01*
G01*
G37*
G36*
G01*
X25809000Y-38405750D02*
X25809000Y-39318250D01*
G75*
G02*
X25565250Y-39562000I-243750J0D01*
G01*
X25077750Y-39562000D01*
G75*
G02*
X24834000Y-39318250I0J243750D01*
G01*
X24834000Y-38405750D01*
G75*
G02*
X25077750Y-38162000I243750J0D01*
G01*
X25565250Y-38162000D01*
G75*
G02*
X25809000Y-38405750I0J-243750D01*
G01*
G37*
%TD*%
%TO.C,R1*%
G36*
G01*
X27380250Y-35364000D02*
X26467750Y-35364000D01*
G75*
G02*
X26224000Y-35120250I0J243750D01*
G01*
X26224000Y-34632750D01*
G75*
G02*
X26467750Y-34389000I243750J0D01*
G01*
X27380250Y-34389000D01*
G75*
G02*
X27624000Y-34632750I0J-243750D01*
G01*
X27624000Y-35120250D01*
G75*
G02*
X27380250Y-35364000I-243750J0D01*
G01*
G37*
G36*
G01*
X27380250Y-37239000D02*
X26467750Y-37239000D01*
G75*
G02*
X26224000Y-36995250I0J243750D01*
G01*
X26224000Y-36507750D01*
G75*
G02*
X26467750Y-36264000I243750J0D01*
G01*
X27380250Y-36264000D01*
G75*
G02*
X27624000Y-36507750I0J-243750D01*
G01*
X27624000Y-36995250D01*
G75*
G02*
X27380250Y-37239000I-243750J0D01*
G01*
G37*
%TD*%
%TO.C,R3*%
G36*
G01*
X35611750Y-62934000D02*
X36524250Y-62934000D01*
G75*
G02*
X36768000Y-63177750I0J-243750D01*
G01*
X36768000Y-63665250D01*
G75*
G02*
X36524250Y-63909000I-243750J0D01*
G01*
X35611750Y-63909000D01*
G75*
G02*
X35368000Y-63665250I0J243750D01*
G01*
X35368000Y-63177750D01*
G75*
G02*
X35611750Y-62934000I243750J0D01*
G01*
G37*
G36*
G01*
X35611750Y-61059000D02*
X36524250Y-61059000D01*
G75*
G02*
X36768000Y-61302750I0J-243750D01*
G01*
X36768000Y-61790250D01*
G75*
G02*
X36524250Y-62034000I-243750J0D01*
G01*
X35611750Y-62034000D01*
G75*
G02*
X35368000Y-61790250I0J243750D01*
G01*
X35368000Y-61302750D01*
G75*
G02*
X35611750Y-61059000I243750J0D01*
G01*
G37*
%TD*%
D11*
%TO.C,P9*%
X53340000Y-63500000D03*
X55880000Y-63500000D03*
X53340000Y-60960000D03*
X55880000Y-60960000D03*
X53340000Y-58420000D03*
X55880000Y-58420000D03*
X53340000Y-55880000D03*
X55880000Y-55880000D03*
X53340000Y-53340000D03*
X55880000Y-53340000D03*
X53340000Y-50800000D03*
X55880000Y-50800000D03*
X53340000Y-48260000D03*
X55880000Y-48260000D03*
X53340000Y-45720000D03*
X55880000Y-45720000D03*
X53340000Y-43180000D03*
X55880000Y-43180000D03*
X53340000Y-40640000D03*
X55880000Y-40640000D03*
X53340000Y-38100000D03*
X55880000Y-38100000D03*
X53340000Y-35560000D03*
X55880000Y-35560000D03*
X53340000Y-33020000D03*
X55880000Y-33020000D03*
X53340000Y-30480000D03*
X55880000Y-30480000D03*
X53340000Y-27940000D03*
X55880000Y-27940000D03*
X53340000Y-25400000D03*
X55880000Y-25400000D03*
X53340000Y-22860000D03*
X55880000Y-22860000D03*
X53340000Y-20320000D03*
X55880000Y-20320000D03*
X53340000Y-17780000D03*
X55880000Y-17780000D03*
X53340000Y-15240000D03*
X55880000Y-15240000D03*
X53340000Y-12700000D03*
X55880000Y-12700000D03*
X53340000Y-10160000D03*
X55880000Y-10160000D03*
X53340000Y-7620000D03*
D12*
X55880000Y-7620000D03*
%TD*%
D14*
%TO.C,J2*%
X46910000Y-12700000D03*
X44410000Y-12700000D03*
G36*
G01*
X41060000Y-13375000D02*
X41060000Y-12025000D01*
G75*
G02*
X41310000Y-11775000I250000J0D01*
G01*
X42510000Y-11775000D01*
G75*
G02*
X42760000Y-12025000I0J-250000D01*
G01*
X42760000Y-13375000D01*
G75*
G02*
X42510000Y-13625000I-250000J0D01*
G01*
X41310000Y-13625000D01*
G75*
G02*
X41060000Y-13375000I0J250000D01*
G01*
G37*
%TD*%
%TO.C,J3*%
X15200000Y-12700000D03*
G36*
G01*
X11850000Y-13375000D02*
X11850000Y-12025000D01*
G75*
G02*
X12100000Y-11775000I250000J0D01*
G01*
X13300000Y-11775000D01*
G75*
G02*
X13550000Y-12025000I0J-250000D01*
G01*
X13550000Y-13375000D01*
G75*
G02*
X13300000Y-13625000I-250000J0D01*
G01*
X12100000Y-13625000D01*
G75*
G02*
X11850000Y-13375000I0J250000D01*
G01*
G37*
%TD*%
D15*
%TO.C,D1*%
X16256000Y-32894000D03*
X16256000Y-36194000D03*
%TD*%
M02*
