M48
; DRILL file {KiCad 5.1.5} date Sat 07 Mar 2020 18:02:44
; FORMAT={-:-/ absolute / metric / decimal}
; #@! TF.CreationDate,2020-03-07T18:02:44+00:00
; #@! TF.GenerationSoftware,Kicad,Pcbnew,5.1.5
; #@! TF.FileFunction,Plated,1,2,PTH
FMAT,2
METRIC
T1C0.300
T2C0.800
T3C0.850
T4C1.000
T5C1.200
%
G90
G05
T1
X10.16Y-26.67
X10.795Y-27.94
X10.922Y-41.656
X11.43Y-30.48
X12.065Y-21.59
X12.7Y-22.86
X13.335Y-25.4
X13.97Y-20.32
X14.605Y-24.13
X15.24Y-33.782
X15.621Y-32.004
X16.51Y-59.69
X17.018Y-32.258
X17.018Y-39.624
X17.78Y-33.02
X17.78Y-40.894
X18.542Y-34.544
X24.13Y-47.752
X24.384Y-41.656
X24.765Y-45.847
X25.4Y-47.117
X26.035Y-46.482
X26.67Y-34.544
X26.67Y-41.402
X26.67Y-48.514
X27.305Y-47.879
X27.94Y-48.895
X28.067Y-66.548
X28.067Y-72.136
X28.575Y-50.165
X28.829Y-66.548
X29.083Y-62.865
X29.21Y-73.025
X29.337Y-49.53
X29.591Y-66.548
X30.099Y-72.009
X30.353Y-66.548
X31.496Y-62.357
X32.004Y-72.009
X34.29Y-37.846
X34.29Y-38.608
X35.56Y-15.24
X35.56Y-50.8
X35.69Y-30.48
X36.449Y-51.816
X37.211Y-51.181
X37.973Y-52.832
X38.1Y-17.78
X38.1Y-34.544
X38.862Y-52.07
X40.259Y-53.467
X40.51Y-30.48
X40.64Y-15.24
X40.894Y-44.196
X41.91Y-41.91
X42.418Y-45.72
X42.418Y-48.641
X43.053Y-71.12
X43.18Y-52.832
X44.069Y-54.864
X44.196Y-42.926
X44.831Y-54.356
X44.958Y-34.29
X44.958Y-36.83
X44.958Y-38.354
X45.72Y-55.245
X45.72Y-62.484
X47.117Y-54.356
X47.244Y-61.722
X47.498Y-40.64
X47.752Y-62.357
X48.26Y-62.992
X49.53Y-34.544
X49.53Y-36.068
X49.53Y-36.83
X51.054Y-38.481
T2
X12.7Y-17.78
X22.86Y-17.78
X26.035Y-12.7
X28.535Y-12.7
T3
X12.7Y-9.525
X15.2Y-9.525
X41.95Y-9.525
X44.45Y-9.525
X46.95Y-9.525
T4
X27.94Y-25.4
X34.925Y-43.18
X15.24Y-58.42
X17.78Y-58.42
X27.94Y-22.86
X48.26Y-22.86
X53.34Y-7.62
X53.34Y-10.16
X53.34Y-12.7
X53.34Y-15.24
X53.34Y-17.78
X53.34Y-20.32
X53.34Y-22.86
X53.34Y-25.4
X53.34Y-27.94
X53.34Y-30.48
X53.34Y-33.02
X53.34Y-35.56
X53.34Y-38.1
X53.34Y-40.64
X53.34Y-43.18
X53.34Y-45.72
X53.34Y-48.26
X53.34Y-50.8
X53.34Y-53.34
X53.34Y-55.88
X53.34Y-58.42
X53.34Y-60.96
X53.34Y-63.5
X55.88Y-7.62
X55.88Y-10.16
X55.88Y-12.7
X55.88Y-15.24
X55.88Y-17.78
X55.88Y-20.32
X55.88Y-22.86
X55.88Y-25.4
X55.88Y-27.94
X55.88Y-30.48
X55.88Y-33.02
X55.88Y-35.56
X55.88Y-38.1
X55.88Y-40.64
X55.88Y-43.18
X55.88Y-45.72
X55.88Y-48.26
X55.88Y-50.8
X55.88Y-53.34
X55.88Y-55.88
X55.88Y-58.42
X55.88Y-60.96
X55.88Y-63.5
X5.08Y-7.62
X5.08Y-10.16
X5.08Y-12.7
X5.08Y-15.24
X5.08Y-17.78
X5.08Y-20.32
X5.08Y-22.86
X5.08Y-25.4
X5.08Y-27.94
X5.08Y-30.48
X5.08Y-33.02
X5.08Y-35.56
X5.08Y-38.1
X5.08Y-40.64
X5.08Y-43.18
X5.08Y-45.72
X5.08Y-48.26
X5.08Y-50.8
X5.08Y-53.34
X5.08Y-55.88
X5.08Y-58.42
X5.08Y-60.96
X5.08Y-63.5
X7.62Y-7.62
X7.62Y-10.16
X7.62Y-12.7
X7.62Y-15.24
X7.62Y-17.78
X7.62Y-20.32
X7.62Y-22.86
X7.62Y-25.4
X7.62Y-27.94
X7.62Y-30.48
X7.62Y-33.02
X7.62Y-35.56
X7.62Y-38.1
X7.62Y-40.64
X7.62Y-43.18
X7.62Y-45.72
X7.62Y-48.26
X7.62Y-50.8
X7.62Y-53.34
X7.62Y-55.88
X7.62Y-58.42
X7.62Y-60.96
X7.62Y-63.5
X34.925Y-45.72
X46.99Y-33.02
X48.26Y-25.4
X48.26Y-20.32
X48.26Y-17.78
T5
X17.78Y-23.495
X21.28Y-23.495
X13.32Y-68.58
X16.82Y-68.58
X20.32Y-68.58
T0
M30
