G04 #@! TF.GenerationSoftware,KiCad,Pcbnew,5.1.5*
G04 #@! TF.CreationDate,2020-03-07T18:02:42+00:00*
G04 #@! TF.ProjectId,BB_Dash_Display,42425f44-6173-4685-9f44-6973706c6179,A2*
G04 #@! TF.SameCoordinates,PX43d3480PY41672a0*
G04 #@! TF.FileFunction,Soldermask,Top*
G04 #@! TF.FilePolarity,Negative*
%FSLAX46Y46*%
G04 Gerber Fmt 4.6, Leading zero omitted, Abs format (unit mm)*
G04 Created by KiCad (PCBNEW 5.1.5) date 2020-03-07 18:02:42*
%MOMM*%
%LPD*%
G04 APERTURE LIST*
%ADD10R,2.500000X1.800000*%
%ADD11O,1.700000X1.700000*%
%ADD12R,1.700000X1.700000*%
%ADD13O,1.600000X1.600000*%
%ADD14C,1.600000*%
%ADD15R,1.600000X1.600000*%
%ADD16C,2.400000*%
%ADD17R,2.400000X2.400000*%
%ADD18C,0.100000*%
%ADD19R,1.524000X2.032000*%
%ADD20R,0.400000X0.900000*%
%ADD21R,1.060000X0.650000*%
%ADD22C,2.000000*%
%ADD23O,1.700000X1.850000*%
%ADD24R,1.200000X0.900000*%
%ADD25R,0.900000X1.200000*%
G04 APERTURE END LIST*
D10*
X41180000Y-50800000D03*
X45180000Y-50800000D03*
D11*
X15240000Y-58420000D03*
D12*
X17780000Y-58420000D03*
D13*
X12700000Y-17780000D03*
D14*
X22860000Y-17780000D03*
X28535000Y-12700000D03*
D15*
X26035000Y-12700000D03*
D16*
X13320000Y-68580000D03*
X16820000Y-68580000D03*
D17*
X20320000Y-68580000D03*
D18*
G36*
X23340142Y-41091174D02*
G01*
X23363803Y-41094684D01*
X23387007Y-41100496D01*
X23409529Y-41108554D01*
X23431153Y-41118782D01*
X23451670Y-41131079D01*
X23470883Y-41145329D01*
X23488607Y-41161393D01*
X23504671Y-41179117D01*
X23518921Y-41198330D01*
X23531218Y-41218847D01*
X23541446Y-41240471D01*
X23549504Y-41262993D01*
X23555316Y-41286197D01*
X23558826Y-41309858D01*
X23560000Y-41333750D01*
X23560000Y-41821250D01*
X23558826Y-41845142D01*
X23555316Y-41868803D01*
X23549504Y-41892007D01*
X23541446Y-41914529D01*
X23531218Y-41936153D01*
X23518921Y-41956670D01*
X23504671Y-41975883D01*
X23488607Y-41993607D01*
X23470883Y-42009671D01*
X23451670Y-42023921D01*
X23431153Y-42036218D01*
X23409529Y-42046446D01*
X23387007Y-42054504D01*
X23363803Y-42060316D01*
X23340142Y-42063826D01*
X23316250Y-42065000D01*
X22403750Y-42065000D01*
X22379858Y-42063826D01*
X22356197Y-42060316D01*
X22332993Y-42054504D01*
X22310471Y-42046446D01*
X22288847Y-42036218D01*
X22268330Y-42023921D01*
X22249117Y-42009671D01*
X22231393Y-41993607D01*
X22215329Y-41975883D01*
X22201079Y-41956670D01*
X22188782Y-41936153D01*
X22178554Y-41914529D01*
X22170496Y-41892007D01*
X22164684Y-41868803D01*
X22161174Y-41845142D01*
X22160000Y-41821250D01*
X22160000Y-41333750D01*
X22161174Y-41309858D01*
X22164684Y-41286197D01*
X22170496Y-41262993D01*
X22178554Y-41240471D01*
X22188782Y-41218847D01*
X22201079Y-41198330D01*
X22215329Y-41179117D01*
X22231393Y-41161393D01*
X22249117Y-41145329D01*
X22268330Y-41131079D01*
X22288847Y-41118782D01*
X22310471Y-41108554D01*
X22332993Y-41100496D01*
X22356197Y-41094684D01*
X22379858Y-41091174D01*
X22403750Y-41090000D01*
X23316250Y-41090000D01*
X23340142Y-41091174D01*
G37*
G36*
X23340142Y-39216174D02*
G01*
X23363803Y-39219684D01*
X23387007Y-39225496D01*
X23409529Y-39233554D01*
X23431153Y-39243782D01*
X23451670Y-39256079D01*
X23470883Y-39270329D01*
X23488607Y-39286393D01*
X23504671Y-39304117D01*
X23518921Y-39323330D01*
X23531218Y-39343847D01*
X23541446Y-39365471D01*
X23549504Y-39387993D01*
X23555316Y-39411197D01*
X23558826Y-39434858D01*
X23560000Y-39458750D01*
X23560000Y-39946250D01*
X23558826Y-39970142D01*
X23555316Y-39993803D01*
X23549504Y-40017007D01*
X23541446Y-40039529D01*
X23531218Y-40061153D01*
X23518921Y-40081670D01*
X23504671Y-40100883D01*
X23488607Y-40118607D01*
X23470883Y-40134671D01*
X23451670Y-40148921D01*
X23431153Y-40161218D01*
X23409529Y-40171446D01*
X23387007Y-40179504D01*
X23363803Y-40185316D01*
X23340142Y-40188826D01*
X23316250Y-40190000D01*
X22403750Y-40190000D01*
X22379858Y-40188826D01*
X22356197Y-40185316D01*
X22332993Y-40179504D01*
X22310471Y-40171446D01*
X22288847Y-40161218D01*
X22268330Y-40148921D01*
X22249117Y-40134671D01*
X22231393Y-40118607D01*
X22215329Y-40100883D01*
X22201079Y-40081670D01*
X22188782Y-40061153D01*
X22178554Y-40039529D01*
X22170496Y-40017007D01*
X22164684Y-39993803D01*
X22161174Y-39970142D01*
X22160000Y-39946250D01*
X22160000Y-39458750D01*
X22161174Y-39434858D01*
X22164684Y-39411197D01*
X22170496Y-39387993D01*
X22178554Y-39365471D01*
X22188782Y-39343847D01*
X22201079Y-39323330D01*
X22215329Y-39304117D01*
X22231393Y-39286393D01*
X22249117Y-39270329D01*
X22268330Y-39256079D01*
X22288847Y-39243782D01*
X22310471Y-39233554D01*
X22332993Y-39225496D01*
X22356197Y-39219684D01*
X22379858Y-39216174D01*
X22403750Y-39215000D01*
X23316250Y-39215000D01*
X23340142Y-39216174D01*
G37*
G36*
X13180142Y-41091174D02*
G01*
X13203803Y-41094684D01*
X13227007Y-41100496D01*
X13249529Y-41108554D01*
X13271153Y-41118782D01*
X13291670Y-41131079D01*
X13310883Y-41145329D01*
X13328607Y-41161393D01*
X13344671Y-41179117D01*
X13358921Y-41198330D01*
X13371218Y-41218847D01*
X13381446Y-41240471D01*
X13389504Y-41262993D01*
X13395316Y-41286197D01*
X13398826Y-41309858D01*
X13400000Y-41333750D01*
X13400000Y-41821250D01*
X13398826Y-41845142D01*
X13395316Y-41868803D01*
X13389504Y-41892007D01*
X13381446Y-41914529D01*
X13371218Y-41936153D01*
X13358921Y-41956670D01*
X13344671Y-41975883D01*
X13328607Y-41993607D01*
X13310883Y-42009671D01*
X13291670Y-42023921D01*
X13271153Y-42036218D01*
X13249529Y-42046446D01*
X13227007Y-42054504D01*
X13203803Y-42060316D01*
X13180142Y-42063826D01*
X13156250Y-42065000D01*
X12243750Y-42065000D01*
X12219858Y-42063826D01*
X12196197Y-42060316D01*
X12172993Y-42054504D01*
X12150471Y-42046446D01*
X12128847Y-42036218D01*
X12108330Y-42023921D01*
X12089117Y-42009671D01*
X12071393Y-41993607D01*
X12055329Y-41975883D01*
X12041079Y-41956670D01*
X12028782Y-41936153D01*
X12018554Y-41914529D01*
X12010496Y-41892007D01*
X12004684Y-41868803D01*
X12001174Y-41845142D01*
X12000000Y-41821250D01*
X12000000Y-41333750D01*
X12001174Y-41309858D01*
X12004684Y-41286197D01*
X12010496Y-41262993D01*
X12018554Y-41240471D01*
X12028782Y-41218847D01*
X12041079Y-41198330D01*
X12055329Y-41179117D01*
X12071393Y-41161393D01*
X12089117Y-41145329D01*
X12108330Y-41131079D01*
X12128847Y-41118782D01*
X12150471Y-41108554D01*
X12172993Y-41100496D01*
X12196197Y-41094684D01*
X12219858Y-41091174D01*
X12243750Y-41090000D01*
X13156250Y-41090000D01*
X13180142Y-41091174D01*
G37*
G36*
X13180142Y-39216174D02*
G01*
X13203803Y-39219684D01*
X13227007Y-39225496D01*
X13249529Y-39233554D01*
X13271153Y-39243782D01*
X13291670Y-39256079D01*
X13310883Y-39270329D01*
X13328607Y-39286393D01*
X13344671Y-39304117D01*
X13358921Y-39323330D01*
X13371218Y-39343847D01*
X13381446Y-39365471D01*
X13389504Y-39387993D01*
X13395316Y-39411197D01*
X13398826Y-39434858D01*
X13400000Y-39458750D01*
X13400000Y-39946250D01*
X13398826Y-39970142D01*
X13395316Y-39993803D01*
X13389504Y-40017007D01*
X13381446Y-40039529D01*
X13371218Y-40061153D01*
X13358921Y-40081670D01*
X13344671Y-40100883D01*
X13328607Y-40118607D01*
X13310883Y-40134671D01*
X13291670Y-40148921D01*
X13271153Y-40161218D01*
X13249529Y-40171446D01*
X13227007Y-40179504D01*
X13203803Y-40185316D01*
X13180142Y-40188826D01*
X13156250Y-40190000D01*
X12243750Y-40190000D01*
X12219858Y-40188826D01*
X12196197Y-40185316D01*
X12172993Y-40179504D01*
X12150471Y-40171446D01*
X12128847Y-40161218D01*
X12108330Y-40148921D01*
X12089117Y-40134671D01*
X12071393Y-40118607D01*
X12055329Y-40100883D01*
X12041079Y-40081670D01*
X12028782Y-40061153D01*
X12018554Y-40039529D01*
X12010496Y-40017007D01*
X12004684Y-39993803D01*
X12001174Y-39970142D01*
X12000000Y-39946250D01*
X12000000Y-39458750D01*
X12001174Y-39434858D01*
X12004684Y-39411197D01*
X12010496Y-39387993D01*
X12018554Y-39365471D01*
X12028782Y-39343847D01*
X12041079Y-39323330D01*
X12055329Y-39304117D01*
X12071393Y-39286393D01*
X12089117Y-39270329D01*
X12108330Y-39256079D01*
X12128847Y-39243782D01*
X12150471Y-39233554D01*
X12172993Y-39225496D01*
X12196197Y-39219684D01*
X12219858Y-39216174D01*
X12243750Y-39215000D01*
X13156250Y-39215000D01*
X13180142Y-39216174D01*
G37*
D11*
X5080000Y-63500000D03*
X7620000Y-63500000D03*
X5080000Y-60960000D03*
X7620000Y-60960000D03*
X5080000Y-58420000D03*
X7620000Y-58420000D03*
X5080000Y-55880000D03*
X7620000Y-55880000D03*
X5080000Y-53340000D03*
X7620000Y-53340000D03*
X5080000Y-50800000D03*
X7620000Y-50800000D03*
X5080000Y-48260000D03*
X7620000Y-48260000D03*
X5080000Y-45720000D03*
X7620000Y-45720000D03*
X5080000Y-43180000D03*
X7620000Y-43180000D03*
X5080000Y-40640000D03*
X7620000Y-40640000D03*
X5080000Y-38100000D03*
X7620000Y-38100000D03*
X5080000Y-35560000D03*
X7620000Y-35560000D03*
X5080000Y-33020000D03*
X7620000Y-33020000D03*
X5080000Y-30480000D03*
X7620000Y-30480000D03*
X5080000Y-27940000D03*
X7620000Y-27940000D03*
X5080000Y-25400000D03*
X7620000Y-25400000D03*
X5080000Y-22860000D03*
X7620000Y-22860000D03*
X5080000Y-20320000D03*
X7620000Y-20320000D03*
X5080000Y-17780000D03*
X7620000Y-17780000D03*
X5080000Y-15240000D03*
X7620000Y-15240000D03*
X5080000Y-12700000D03*
X7620000Y-12700000D03*
X5080000Y-10160000D03*
X7620000Y-10160000D03*
X5080000Y-7620000D03*
D12*
X7620000Y-7620000D03*
D19*
X43180000Y-16764000D03*
X40640000Y-16764000D03*
X35560000Y-16764000D03*
X33020000Y-16764000D03*
X43180000Y-28956000D03*
X33020000Y-28956000D03*
D18*
G36*
X40909504Y-36141204D02*
G01*
X40933773Y-36144804D01*
X40957571Y-36150765D01*
X40980671Y-36159030D01*
X41002849Y-36169520D01*
X41023893Y-36182133D01*
X41043598Y-36196747D01*
X41061777Y-36213223D01*
X41078253Y-36231402D01*
X41092867Y-36251107D01*
X41105480Y-36272151D01*
X41115970Y-36294329D01*
X41124235Y-36317429D01*
X41130196Y-36341227D01*
X41133796Y-36365496D01*
X41135000Y-36390000D01*
X41135000Y-38540000D01*
X41133796Y-38564504D01*
X41130196Y-38588773D01*
X41124235Y-38612571D01*
X41115970Y-38635671D01*
X41105480Y-38657849D01*
X41092867Y-38678893D01*
X41078253Y-38698598D01*
X41061777Y-38716777D01*
X41043598Y-38733253D01*
X41023893Y-38747867D01*
X41002849Y-38760480D01*
X40980671Y-38770970D01*
X40957571Y-38779235D01*
X40933773Y-38785196D01*
X40909504Y-38788796D01*
X40885000Y-38790000D01*
X40135000Y-38790000D01*
X40110496Y-38788796D01*
X40086227Y-38785196D01*
X40062429Y-38779235D01*
X40039329Y-38770970D01*
X40017151Y-38760480D01*
X39996107Y-38747867D01*
X39976402Y-38733253D01*
X39958223Y-38716777D01*
X39941747Y-38698598D01*
X39927133Y-38678893D01*
X39914520Y-38657849D01*
X39904030Y-38635671D01*
X39895765Y-38612571D01*
X39889804Y-38588773D01*
X39886204Y-38564504D01*
X39885000Y-38540000D01*
X39885000Y-36390000D01*
X39886204Y-36365496D01*
X39889804Y-36341227D01*
X39895765Y-36317429D01*
X39904030Y-36294329D01*
X39914520Y-36272151D01*
X39927133Y-36251107D01*
X39941747Y-36231402D01*
X39958223Y-36213223D01*
X39976402Y-36196747D01*
X39996107Y-36182133D01*
X40017151Y-36169520D01*
X40039329Y-36159030D01*
X40062429Y-36150765D01*
X40086227Y-36144804D01*
X40110496Y-36141204D01*
X40135000Y-36140000D01*
X40885000Y-36140000D01*
X40909504Y-36141204D01*
G37*
G36*
X43709504Y-36141204D02*
G01*
X43733773Y-36144804D01*
X43757571Y-36150765D01*
X43780671Y-36159030D01*
X43802849Y-36169520D01*
X43823893Y-36182133D01*
X43843598Y-36196747D01*
X43861777Y-36213223D01*
X43878253Y-36231402D01*
X43892867Y-36251107D01*
X43905480Y-36272151D01*
X43915970Y-36294329D01*
X43924235Y-36317429D01*
X43930196Y-36341227D01*
X43933796Y-36365496D01*
X43935000Y-36390000D01*
X43935000Y-38540000D01*
X43933796Y-38564504D01*
X43930196Y-38588773D01*
X43924235Y-38612571D01*
X43915970Y-38635671D01*
X43905480Y-38657849D01*
X43892867Y-38678893D01*
X43878253Y-38698598D01*
X43861777Y-38716777D01*
X43843598Y-38733253D01*
X43823893Y-38747867D01*
X43802849Y-38760480D01*
X43780671Y-38770970D01*
X43757571Y-38779235D01*
X43733773Y-38785196D01*
X43709504Y-38788796D01*
X43685000Y-38790000D01*
X42935000Y-38790000D01*
X42910496Y-38788796D01*
X42886227Y-38785196D01*
X42862429Y-38779235D01*
X42839329Y-38770970D01*
X42817151Y-38760480D01*
X42796107Y-38747867D01*
X42776402Y-38733253D01*
X42758223Y-38716777D01*
X42741747Y-38698598D01*
X42727133Y-38678893D01*
X42714520Y-38657849D01*
X42704030Y-38635671D01*
X42695765Y-38612571D01*
X42689804Y-38588773D01*
X42686204Y-38564504D01*
X42685000Y-38540000D01*
X42685000Y-36390000D01*
X42686204Y-36365496D01*
X42689804Y-36341227D01*
X42695765Y-36317429D01*
X42704030Y-36294329D01*
X42714520Y-36272151D01*
X42727133Y-36251107D01*
X42741747Y-36231402D01*
X42758223Y-36213223D01*
X42776402Y-36196747D01*
X42796107Y-36182133D01*
X42817151Y-36169520D01*
X42839329Y-36159030D01*
X42862429Y-36150765D01*
X42886227Y-36144804D01*
X42910496Y-36141204D01*
X42935000Y-36140000D01*
X43685000Y-36140000D01*
X43709504Y-36141204D01*
G37*
D20*
X28010000Y-69430000D03*
X28810000Y-69430000D03*
X29610000Y-69430000D03*
X30410000Y-69430000D03*
X28010000Y-67730000D03*
X30410000Y-67730000D03*
X28810000Y-67730000D03*
X29610000Y-67730000D03*
D18*
G36*
X17715142Y-60261174D02*
G01*
X17738803Y-60264684D01*
X17762007Y-60270496D01*
X17784529Y-60278554D01*
X17806153Y-60288782D01*
X17826670Y-60301079D01*
X17845883Y-60315329D01*
X17863607Y-60331393D01*
X17879671Y-60349117D01*
X17893921Y-60368330D01*
X17906218Y-60388847D01*
X17916446Y-60410471D01*
X17924504Y-60432993D01*
X17930316Y-60456197D01*
X17933826Y-60479858D01*
X17935000Y-60503750D01*
X17935000Y-61416250D01*
X17933826Y-61440142D01*
X17930316Y-61463803D01*
X17924504Y-61487007D01*
X17916446Y-61509529D01*
X17906218Y-61531153D01*
X17893921Y-61551670D01*
X17879671Y-61570883D01*
X17863607Y-61588607D01*
X17845883Y-61604671D01*
X17826670Y-61618921D01*
X17806153Y-61631218D01*
X17784529Y-61641446D01*
X17762007Y-61649504D01*
X17738803Y-61655316D01*
X17715142Y-61658826D01*
X17691250Y-61660000D01*
X17203750Y-61660000D01*
X17179858Y-61658826D01*
X17156197Y-61655316D01*
X17132993Y-61649504D01*
X17110471Y-61641446D01*
X17088847Y-61631218D01*
X17068330Y-61618921D01*
X17049117Y-61604671D01*
X17031393Y-61588607D01*
X17015329Y-61570883D01*
X17001079Y-61551670D01*
X16988782Y-61531153D01*
X16978554Y-61509529D01*
X16970496Y-61487007D01*
X16964684Y-61463803D01*
X16961174Y-61440142D01*
X16960000Y-61416250D01*
X16960000Y-60503750D01*
X16961174Y-60479858D01*
X16964684Y-60456197D01*
X16970496Y-60432993D01*
X16978554Y-60410471D01*
X16988782Y-60388847D01*
X17001079Y-60368330D01*
X17015329Y-60349117D01*
X17031393Y-60331393D01*
X17049117Y-60315329D01*
X17068330Y-60301079D01*
X17088847Y-60288782D01*
X17110471Y-60278554D01*
X17132993Y-60270496D01*
X17156197Y-60264684D01*
X17179858Y-60261174D01*
X17203750Y-60260000D01*
X17691250Y-60260000D01*
X17715142Y-60261174D01*
G37*
G36*
X15840142Y-60261174D02*
G01*
X15863803Y-60264684D01*
X15887007Y-60270496D01*
X15909529Y-60278554D01*
X15931153Y-60288782D01*
X15951670Y-60301079D01*
X15970883Y-60315329D01*
X15988607Y-60331393D01*
X16004671Y-60349117D01*
X16018921Y-60368330D01*
X16031218Y-60388847D01*
X16041446Y-60410471D01*
X16049504Y-60432993D01*
X16055316Y-60456197D01*
X16058826Y-60479858D01*
X16060000Y-60503750D01*
X16060000Y-61416250D01*
X16058826Y-61440142D01*
X16055316Y-61463803D01*
X16049504Y-61487007D01*
X16041446Y-61509529D01*
X16031218Y-61531153D01*
X16018921Y-61551670D01*
X16004671Y-61570883D01*
X15988607Y-61588607D01*
X15970883Y-61604671D01*
X15951670Y-61618921D01*
X15931153Y-61631218D01*
X15909529Y-61641446D01*
X15887007Y-61649504D01*
X15863803Y-61655316D01*
X15840142Y-61658826D01*
X15816250Y-61660000D01*
X15328750Y-61660000D01*
X15304858Y-61658826D01*
X15281197Y-61655316D01*
X15257993Y-61649504D01*
X15235471Y-61641446D01*
X15213847Y-61631218D01*
X15193330Y-61618921D01*
X15174117Y-61604671D01*
X15156393Y-61588607D01*
X15140329Y-61570883D01*
X15126079Y-61551670D01*
X15113782Y-61531153D01*
X15103554Y-61509529D01*
X15095496Y-61487007D01*
X15089684Y-61463803D01*
X15086174Y-61440142D01*
X15085000Y-61416250D01*
X15085000Y-60503750D01*
X15086174Y-60479858D01*
X15089684Y-60456197D01*
X15095496Y-60432993D01*
X15103554Y-60410471D01*
X15113782Y-60388847D01*
X15126079Y-60368330D01*
X15140329Y-60349117D01*
X15156393Y-60331393D01*
X15174117Y-60315329D01*
X15193330Y-60301079D01*
X15213847Y-60288782D01*
X15235471Y-60278554D01*
X15257993Y-60270496D01*
X15281197Y-60264684D01*
X15304858Y-60261174D01*
X15328750Y-60260000D01*
X15816250Y-60260000D01*
X15840142Y-60261174D01*
G37*
G36*
X41169504Y-44846204D02*
G01*
X41193773Y-44849804D01*
X41217571Y-44855765D01*
X41240671Y-44864030D01*
X41262849Y-44874520D01*
X41283893Y-44887133D01*
X41303598Y-44901747D01*
X41321777Y-44918223D01*
X41338253Y-44936402D01*
X41352867Y-44956107D01*
X41365480Y-44977151D01*
X41375970Y-44999329D01*
X41384235Y-45022429D01*
X41390196Y-45046227D01*
X41393796Y-45070496D01*
X41395000Y-45095000D01*
X41395000Y-46345000D01*
X41393796Y-46369504D01*
X41390196Y-46393773D01*
X41384235Y-46417571D01*
X41375970Y-46440671D01*
X41365480Y-46462849D01*
X41352867Y-46483893D01*
X41338253Y-46503598D01*
X41321777Y-46521777D01*
X41303598Y-46538253D01*
X41283893Y-46552867D01*
X41262849Y-46565480D01*
X41240671Y-46575970D01*
X41217571Y-46584235D01*
X41193773Y-46590196D01*
X41169504Y-46593796D01*
X41145000Y-46595000D01*
X40395000Y-46595000D01*
X40370496Y-46593796D01*
X40346227Y-46590196D01*
X40322429Y-46584235D01*
X40299329Y-46575970D01*
X40277151Y-46565480D01*
X40256107Y-46552867D01*
X40236402Y-46538253D01*
X40218223Y-46521777D01*
X40201747Y-46503598D01*
X40187133Y-46483893D01*
X40174520Y-46462849D01*
X40164030Y-46440671D01*
X40155765Y-46417571D01*
X40149804Y-46393773D01*
X40146204Y-46369504D01*
X40145000Y-46345000D01*
X40145000Y-45095000D01*
X40146204Y-45070496D01*
X40149804Y-45046227D01*
X40155765Y-45022429D01*
X40164030Y-44999329D01*
X40174520Y-44977151D01*
X40187133Y-44956107D01*
X40201747Y-44936402D01*
X40218223Y-44918223D01*
X40236402Y-44901747D01*
X40256107Y-44887133D01*
X40277151Y-44874520D01*
X40299329Y-44864030D01*
X40322429Y-44855765D01*
X40346227Y-44849804D01*
X40370496Y-44846204D01*
X40395000Y-44845000D01*
X41145000Y-44845000D01*
X41169504Y-44846204D01*
G37*
G36*
X38369504Y-44846204D02*
G01*
X38393773Y-44849804D01*
X38417571Y-44855765D01*
X38440671Y-44864030D01*
X38462849Y-44874520D01*
X38483893Y-44887133D01*
X38503598Y-44901747D01*
X38521777Y-44918223D01*
X38538253Y-44936402D01*
X38552867Y-44956107D01*
X38565480Y-44977151D01*
X38575970Y-44999329D01*
X38584235Y-45022429D01*
X38590196Y-45046227D01*
X38593796Y-45070496D01*
X38595000Y-45095000D01*
X38595000Y-46345000D01*
X38593796Y-46369504D01*
X38590196Y-46393773D01*
X38584235Y-46417571D01*
X38575970Y-46440671D01*
X38565480Y-46462849D01*
X38552867Y-46483893D01*
X38538253Y-46503598D01*
X38521777Y-46521777D01*
X38503598Y-46538253D01*
X38483893Y-46552867D01*
X38462849Y-46565480D01*
X38440671Y-46575970D01*
X38417571Y-46584235D01*
X38393773Y-46590196D01*
X38369504Y-46593796D01*
X38345000Y-46595000D01*
X37595000Y-46595000D01*
X37570496Y-46593796D01*
X37546227Y-46590196D01*
X37522429Y-46584235D01*
X37499329Y-46575970D01*
X37477151Y-46565480D01*
X37456107Y-46552867D01*
X37436402Y-46538253D01*
X37418223Y-46521777D01*
X37401747Y-46503598D01*
X37387133Y-46483893D01*
X37374520Y-46462849D01*
X37364030Y-46440671D01*
X37355765Y-46417571D01*
X37349804Y-46393773D01*
X37346204Y-46369504D01*
X37345000Y-46345000D01*
X37345000Y-45095000D01*
X37346204Y-45070496D01*
X37349804Y-45046227D01*
X37355765Y-45022429D01*
X37364030Y-44999329D01*
X37374520Y-44977151D01*
X37387133Y-44956107D01*
X37401747Y-44936402D01*
X37418223Y-44918223D01*
X37436402Y-44901747D01*
X37456107Y-44887133D01*
X37477151Y-44874520D01*
X37499329Y-44864030D01*
X37522429Y-44855765D01*
X37546227Y-44849804D01*
X37570496Y-44846204D01*
X37595000Y-44845000D01*
X38345000Y-44845000D01*
X38369504Y-44846204D01*
G37*
G36*
X46369504Y-42686204D02*
G01*
X46393773Y-42689804D01*
X46417571Y-42695765D01*
X46440671Y-42704030D01*
X46462849Y-42714520D01*
X46483893Y-42727133D01*
X46503598Y-42741747D01*
X46521777Y-42758223D01*
X46538253Y-42776402D01*
X46552867Y-42796107D01*
X46565480Y-42817151D01*
X46575970Y-42839329D01*
X46584235Y-42862429D01*
X46590196Y-42886227D01*
X46593796Y-42910496D01*
X46595000Y-42935000D01*
X46595000Y-43685000D01*
X46593796Y-43709504D01*
X46590196Y-43733773D01*
X46584235Y-43757571D01*
X46575970Y-43780671D01*
X46565480Y-43802849D01*
X46552867Y-43823893D01*
X46538253Y-43843598D01*
X46521777Y-43861777D01*
X46503598Y-43878253D01*
X46483893Y-43892867D01*
X46462849Y-43905480D01*
X46440671Y-43915970D01*
X46417571Y-43924235D01*
X46393773Y-43930196D01*
X46369504Y-43933796D01*
X46345000Y-43935000D01*
X45095000Y-43935000D01*
X45070496Y-43933796D01*
X45046227Y-43930196D01*
X45022429Y-43924235D01*
X44999329Y-43915970D01*
X44977151Y-43905480D01*
X44956107Y-43892867D01*
X44936402Y-43878253D01*
X44918223Y-43861777D01*
X44901747Y-43843598D01*
X44887133Y-43823893D01*
X44874520Y-43802849D01*
X44864030Y-43780671D01*
X44855765Y-43757571D01*
X44849804Y-43733773D01*
X44846204Y-43709504D01*
X44845000Y-43685000D01*
X44845000Y-42935000D01*
X44846204Y-42910496D01*
X44849804Y-42886227D01*
X44855765Y-42862429D01*
X44864030Y-42839329D01*
X44874520Y-42817151D01*
X44887133Y-42796107D01*
X44901747Y-42776402D01*
X44918223Y-42758223D01*
X44936402Y-42741747D01*
X44956107Y-42727133D01*
X44977151Y-42714520D01*
X44999329Y-42704030D01*
X45022429Y-42695765D01*
X45046227Y-42689804D01*
X45070496Y-42686204D01*
X45095000Y-42685000D01*
X46345000Y-42685000D01*
X46369504Y-42686204D01*
G37*
G36*
X46369504Y-39886204D02*
G01*
X46393773Y-39889804D01*
X46417571Y-39895765D01*
X46440671Y-39904030D01*
X46462849Y-39914520D01*
X46483893Y-39927133D01*
X46503598Y-39941747D01*
X46521777Y-39958223D01*
X46538253Y-39976402D01*
X46552867Y-39996107D01*
X46565480Y-40017151D01*
X46575970Y-40039329D01*
X46584235Y-40062429D01*
X46590196Y-40086227D01*
X46593796Y-40110496D01*
X46595000Y-40135000D01*
X46595000Y-40885000D01*
X46593796Y-40909504D01*
X46590196Y-40933773D01*
X46584235Y-40957571D01*
X46575970Y-40980671D01*
X46565480Y-41002849D01*
X46552867Y-41023893D01*
X46538253Y-41043598D01*
X46521777Y-41061777D01*
X46503598Y-41078253D01*
X46483893Y-41092867D01*
X46462849Y-41105480D01*
X46440671Y-41115970D01*
X46417571Y-41124235D01*
X46393773Y-41130196D01*
X46369504Y-41133796D01*
X46345000Y-41135000D01*
X45095000Y-41135000D01*
X45070496Y-41133796D01*
X45046227Y-41130196D01*
X45022429Y-41124235D01*
X44999329Y-41115970D01*
X44977151Y-41105480D01*
X44956107Y-41092867D01*
X44936402Y-41078253D01*
X44918223Y-41061777D01*
X44901747Y-41043598D01*
X44887133Y-41023893D01*
X44874520Y-41002849D01*
X44864030Y-40980671D01*
X44855765Y-40957571D01*
X44849804Y-40933773D01*
X44846204Y-40909504D01*
X44845000Y-40885000D01*
X44845000Y-40135000D01*
X44846204Y-40110496D01*
X44849804Y-40086227D01*
X44855765Y-40062429D01*
X44864030Y-40039329D01*
X44874520Y-40017151D01*
X44887133Y-39996107D01*
X44901747Y-39976402D01*
X44918223Y-39958223D01*
X44936402Y-39941747D01*
X44956107Y-39927133D01*
X44977151Y-39914520D01*
X44999329Y-39904030D01*
X45022429Y-39895765D01*
X45046227Y-39889804D01*
X45070496Y-39886204D01*
X45095000Y-39885000D01*
X46345000Y-39885000D01*
X46369504Y-39886204D01*
G37*
G36*
X46249504Y-67706204D02*
G01*
X46273773Y-67709804D01*
X46297571Y-67715765D01*
X46320671Y-67724030D01*
X46342849Y-67734520D01*
X46363893Y-67747133D01*
X46383598Y-67761747D01*
X46401777Y-67778223D01*
X46418253Y-67796402D01*
X46432867Y-67816107D01*
X46445480Y-67837151D01*
X46455970Y-67859329D01*
X46464235Y-67882429D01*
X46470196Y-67906227D01*
X46473796Y-67930496D01*
X46475000Y-67955000D01*
X46475000Y-69205000D01*
X46473796Y-69229504D01*
X46470196Y-69253773D01*
X46464235Y-69277571D01*
X46455970Y-69300671D01*
X46445480Y-69322849D01*
X46432867Y-69343893D01*
X46418253Y-69363598D01*
X46401777Y-69381777D01*
X46383598Y-69398253D01*
X46363893Y-69412867D01*
X46342849Y-69425480D01*
X46320671Y-69435970D01*
X46297571Y-69444235D01*
X46273773Y-69450196D01*
X46249504Y-69453796D01*
X46225000Y-69455000D01*
X45475000Y-69455000D01*
X45450496Y-69453796D01*
X45426227Y-69450196D01*
X45402429Y-69444235D01*
X45379329Y-69435970D01*
X45357151Y-69425480D01*
X45336107Y-69412867D01*
X45316402Y-69398253D01*
X45298223Y-69381777D01*
X45281747Y-69363598D01*
X45267133Y-69343893D01*
X45254520Y-69322849D01*
X45244030Y-69300671D01*
X45235765Y-69277571D01*
X45229804Y-69253773D01*
X45226204Y-69229504D01*
X45225000Y-69205000D01*
X45225000Y-67955000D01*
X45226204Y-67930496D01*
X45229804Y-67906227D01*
X45235765Y-67882429D01*
X45244030Y-67859329D01*
X45254520Y-67837151D01*
X45267133Y-67816107D01*
X45281747Y-67796402D01*
X45298223Y-67778223D01*
X45316402Y-67761747D01*
X45336107Y-67747133D01*
X45357151Y-67734520D01*
X45379329Y-67724030D01*
X45402429Y-67715765D01*
X45426227Y-67709804D01*
X45450496Y-67706204D01*
X45475000Y-67705000D01*
X46225000Y-67705000D01*
X46249504Y-67706204D01*
G37*
G36*
X43449504Y-67706204D02*
G01*
X43473773Y-67709804D01*
X43497571Y-67715765D01*
X43520671Y-67724030D01*
X43542849Y-67734520D01*
X43563893Y-67747133D01*
X43583598Y-67761747D01*
X43601777Y-67778223D01*
X43618253Y-67796402D01*
X43632867Y-67816107D01*
X43645480Y-67837151D01*
X43655970Y-67859329D01*
X43664235Y-67882429D01*
X43670196Y-67906227D01*
X43673796Y-67930496D01*
X43675000Y-67955000D01*
X43675000Y-69205000D01*
X43673796Y-69229504D01*
X43670196Y-69253773D01*
X43664235Y-69277571D01*
X43655970Y-69300671D01*
X43645480Y-69322849D01*
X43632867Y-69343893D01*
X43618253Y-69363598D01*
X43601777Y-69381777D01*
X43583598Y-69398253D01*
X43563893Y-69412867D01*
X43542849Y-69425480D01*
X43520671Y-69435970D01*
X43497571Y-69444235D01*
X43473773Y-69450196D01*
X43449504Y-69453796D01*
X43425000Y-69455000D01*
X42675000Y-69455000D01*
X42650496Y-69453796D01*
X42626227Y-69450196D01*
X42602429Y-69444235D01*
X42579329Y-69435970D01*
X42557151Y-69425480D01*
X42536107Y-69412867D01*
X42516402Y-69398253D01*
X42498223Y-69381777D01*
X42481747Y-69363598D01*
X42467133Y-69343893D01*
X42454520Y-69322849D01*
X42444030Y-69300671D01*
X42435765Y-69277571D01*
X42429804Y-69253773D01*
X42426204Y-69229504D01*
X42425000Y-69205000D01*
X42425000Y-67955000D01*
X42426204Y-67930496D01*
X42429804Y-67906227D01*
X42435765Y-67882429D01*
X42444030Y-67859329D01*
X42454520Y-67837151D01*
X42467133Y-67816107D01*
X42481747Y-67796402D01*
X42498223Y-67778223D01*
X42516402Y-67761747D01*
X42536107Y-67747133D01*
X42557151Y-67734520D01*
X42579329Y-67724030D01*
X42602429Y-67715765D01*
X42626227Y-67709804D01*
X42650496Y-67706204D01*
X42675000Y-67705000D01*
X43425000Y-67705000D01*
X43449504Y-67706204D01*
G37*
G36*
X40909504Y-32146204D02*
G01*
X40933773Y-32149804D01*
X40957571Y-32155765D01*
X40980671Y-32164030D01*
X41002849Y-32174520D01*
X41023893Y-32187133D01*
X41043598Y-32201747D01*
X41061777Y-32218223D01*
X41078253Y-32236402D01*
X41092867Y-32256107D01*
X41105480Y-32277151D01*
X41115970Y-32299329D01*
X41124235Y-32322429D01*
X41130196Y-32346227D01*
X41133796Y-32370496D01*
X41135000Y-32395000D01*
X41135000Y-33645000D01*
X41133796Y-33669504D01*
X41130196Y-33693773D01*
X41124235Y-33717571D01*
X41115970Y-33740671D01*
X41105480Y-33762849D01*
X41092867Y-33783893D01*
X41078253Y-33803598D01*
X41061777Y-33821777D01*
X41043598Y-33838253D01*
X41023893Y-33852867D01*
X41002849Y-33865480D01*
X40980671Y-33875970D01*
X40957571Y-33884235D01*
X40933773Y-33890196D01*
X40909504Y-33893796D01*
X40885000Y-33895000D01*
X40135000Y-33895000D01*
X40110496Y-33893796D01*
X40086227Y-33890196D01*
X40062429Y-33884235D01*
X40039329Y-33875970D01*
X40017151Y-33865480D01*
X39996107Y-33852867D01*
X39976402Y-33838253D01*
X39958223Y-33821777D01*
X39941747Y-33803598D01*
X39927133Y-33783893D01*
X39914520Y-33762849D01*
X39904030Y-33740671D01*
X39895765Y-33717571D01*
X39889804Y-33693773D01*
X39886204Y-33669504D01*
X39885000Y-33645000D01*
X39885000Y-32395000D01*
X39886204Y-32370496D01*
X39889804Y-32346227D01*
X39895765Y-32322429D01*
X39904030Y-32299329D01*
X39914520Y-32277151D01*
X39927133Y-32256107D01*
X39941747Y-32236402D01*
X39958223Y-32218223D01*
X39976402Y-32201747D01*
X39996107Y-32187133D01*
X40017151Y-32174520D01*
X40039329Y-32164030D01*
X40062429Y-32155765D01*
X40086227Y-32149804D01*
X40110496Y-32146204D01*
X40135000Y-32145000D01*
X40885000Y-32145000D01*
X40909504Y-32146204D01*
G37*
G36*
X43709504Y-32146204D02*
G01*
X43733773Y-32149804D01*
X43757571Y-32155765D01*
X43780671Y-32164030D01*
X43802849Y-32174520D01*
X43823893Y-32187133D01*
X43843598Y-32201747D01*
X43861777Y-32218223D01*
X43878253Y-32236402D01*
X43892867Y-32256107D01*
X43905480Y-32277151D01*
X43915970Y-32299329D01*
X43924235Y-32322429D01*
X43930196Y-32346227D01*
X43933796Y-32370496D01*
X43935000Y-32395000D01*
X43935000Y-33645000D01*
X43933796Y-33669504D01*
X43930196Y-33693773D01*
X43924235Y-33717571D01*
X43915970Y-33740671D01*
X43905480Y-33762849D01*
X43892867Y-33783893D01*
X43878253Y-33803598D01*
X43861777Y-33821777D01*
X43843598Y-33838253D01*
X43823893Y-33852867D01*
X43802849Y-33865480D01*
X43780671Y-33875970D01*
X43757571Y-33884235D01*
X43733773Y-33890196D01*
X43709504Y-33893796D01*
X43685000Y-33895000D01*
X42935000Y-33895000D01*
X42910496Y-33893796D01*
X42886227Y-33890196D01*
X42862429Y-33884235D01*
X42839329Y-33875970D01*
X42817151Y-33865480D01*
X42796107Y-33852867D01*
X42776402Y-33838253D01*
X42758223Y-33821777D01*
X42741747Y-33803598D01*
X42727133Y-33783893D01*
X42714520Y-33762849D01*
X42704030Y-33740671D01*
X42695765Y-33717571D01*
X42689804Y-33693773D01*
X42686204Y-33669504D01*
X42685000Y-33645000D01*
X42685000Y-32395000D01*
X42686204Y-32370496D01*
X42689804Y-32346227D01*
X42695765Y-32322429D01*
X42704030Y-32299329D01*
X42714520Y-32277151D01*
X42727133Y-32256107D01*
X42741747Y-32236402D01*
X42758223Y-32218223D01*
X42776402Y-32201747D01*
X42796107Y-32187133D01*
X42817151Y-32174520D01*
X42839329Y-32164030D01*
X42862429Y-32155765D01*
X42886227Y-32149804D01*
X42910496Y-32146204D01*
X42935000Y-32145000D01*
X43685000Y-32145000D01*
X43709504Y-32146204D01*
G37*
G36*
X36089504Y-32146204D02*
G01*
X36113773Y-32149804D01*
X36137571Y-32155765D01*
X36160671Y-32164030D01*
X36182849Y-32174520D01*
X36203893Y-32187133D01*
X36223598Y-32201747D01*
X36241777Y-32218223D01*
X36258253Y-32236402D01*
X36272867Y-32256107D01*
X36285480Y-32277151D01*
X36295970Y-32299329D01*
X36304235Y-32322429D01*
X36310196Y-32346227D01*
X36313796Y-32370496D01*
X36315000Y-32395000D01*
X36315000Y-33645000D01*
X36313796Y-33669504D01*
X36310196Y-33693773D01*
X36304235Y-33717571D01*
X36295970Y-33740671D01*
X36285480Y-33762849D01*
X36272867Y-33783893D01*
X36258253Y-33803598D01*
X36241777Y-33821777D01*
X36223598Y-33838253D01*
X36203893Y-33852867D01*
X36182849Y-33865480D01*
X36160671Y-33875970D01*
X36137571Y-33884235D01*
X36113773Y-33890196D01*
X36089504Y-33893796D01*
X36065000Y-33895000D01*
X35315000Y-33895000D01*
X35290496Y-33893796D01*
X35266227Y-33890196D01*
X35242429Y-33884235D01*
X35219329Y-33875970D01*
X35197151Y-33865480D01*
X35176107Y-33852867D01*
X35156402Y-33838253D01*
X35138223Y-33821777D01*
X35121747Y-33803598D01*
X35107133Y-33783893D01*
X35094520Y-33762849D01*
X35084030Y-33740671D01*
X35075765Y-33717571D01*
X35069804Y-33693773D01*
X35066204Y-33669504D01*
X35065000Y-33645000D01*
X35065000Y-32395000D01*
X35066204Y-32370496D01*
X35069804Y-32346227D01*
X35075765Y-32322429D01*
X35084030Y-32299329D01*
X35094520Y-32277151D01*
X35107133Y-32256107D01*
X35121747Y-32236402D01*
X35138223Y-32218223D01*
X35156402Y-32201747D01*
X35176107Y-32187133D01*
X35197151Y-32174520D01*
X35219329Y-32164030D01*
X35242429Y-32155765D01*
X35266227Y-32149804D01*
X35290496Y-32146204D01*
X35315000Y-32145000D01*
X36065000Y-32145000D01*
X36089504Y-32146204D01*
G37*
G36*
X33289504Y-32146204D02*
G01*
X33313773Y-32149804D01*
X33337571Y-32155765D01*
X33360671Y-32164030D01*
X33382849Y-32174520D01*
X33403893Y-32187133D01*
X33423598Y-32201747D01*
X33441777Y-32218223D01*
X33458253Y-32236402D01*
X33472867Y-32256107D01*
X33485480Y-32277151D01*
X33495970Y-32299329D01*
X33504235Y-32322429D01*
X33510196Y-32346227D01*
X33513796Y-32370496D01*
X33515000Y-32395000D01*
X33515000Y-33645000D01*
X33513796Y-33669504D01*
X33510196Y-33693773D01*
X33504235Y-33717571D01*
X33495970Y-33740671D01*
X33485480Y-33762849D01*
X33472867Y-33783893D01*
X33458253Y-33803598D01*
X33441777Y-33821777D01*
X33423598Y-33838253D01*
X33403893Y-33852867D01*
X33382849Y-33865480D01*
X33360671Y-33875970D01*
X33337571Y-33884235D01*
X33313773Y-33890196D01*
X33289504Y-33893796D01*
X33265000Y-33895000D01*
X32515000Y-33895000D01*
X32490496Y-33893796D01*
X32466227Y-33890196D01*
X32442429Y-33884235D01*
X32419329Y-33875970D01*
X32397151Y-33865480D01*
X32376107Y-33852867D01*
X32356402Y-33838253D01*
X32338223Y-33821777D01*
X32321747Y-33803598D01*
X32307133Y-33783893D01*
X32294520Y-33762849D01*
X32284030Y-33740671D01*
X32275765Y-33717571D01*
X32269804Y-33693773D01*
X32266204Y-33669504D01*
X32265000Y-33645000D01*
X32265000Y-32395000D01*
X32266204Y-32370496D01*
X32269804Y-32346227D01*
X32275765Y-32322429D01*
X32284030Y-32299329D01*
X32294520Y-32277151D01*
X32307133Y-32256107D01*
X32321747Y-32236402D01*
X32338223Y-32218223D01*
X32356402Y-32201747D01*
X32376107Y-32187133D01*
X32397151Y-32174520D01*
X32419329Y-32164030D01*
X32442429Y-32155765D01*
X32466227Y-32149804D01*
X32490496Y-32146204D01*
X32515000Y-32145000D01*
X33265000Y-32145000D01*
X33289504Y-32146204D01*
G37*
D21*
X43010000Y-40960000D03*
X43010000Y-42860000D03*
X40810000Y-42860000D03*
X40810000Y-41910000D03*
X40810000Y-40960000D03*
D18*
G36*
X16144703Y-42245722D02*
G01*
X16159264Y-42247882D01*
X16173543Y-42251459D01*
X16187403Y-42256418D01*
X16200710Y-42262712D01*
X16213336Y-42270280D01*
X16225159Y-42279048D01*
X16236066Y-42288934D01*
X16245952Y-42299841D01*
X16254720Y-42311664D01*
X16262288Y-42324290D01*
X16268582Y-42337597D01*
X16273541Y-42351457D01*
X16277118Y-42365736D01*
X16279278Y-42380297D01*
X16280000Y-42395000D01*
X16280000Y-42695000D01*
X16279278Y-42709703D01*
X16277118Y-42724264D01*
X16273541Y-42738543D01*
X16268582Y-42752403D01*
X16262288Y-42765710D01*
X16254720Y-42778336D01*
X16245952Y-42790159D01*
X16236066Y-42801066D01*
X16225159Y-42810952D01*
X16213336Y-42819720D01*
X16200710Y-42827288D01*
X16187403Y-42833582D01*
X16173543Y-42838541D01*
X16159264Y-42842118D01*
X16144703Y-42844278D01*
X16130000Y-42845000D01*
X14480000Y-42845000D01*
X14465297Y-42844278D01*
X14450736Y-42842118D01*
X14436457Y-42838541D01*
X14422597Y-42833582D01*
X14409290Y-42827288D01*
X14396664Y-42819720D01*
X14384841Y-42810952D01*
X14373934Y-42801066D01*
X14364048Y-42790159D01*
X14355280Y-42778336D01*
X14347712Y-42765710D01*
X14341418Y-42752403D01*
X14336459Y-42738543D01*
X14332882Y-42724264D01*
X14330722Y-42709703D01*
X14330000Y-42695000D01*
X14330000Y-42395000D01*
X14330722Y-42380297D01*
X14332882Y-42365736D01*
X14336459Y-42351457D01*
X14341418Y-42337597D01*
X14347712Y-42324290D01*
X14355280Y-42311664D01*
X14364048Y-42299841D01*
X14373934Y-42288934D01*
X14384841Y-42279048D01*
X14396664Y-42270280D01*
X14409290Y-42262712D01*
X14422597Y-42256418D01*
X14436457Y-42251459D01*
X14450736Y-42247882D01*
X14465297Y-42245722D01*
X14480000Y-42245000D01*
X16130000Y-42245000D01*
X16144703Y-42245722D01*
G37*
G36*
X16144703Y-40975722D02*
G01*
X16159264Y-40977882D01*
X16173543Y-40981459D01*
X16187403Y-40986418D01*
X16200710Y-40992712D01*
X16213336Y-41000280D01*
X16225159Y-41009048D01*
X16236066Y-41018934D01*
X16245952Y-41029841D01*
X16254720Y-41041664D01*
X16262288Y-41054290D01*
X16268582Y-41067597D01*
X16273541Y-41081457D01*
X16277118Y-41095736D01*
X16279278Y-41110297D01*
X16280000Y-41125000D01*
X16280000Y-41425000D01*
X16279278Y-41439703D01*
X16277118Y-41454264D01*
X16273541Y-41468543D01*
X16268582Y-41482403D01*
X16262288Y-41495710D01*
X16254720Y-41508336D01*
X16245952Y-41520159D01*
X16236066Y-41531066D01*
X16225159Y-41540952D01*
X16213336Y-41549720D01*
X16200710Y-41557288D01*
X16187403Y-41563582D01*
X16173543Y-41568541D01*
X16159264Y-41572118D01*
X16144703Y-41574278D01*
X16130000Y-41575000D01*
X14480000Y-41575000D01*
X14465297Y-41574278D01*
X14450736Y-41572118D01*
X14436457Y-41568541D01*
X14422597Y-41563582D01*
X14409290Y-41557288D01*
X14396664Y-41549720D01*
X14384841Y-41540952D01*
X14373934Y-41531066D01*
X14364048Y-41520159D01*
X14355280Y-41508336D01*
X14347712Y-41495710D01*
X14341418Y-41482403D01*
X14336459Y-41468543D01*
X14332882Y-41454264D01*
X14330722Y-41439703D01*
X14330000Y-41425000D01*
X14330000Y-41125000D01*
X14330722Y-41110297D01*
X14332882Y-41095736D01*
X14336459Y-41081457D01*
X14341418Y-41067597D01*
X14347712Y-41054290D01*
X14355280Y-41041664D01*
X14364048Y-41029841D01*
X14373934Y-41018934D01*
X14384841Y-41009048D01*
X14396664Y-41000280D01*
X14409290Y-40992712D01*
X14422597Y-40986418D01*
X14436457Y-40981459D01*
X14450736Y-40977882D01*
X14465297Y-40975722D01*
X14480000Y-40975000D01*
X16130000Y-40975000D01*
X16144703Y-40975722D01*
G37*
G36*
X16144703Y-39705722D02*
G01*
X16159264Y-39707882D01*
X16173543Y-39711459D01*
X16187403Y-39716418D01*
X16200710Y-39722712D01*
X16213336Y-39730280D01*
X16225159Y-39739048D01*
X16236066Y-39748934D01*
X16245952Y-39759841D01*
X16254720Y-39771664D01*
X16262288Y-39784290D01*
X16268582Y-39797597D01*
X16273541Y-39811457D01*
X16277118Y-39825736D01*
X16279278Y-39840297D01*
X16280000Y-39855000D01*
X16280000Y-40155000D01*
X16279278Y-40169703D01*
X16277118Y-40184264D01*
X16273541Y-40198543D01*
X16268582Y-40212403D01*
X16262288Y-40225710D01*
X16254720Y-40238336D01*
X16245952Y-40250159D01*
X16236066Y-40261066D01*
X16225159Y-40270952D01*
X16213336Y-40279720D01*
X16200710Y-40287288D01*
X16187403Y-40293582D01*
X16173543Y-40298541D01*
X16159264Y-40302118D01*
X16144703Y-40304278D01*
X16130000Y-40305000D01*
X14480000Y-40305000D01*
X14465297Y-40304278D01*
X14450736Y-40302118D01*
X14436457Y-40298541D01*
X14422597Y-40293582D01*
X14409290Y-40287288D01*
X14396664Y-40279720D01*
X14384841Y-40270952D01*
X14373934Y-40261066D01*
X14364048Y-40250159D01*
X14355280Y-40238336D01*
X14347712Y-40225710D01*
X14341418Y-40212403D01*
X14336459Y-40198543D01*
X14332882Y-40184264D01*
X14330722Y-40169703D01*
X14330000Y-40155000D01*
X14330000Y-39855000D01*
X14330722Y-39840297D01*
X14332882Y-39825736D01*
X14336459Y-39811457D01*
X14341418Y-39797597D01*
X14347712Y-39784290D01*
X14355280Y-39771664D01*
X14364048Y-39759841D01*
X14373934Y-39748934D01*
X14384841Y-39739048D01*
X14396664Y-39730280D01*
X14409290Y-39722712D01*
X14422597Y-39716418D01*
X14436457Y-39711459D01*
X14450736Y-39707882D01*
X14465297Y-39705722D01*
X14480000Y-39705000D01*
X16130000Y-39705000D01*
X16144703Y-39705722D01*
G37*
G36*
X16144703Y-38435722D02*
G01*
X16159264Y-38437882D01*
X16173543Y-38441459D01*
X16187403Y-38446418D01*
X16200710Y-38452712D01*
X16213336Y-38460280D01*
X16225159Y-38469048D01*
X16236066Y-38478934D01*
X16245952Y-38489841D01*
X16254720Y-38501664D01*
X16262288Y-38514290D01*
X16268582Y-38527597D01*
X16273541Y-38541457D01*
X16277118Y-38555736D01*
X16279278Y-38570297D01*
X16280000Y-38585000D01*
X16280000Y-38885000D01*
X16279278Y-38899703D01*
X16277118Y-38914264D01*
X16273541Y-38928543D01*
X16268582Y-38942403D01*
X16262288Y-38955710D01*
X16254720Y-38968336D01*
X16245952Y-38980159D01*
X16236066Y-38991066D01*
X16225159Y-39000952D01*
X16213336Y-39009720D01*
X16200710Y-39017288D01*
X16187403Y-39023582D01*
X16173543Y-39028541D01*
X16159264Y-39032118D01*
X16144703Y-39034278D01*
X16130000Y-39035000D01*
X14480000Y-39035000D01*
X14465297Y-39034278D01*
X14450736Y-39032118D01*
X14436457Y-39028541D01*
X14422597Y-39023582D01*
X14409290Y-39017288D01*
X14396664Y-39009720D01*
X14384841Y-39000952D01*
X14373934Y-38991066D01*
X14364048Y-38980159D01*
X14355280Y-38968336D01*
X14347712Y-38955710D01*
X14341418Y-38942403D01*
X14336459Y-38928543D01*
X14332882Y-38914264D01*
X14330722Y-38899703D01*
X14330000Y-38885000D01*
X14330000Y-38585000D01*
X14330722Y-38570297D01*
X14332882Y-38555736D01*
X14336459Y-38541457D01*
X14341418Y-38527597D01*
X14347712Y-38514290D01*
X14355280Y-38501664D01*
X14364048Y-38489841D01*
X14373934Y-38478934D01*
X14384841Y-38469048D01*
X14396664Y-38460280D01*
X14409290Y-38452712D01*
X14422597Y-38446418D01*
X14436457Y-38441459D01*
X14450736Y-38437882D01*
X14465297Y-38435722D01*
X14480000Y-38435000D01*
X16130000Y-38435000D01*
X16144703Y-38435722D01*
G37*
G36*
X21094703Y-38435722D02*
G01*
X21109264Y-38437882D01*
X21123543Y-38441459D01*
X21137403Y-38446418D01*
X21150710Y-38452712D01*
X21163336Y-38460280D01*
X21175159Y-38469048D01*
X21186066Y-38478934D01*
X21195952Y-38489841D01*
X21204720Y-38501664D01*
X21212288Y-38514290D01*
X21218582Y-38527597D01*
X21223541Y-38541457D01*
X21227118Y-38555736D01*
X21229278Y-38570297D01*
X21230000Y-38585000D01*
X21230000Y-38885000D01*
X21229278Y-38899703D01*
X21227118Y-38914264D01*
X21223541Y-38928543D01*
X21218582Y-38942403D01*
X21212288Y-38955710D01*
X21204720Y-38968336D01*
X21195952Y-38980159D01*
X21186066Y-38991066D01*
X21175159Y-39000952D01*
X21163336Y-39009720D01*
X21150710Y-39017288D01*
X21137403Y-39023582D01*
X21123543Y-39028541D01*
X21109264Y-39032118D01*
X21094703Y-39034278D01*
X21080000Y-39035000D01*
X19430000Y-39035000D01*
X19415297Y-39034278D01*
X19400736Y-39032118D01*
X19386457Y-39028541D01*
X19372597Y-39023582D01*
X19359290Y-39017288D01*
X19346664Y-39009720D01*
X19334841Y-39000952D01*
X19323934Y-38991066D01*
X19314048Y-38980159D01*
X19305280Y-38968336D01*
X19297712Y-38955710D01*
X19291418Y-38942403D01*
X19286459Y-38928543D01*
X19282882Y-38914264D01*
X19280722Y-38899703D01*
X19280000Y-38885000D01*
X19280000Y-38585000D01*
X19280722Y-38570297D01*
X19282882Y-38555736D01*
X19286459Y-38541457D01*
X19291418Y-38527597D01*
X19297712Y-38514290D01*
X19305280Y-38501664D01*
X19314048Y-38489841D01*
X19323934Y-38478934D01*
X19334841Y-38469048D01*
X19346664Y-38460280D01*
X19359290Y-38452712D01*
X19372597Y-38446418D01*
X19386457Y-38441459D01*
X19400736Y-38437882D01*
X19415297Y-38435722D01*
X19430000Y-38435000D01*
X21080000Y-38435000D01*
X21094703Y-38435722D01*
G37*
G36*
X21094703Y-39705722D02*
G01*
X21109264Y-39707882D01*
X21123543Y-39711459D01*
X21137403Y-39716418D01*
X21150710Y-39722712D01*
X21163336Y-39730280D01*
X21175159Y-39739048D01*
X21186066Y-39748934D01*
X21195952Y-39759841D01*
X21204720Y-39771664D01*
X21212288Y-39784290D01*
X21218582Y-39797597D01*
X21223541Y-39811457D01*
X21227118Y-39825736D01*
X21229278Y-39840297D01*
X21230000Y-39855000D01*
X21230000Y-40155000D01*
X21229278Y-40169703D01*
X21227118Y-40184264D01*
X21223541Y-40198543D01*
X21218582Y-40212403D01*
X21212288Y-40225710D01*
X21204720Y-40238336D01*
X21195952Y-40250159D01*
X21186066Y-40261066D01*
X21175159Y-40270952D01*
X21163336Y-40279720D01*
X21150710Y-40287288D01*
X21137403Y-40293582D01*
X21123543Y-40298541D01*
X21109264Y-40302118D01*
X21094703Y-40304278D01*
X21080000Y-40305000D01*
X19430000Y-40305000D01*
X19415297Y-40304278D01*
X19400736Y-40302118D01*
X19386457Y-40298541D01*
X19372597Y-40293582D01*
X19359290Y-40287288D01*
X19346664Y-40279720D01*
X19334841Y-40270952D01*
X19323934Y-40261066D01*
X19314048Y-40250159D01*
X19305280Y-40238336D01*
X19297712Y-40225710D01*
X19291418Y-40212403D01*
X19286459Y-40198543D01*
X19282882Y-40184264D01*
X19280722Y-40169703D01*
X19280000Y-40155000D01*
X19280000Y-39855000D01*
X19280722Y-39840297D01*
X19282882Y-39825736D01*
X19286459Y-39811457D01*
X19291418Y-39797597D01*
X19297712Y-39784290D01*
X19305280Y-39771664D01*
X19314048Y-39759841D01*
X19323934Y-39748934D01*
X19334841Y-39739048D01*
X19346664Y-39730280D01*
X19359290Y-39722712D01*
X19372597Y-39716418D01*
X19386457Y-39711459D01*
X19400736Y-39707882D01*
X19415297Y-39705722D01*
X19430000Y-39705000D01*
X21080000Y-39705000D01*
X21094703Y-39705722D01*
G37*
G36*
X21094703Y-40975722D02*
G01*
X21109264Y-40977882D01*
X21123543Y-40981459D01*
X21137403Y-40986418D01*
X21150710Y-40992712D01*
X21163336Y-41000280D01*
X21175159Y-41009048D01*
X21186066Y-41018934D01*
X21195952Y-41029841D01*
X21204720Y-41041664D01*
X21212288Y-41054290D01*
X21218582Y-41067597D01*
X21223541Y-41081457D01*
X21227118Y-41095736D01*
X21229278Y-41110297D01*
X21230000Y-41125000D01*
X21230000Y-41425000D01*
X21229278Y-41439703D01*
X21227118Y-41454264D01*
X21223541Y-41468543D01*
X21218582Y-41482403D01*
X21212288Y-41495710D01*
X21204720Y-41508336D01*
X21195952Y-41520159D01*
X21186066Y-41531066D01*
X21175159Y-41540952D01*
X21163336Y-41549720D01*
X21150710Y-41557288D01*
X21137403Y-41563582D01*
X21123543Y-41568541D01*
X21109264Y-41572118D01*
X21094703Y-41574278D01*
X21080000Y-41575000D01*
X19430000Y-41575000D01*
X19415297Y-41574278D01*
X19400736Y-41572118D01*
X19386457Y-41568541D01*
X19372597Y-41563582D01*
X19359290Y-41557288D01*
X19346664Y-41549720D01*
X19334841Y-41540952D01*
X19323934Y-41531066D01*
X19314048Y-41520159D01*
X19305280Y-41508336D01*
X19297712Y-41495710D01*
X19291418Y-41482403D01*
X19286459Y-41468543D01*
X19282882Y-41454264D01*
X19280722Y-41439703D01*
X19280000Y-41425000D01*
X19280000Y-41125000D01*
X19280722Y-41110297D01*
X19282882Y-41095736D01*
X19286459Y-41081457D01*
X19291418Y-41067597D01*
X19297712Y-41054290D01*
X19305280Y-41041664D01*
X19314048Y-41029841D01*
X19323934Y-41018934D01*
X19334841Y-41009048D01*
X19346664Y-41000280D01*
X19359290Y-40992712D01*
X19372597Y-40986418D01*
X19386457Y-40981459D01*
X19400736Y-40977882D01*
X19415297Y-40975722D01*
X19430000Y-40975000D01*
X21080000Y-40975000D01*
X21094703Y-40975722D01*
G37*
G36*
X21094703Y-42245722D02*
G01*
X21109264Y-42247882D01*
X21123543Y-42251459D01*
X21137403Y-42256418D01*
X21150710Y-42262712D01*
X21163336Y-42270280D01*
X21175159Y-42279048D01*
X21186066Y-42288934D01*
X21195952Y-42299841D01*
X21204720Y-42311664D01*
X21212288Y-42324290D01*
X21218582Y-42337597D01*
X21223541Y-42351457D01*
X21227118Y-42365736D01*
X21229278Y-42380297D01*
X21230000Y-42395000D01*
X21230000Y-42695000D01*
X21229278Y-42709703D01*
X21227118Y-42724264D01*
X21223541Y-42738543D01*
X21218582Y-42752403D01*
X21212288Y-42765710D01*
X21204720Y-42778336D01*
X21195952Y-42790159D01*
X21186066Y-42801066D01*
X21175159Y-42810952D01*
X21163336Y-42819720D01*
X21150710Y-42827288D01*
X21137403Y-42833582D01*
X21123543Y-42838541D01*
X21109264Y-42842118D01*
X21094703Y-42844278D01*
X21080000Y-42845000D01*
X19430000Y-42845000D01*
X19415297Y-42844278D01*
X19400736Y-42842118D01*
X19386457Y-42838541D01*
X19372597Y-42833582D01*
X19359290Y-42827288D01*
X19346664Y-42819720D01*
X19334841Y-42810952D01*
X19323934Y-42801066D01*
X19314048Y-42790159D01*
X19305280Y-42778336D01*
X19297712Y-42765710D01*
X19291418Y-42752403D01*
X19286459Y-42738543D01*
X19282882Y-42724264D01*
X19280722Y-42709703D01*
X19280000Y-42695000D01*
X19280000Y-42395000D01*
X19280722Y-42380297D01*
X19282882Y-42365736D01*
X19286459Y-42351457D01*
X19291418Y-42337597D01*
X19297712Y-42324290D01*
X19305280Y-42311664D01*
X19314048Y-42299841D01*
X19323934Y-42288934D01*
X19334841Y-42279048D01*
X19346664Y-42270280D01*
X19359290Y-42262712D01*
X19372597Y-42256418D01*
X19386457Y-42251459D01*
X19400736Y-42247882D01*
X19415297Y-42245722D01*
X19430000Y-42245000D01*
X21080000Y-42245000D01*
X21094703Y-42245722D01*
G37*
D22*
X27940000Y-22860000D03*
X48260000Y-25400000D03*
X48260000Y-20320000D03*
X48260000Y-17780000D03*
X48260000Y-22860000D03*
X27940000Y-25400000D03*
X34925000Y-43180000D03*
X34925000Y-45720000D03*
X46990000Y-33020000D03*
D18*
G36*
X45655142Y-45021174D02*
G01*
X45678803Y-45024684D01*
X45702007Y-45030496D01*
X45724529Y-45038554D01*
X45746153Y-45048782D01*
X45766670Y-45061079D01*
X45785883Y-45075329D01*
X45803607Y-45091393D01*
X45819671Y-45109117D01*
X45833921Y-45128330D01*
X45846218Y-45148847D01*
X45856446Y-45170471D01*
X45864504Y-45192993D01*
X45870316Y-45216197D01*
X45873826Y-45239858D01*
X45875000Y-45263750D01*
X45875000Y-46176250D01*
X45873826Y-46200142D01*
X45870316Y-46223803D01*
X45864504Y-46247007D01*
X45856446Y-46269529D01*
X45846218Y-46291153D01*
X45833921Y-46311670D01*
X45819671Y-46330883D01*
X45803607Y-46348607D01*
X45785883Y-46364671D01*
X45766670Y-46378921D01*
X45746153Y-46391218D01*
X45724529Y-46401446D01*
X45702007Y-46409504D01*
X45678803Y-46415316D01*
X45655142Y-46418826D01*
X45631250Y-46420000D01*
X45143750Y-46420000D01*
X45119858Y-46418826D01*
X45096197Y-46415316D01*
X45072993Y-46409504D01*
X45050471Y-46401446D01*
X45028847Y-46391218D01*
X45008330Y-46378921D01*
X44989117Y-46364671D01*
X44971393Y-46348607D01*
X44955329Y-46330883D01*
X44941079Y-46311670D01*
X44928782Y-46291153D01*
X44918554Y-46269529D01*
X44910496Y-46247007D01*
X44904684Y-46223803D01*
X44901174Y-46200142D01*
X44900000Y-46176250D01*
X44900000Y-45263750D01*
X44901174Y-45239858D01*
X44904684Y-45216197D01*
X44910496Y-45192993D01*
X44918554Y-45170471D01*
X44928782Y-45148847D01*
X44941079Y-45128330D01*
X44955329Y-45109117D01*
X44971393Y-45091393D01*
X44989117Y-45075329D01*
X45008330Y-45061079D01*
X45028847Y-45048782D01*
X45050471Y-45038554D01*
X45072993Y-45030496D01*
X45096197Y-45024684D01*
X45119858Y-45021174D01*
X45143750Y-45020000D01*
X45631250Y-45020000D01*
X45655142Y-45021174D01*
G37*
G36*
X43780142Y-45021174D02*
G01*
X43803803Y-45024684D01*
X43827007Y-45030496D01*
X43849529Y-45038554D01*
X43871153Y-45048782D01*
X43891670Y-45061079D01*
X43910883Y-45075329D01*
X43928607Y-45091393D01*
X43944671Y-45109117D01*
X43958921Y-45128330D01*
X43971218Y-45148847D01*
X43981446Y-45170471D01*
X43989504Y-45192993D01*
X43995316Y-45216197D01*
X43998826Y-45239858D01*
X44000000Y-45263750D01*
X44000000Y-46176250D01*
X43998826Y-46200142D01*
X43995316Y-46223803D01*
X43989504Y-46247007D01*
X43981446Y-46269529D01*
X43971218Y-46291153D01*
X43958921Y-46311670D01*
X43944671Y-46330883D01*
X43928607Y-46348607D01*
X43910883Y-46364671D01*
X43891670Y-46378921D01*
X43871153Y-46391218D01*
X43849529Y-46401446D01*
X43827007Y-46409504D01*
X43803803Y-46415316D01*
X43780142Y-46418826D01*
X43756250Y-46420000D01*
X43268750Y-46420000D01*
X43244858Y-46418826D01*
X43221197Y-46415316D01*
X43197993Y-46409504D01*
X43175471Y-46401446D01*
X43153847Y-46391218D01*
X43133330Y-46378921D01*
X43114117Y-46364671D01*
X43096393Y-46348607D01*
X43080329Y-46330883D01*
X43066079Y-46311670D01*
X43053782Y-46291153D01*
X43043554Y-46269529D01*
X43035496Y-46247007D01*
X43029684Y-46223803D01*
X43026174Y-46200142D01*
X43025000Y-46176250D01*
X43025000Y-45263750D01*
X43026174Y-45239858D01*
X43029684Y-45216197D01*
X43035496Y-45192993D01*
X43043554Y-45170471D01*
X43053782Y-45148847D01*
X43066079Y-45128330D01*
X43080329Y-45109117D01*
X43096393Y-45091393D01*
X43114117Y-45075329D01*
X43133330Y-45061079D01*
X43153847Y-45048782D01*
X43175471Y-45038554D01*
X43197993Y-45030496D01*
X43221197Y-45024684D01*
X43244858Y-45021174D01*
X43268750Y-45020000D01*
X43756250Y-45020000D01*
X43780142Y-45021174D01*
G37*
G36*
X48105142Y-36041174D02*
G01*
X48128803Y-36044684D01*
X48152007Y-36050496D01*
X48174529Y-36058554D01*
X48196153Y-36068782D01*
X48216670Y-36081079D01*
X48235883Y-36095329D01*
X48253607Y-36111393D01*
X48269671Y-36129117D01*
X48283921Y-36148330D01*
X48296218Y-36168847D01*
X48306446Y-36190471D01*
X48314504Y-36212993D01*
X48320316Y-36236197D01*
X48323826Y-36259858D01*
X48325000Y-36283750D01*
X48325000Y-36771250D01*
X48323826Y-36795142D01*
X48320316Y-36818803D01*
X48314504Y-36842007D01*
X48306446Y-36864529D01*
X48296218Y-36886153D01*
X48283921Y-36906670D01*
X48269671Y-36925883D01*
X48253607Y-36943607D01*
X48235883Y-36959671D01*
X48216670Y-36973921D01*
X48196153Y-36986218D01*
X48174529Y-36996446D01*
X48152007Y-37004504D01*
X48128803Y-37010316D01*
X48105142Y-37013826D01*
X48081250Y-37015000D01*
X47168750Y-37015000D01*
X47144858Y-37013826D01*
X47121197Y-37010316D01*
X47097993Y-37004504D01*
X47075471Y-36996446D01*
X47053847Y-36986218D01*
X47033330Y-36973921D01*
X47014117Y-36959671D01*
X46996393Y-36943607D01*
X46980329Y-36925883D01*
X46966079Y-36906670D01*
X46953782Y-36886153D01*
X46943554Y-36864529D01*
X46935496Y-36842007D01*
X46929684Y-36818803D01*
X46926174Y-36795142D01*
X46925000Y-36771250D01*
X46925000Y-36283750D01*
X46926174Y-36259858D01*
X46929684Y-36236197D01*
X46935496Y-36212993D01*
X46943554Y-36190471D01*
X46953782Y-36168847D01*
X46966079Y-36148330D01*
X46980329Y-36129117D01*
X46996393Y-36111393D01*
X47014117Y-36095329D01*
X47033330Y-36081079D01*
X47053847Y-36068782D01*
X47075471Y-36058554D01*
X47097993Y-36050496D01*
X47121197Y-36044684D01*
X47144858Y-36041174D01*
X47168750Y-36040000D01*
X48081250Y-36040000D01*
X48105142Y-36041174D01*
G37*
G36*
X48105142Y-37916174D02*
G01*
X48128803Y-37919684D01*
X48152007Y-37925496D01*
X48174529Y-37933554D01*
X48196153Y-37943782D01*
X48216670Y-37956079D01*
X48235883Y-37970329D01*
X48253607Y-37986393D01*
X48269671Y-38004117D01*
X48283921Y-38023330D01*
X48296218Y-38043847D01*
X48306446Y-38065471D01*
X48314504Y-38087993D01*
X48320316Y-38111197D01*
X48323826Y-38134858D01*
X48325000Y-38158750D01*
X48325000Y-38646250D01*
X48323826Y-38670142D01*
X48320316Y-38693803D01*
X48314504Y-38717007D01*
X48306446Y-38739529D01*
X48296218Y-38761153D01*
X48283921Y-38781670D01*
X48269671Y-38800883D01*
X48253607Y-38818607D01*
X48235883Y-38834671D01*
X48216670Y-38848921D01*
X48196153Y-38861218D01*
X48174529Y-38871446D01*
X48152007Y-38879504D01*
X48128803Y-38885316D01*
X48105142Y-38888826D01*
X48081250Y-38890000D01*
X47168750Y-38890000D01*
X47144858Y-38888826D01*
X47121197Y-38885316D01*
X47097993Y-38879504D01*
X47075471Y-38871446D01*
X47053847Y-38861218D01*
X47033330Y-38848921D01*
X47014117Y-38834671D01*
X46996393Y-38818607D01*
X46980329Y-38800883D01*
X46966079Y-38781670D01*
X46953782Y-38761153D01*
X46943554Y-38739529D01*
X46935496Y-38717007D01*
X46929684Y-38693803D01*
X46926174Y-38670142D01*
X46925000Y-38646250D01*
X46925000Y-38158750D01*
X46926174Y-38134858D01*
X46929684Y-38111197D01*
X46935496Y-38087993D01*
X46943554Y-38065471D01*
X46953782Y-38043847D01*
X46966079Y-38023330D01*
X46980329Y-38004117D01*
X46996393Y-37986393D01*
X47014117Y-37970329D01*
X47033330Y-37956079D01*
X47053847Y-37943782D01*
X47075471Y-37933554D01*
X47097993Y-37925496D01*
X47121197Y-37919684D01*
X47144858Y-37916174D01*
X47168750Y-37915000D01*
X48081250Y-37915000D01*
X48105142Y-37916174D01*
G37*
G36*
X39305142Y-67881174D02*
G01*
X39328803Y-67884684D01*
X39352007Y-67890496D01*
X39374529Y-67898554D01*
X39396153Y-67908782D01*
X39416670Y-67921079D01*
X39435883Y-67935329D01*
X39453607Y-67951393D01*
X39469671Y-67969117D01*
X39483921Y-67988330D01*
X39496218Y-68008847D01*
X39506446Y-68030471D01*
X39514504Y-68052993D01*
X39520316Y-68076197D01*
X39523826Y-68099858D01*
X39525000Y-68123750D01*
X39525000Y-69036250D01*
X39523826Y-69060142D01*
X39520316Y-69083803D01*
X39514504Y-69107007D01*
X39506446Y-69129529D01*
X39496218Y-69151153D01*
X39483921Y-69171670D01*
X39469671Y-69190883D01*
X39453607Y-69208607D01*
X39435883Y-69224671D01*
X39416670Y-69238921D01*
X39396153Y-69251218D01*
X39374529Y-69261446D01*
X39352007Y-69269504D01*
X39328803Y-69275316D01*
X39305142Y-69278826D01*
X39281250Y-69280000D01*
X38793750Y-69280000D01*
X38769858Y-69278826D01*
X38746197Y-69275316D01*
X38722993Y-69269504D01*
X38700471Y-69261446D01*
X38678847Y-69251218D01*
X38658330Y-69238921D01*
X38639117Y-69224671D01*
X38621393Y-69208607D01*
X38605329Y-69190883D01*
X38591079Y-69171670D01*
X38578782Y-69151153D01*
X38568554Y-69129529D01*
X38560496Y-69107007D01*
X38554684Y-69083803D01*
X38551174Y-69060142D01*
X38550000Y-69036250D01*
X38550000Y-68123750D01*
X38551174Y-68099858D01*
X38554684Y-68076197D01*
X38560496Y-68052993D01*
X38568554Y-68030471D01*
X38578782Y-68008847D01*
X38591079Y-67988330D01*
X38605329Y-67969117D01*
X38621393Y-67951393D01*
X38639117Y-67935329D01*
X38658330Y-67921079D01*
X38678847Y-67908782D01*
X38700471Y-67898554D01*
X38722993Y-67890496D01*
X38746197Y-67884684D01*
X38769858Y-67881174D01*
X38793750Y-67880000D01*
X39281250Y-67880000D01*
X39305142Y-67881174D01*
G37*
G36*
X37430142Y-67881174D02*
G01*
X37453803Y-67884684D01*
X37477007Y-67890496D01*
X37499529Y-67898554D01*
X37521153Y-67908782D01*
X37541670Y-67921079D01*
X37560883Y-67935329D01*
X37578607Y-67951393D01*
X37594671Y-67969117D01*
X37608921Y-67988330D01*
X37621218Y-68008847D01*
X37631446Y-68030471D01*
X37639504Y-68052993D01*
X37645316Y-68076197D01*
X37648826Y-68099858D01*
X37650000Y-68123750D01*
X37650000Y-69036250D01*
X37648826Y-69060142D01*
X37645316Y-69083803D01*
X37639504Y-69107007D01*
X37631446Y-69129529D01*
X37621218Y-69151153D01*
X37608921Y-69171670D01*
X37594671Y-69190883D01*
X37578607Y-69208607D01*
X37560883Y-69224671D01*
X37541670Y-69238921D01*
X37521153Y-69251218D01*
X37499529Y-69261446D01*
X37477007Y-69269504D01*
X37453803Y-69275316D01*
X37430142Y-69278826D01*
X37406250Y-69280000D01*
X36918750Y-69280000D01*
X36894858Y-69278826D01*
X36871197Y-69275316D01*
X36847993Y-69269504D01*
X36825471Y-69261446D01*
X36803847Y-69251218D01*
X36783330Y-69238921D01*
X36764117Y-69224671D01*
X36746393Y-69208607D01*
X36730329Y-69190883D01*
X36716079Y-69171670D01*
X36703782Y-69151153D01*
X36693554Y-69129529D01*
X36685496Y-69107007D01*
X36679684Y-69083803D01*
X36676174Y-69060142D01*
X36675000Y-69036250D01*
X36675000Y-68123750D01*
X36676174Y-68099858D01*
X36679684Y-68076197D01*
X36685496Y-68052993D01*
X36693554Y-68030471D01*
X36703782Y-68008847D01*
X36716079Y-67988330D01*
X36730329Y-67969117D01*
X36746393Y-67951393D01*
X36764117Y-67935329D01*
X36783330Y-67921079D01*
X36803847Y-67908782D01*
X36825471Y-67898554D01*
X36847993Y-67890496D01*
X36871197Y-67884684D01*
X36894858Y-67881174D01*
X36918750Y-67880000D01*
X37406250Y-67880000D01*
X37430142Y-67881174D01*
G37*
D11*
X53340000Y-63500000D03*
X55880000Y-63500000D03*
X53340000Y-60960000D03*
X55880000Y-60960000D03*
X53340000Y-58420000D03*
X55880000Y-58420000D03*
X53340000Y-55880000D03*
X55880000Y-55880000D03*
X53340000Y-53340000D03*
X55880000Y-53340000D03*
X53340000Y-50800000D03*
X55880000Y-50800000D03*
X53340000Y-48260000D03*
X55880000Y-48260000D03*
X53340000Y-45720000D03*
X55880000Y-45720000D03*
X53340000Y-43180000D03*
X55880000Y-43180000D03*
X53340000Y-40640000D03*
X55880000Y-40640000D03*
X53340000Y-38100000D03*
X55880000Y-38100000D03*
X53340000Y-35560000D03*
X55880000Y-35560000D03*
X53340000Y-33020000D03*
X55880000Y-33020000D03*
X53340000Y-30480000D03*
X55880000Y-30480000D03*
X53340000Y-27940000D03*
X55880000Y-27940000D03*
X53340000Y-25400000D03*
X55880000Y-25400000D03*
X53340000Y-22860000D03*
X55880000Y-22860000D03*
X53340000Y-20320000D03*
X55880000Y-20320000D03*
X53340000Y-17780000D03*
X55880000Y-17780000D03*
X53340000Y-15240000D03*
X55880000Y-15240000D03*
X53340000Y-12700000D03*
X55880000Y-12700000D03*
X53340000Y-10160000D03*
X55880000Y-10160000D03*
X53340000Y-7620000D03*
D12*
X55880000Y-7620000D03*
D23*
X46950000Y-9525000D03*
X44450000Y-9525000D03*
D18*
G36*
X42574504Y-8601204D02*
G01*
X42598773Y-8604804D01*
X42622571Y-8610765D01*
X42645671Y-8619030D01*
X42667849Y-8629520D01*
X42688893Y-8642133D01*
X42708598Y-8656747D01*
X42726777Y-8673223D01*
X42743253Y-8691402D01*
X42757867Y-8711107D01*
X42770480Y-8732151D01*
X42780970Y-8754329D01*
X42789235Y-8777429D01*
X42795196Y-8801227D01*
X42798796Y-8825496D01*
X42800000Y-8850000D01*
X42800000Y-10200000D01*
X42798796Y-10224504D01*
X42795196Y-10248773D01*
X42789235Y-10272571D01*
X42780970Y-10295671D01*
X42770480Y-10317849D01*
X42757867Y-10338893D01*
X42743253Y-10358598D01*
X42726777Y-10376777D01*
X42708598Y-10393253D01*
X42688893Y-10407867D01*
X42667849Y-10420480D01*
X42645671Y-10430970D01*
X42622571Y-10439235D01*
X42598773Y-10445196D01*
X42574504Y-10448796D01*
X42550000Y-10450000D01*
X41350000Y-10450000D01*
X41325496Y-10448796D01*
X41301227Y-10445196D01*
X41277429Y-10439235D01*
X41254329Y-10430970D01*
X41232151Y-10420480D01*
X41211107Y-10407867D01*
X41191402Y-10393253D01*
X41173223Y-10376777D01*
X41156747Y-10358598D01*
X41142133Y-10338893D01*
X41129520Y-10317849D01*
X41119030Y-10295671D01*
X41110765Y-10272571D01*
X41104804Y-10248773D01*
X41101204Y-10224504D01*
X41100000Y-10200000D01*
X41100000Y-8850000D01*
X41101204Y-8825496D01*
X41104804Y-8801227D01*
X41110765Y-8777429D01*
X41119030Y-8754329D01*
X41129520Y-8732151D01*
X41142133Y-8711107D01*
X41156747Y-8691402D01*
X41173223Y-8673223D01*
X41191402Y-8656747D01*
X41211107Y-8642133D01*
X41232151Y-8629520D01*
X41254329Y-8619030D01*
X41277429Y-8610765D01*
X41301227Y-8604804D01*
X41325496Y-8601204D01*
X41350000Y-8600000D01*
X42550000Y-8600000D01*
X42574504Y-8601204D01*
G37*
D23*
X15200000Y-9525000D03*
D18*
G36*
X13324504Y-8601204D02*
G01*
X13348773Y-8604804D01*
X13372571Y-8610765D01*
X13395671Y-8619030D01*
X13417849Y-8629520D01*
X13438893Y-8642133D01*
X13458598Y-8656747D01*
X13476777Y-8673223D01*
X13493253Y-8691402D01*
X13507867Y-8711107D01*
X13520480Y-8732151D01*
X13530970Y-8754329D01*
X13539235Y-8777429D01*
X13545196Y-8801227D01*
X13548796Y-8825496D01*
X13550000Y-8850000D01*
X13550000Y-10200000D01*
X13548796Y-10224504D01*
X13545196Y-10248773D01*
X13539235Y-10272571D01*
X13530970Y-10295671D01*
X13520480Y-10317849D01*
X13507867Y-10338893D01*
X13493253Y-10358598D01*
X13476777Y-10376777D01*
X13458598Y-10393253D01*
X13438893Y-10407867D01*
X13417849Y-10420480D01*
X13395671Y-10430970D01*
X13372571Y-10439235D01*
X13348773Y-10445196D01*
X13324504Y-10448796D01*
X13300000Y-10450000D01*
X12100000Y-10450000D01*
X12075496Y-10448796D01*
X12051227Y-10445196D01*
X12027429Y-10439235D01*
X12004329Y-10430970D01*
X11982151Y-10420480D01*
X11961107Y-10407867D01*
X11941402Y-10393253D01*
X11923223Y-10376777D01*
X11906747Y-10358598D01*
X11892133Y-10338893D01*
X11879520Y-10317849D01*
X11869030Y-10295671D01*
X11860765Y-10272571D01*
X11854804Y-10248773D01*
X11851204Y-10224504D01*
X11850000Y-10200000D01*
X11850000Y-8850000D01*
X11851204Y-8825496D01*
X11854804Y-8801227D01*
X11860765Y-8777429D01*
X11869030Y-8754329D01*
X11879520Y-8732151D01*
X11892133Y-8711107D01*
X11906747Y-8691402D01*
X11923223Y-8673223D01*
X11941402Y-8656747D01*
X11961107Y-8642133D01*
X11982151Y-8629520D01*
X12004329Y-8619030D01*
X12027429Y-8610765D01*
X12051227Y-8604804D01*
X12075496Y-8601204D01*
X12100000Y-8600000D01*
X13300000Y-8600000D01*
X13324504Y-8601204D01*
G37*
D16*
X17780000Y-23495000D03*
D17*
X21280000Y-23495000D03*
D24*
X38100000Y-40260000D03*
X38100000Y-43560000D03*
D25*
X19686000Y-13970000D03*
X22986000Y-13970000D03*
M02*
