%TF.GenerationSoftware,KiCad,Pcbnew,5.1.10*%
%TF.CreationDate,2021-06-02T18:32:35+01:00*%
%TF.ProjectId,BB_Dash_Display,42425f44-6173-4685-9f44-6973706c6179,A3*%
%TF.SameCoordinates,PX43d3480PY41672a0*%
%TF.FileFunction,Soldermask,Bot*%
%TF.FilePolarity,Negative*%
%FSLAX46Y46*%
G04 Gerber Fmt 4.6, Leading zero omitted, Abs format (unit mm)*
G04 Created by KiCad (PCBNEW 5.1.10) date 2021-06-02 18:32:35*
%MOMM*%
%LPD*%
G01*
G04 APERTURE LIST*
%ADD10R,4.240000X3.810000*%
%ADD11R,0.500000X0.800000*%
%ADD12R,0.400000X0.800000*%
%ADD13C,0.100000*%
%ADD14O,1.700000X1.700000*%
%ADD15R,1.700000X1.700000*%
%ADD16C,2.000000*%
%ADD17R,0.300000X1.300000*%
%ADD18R,1.800000X2.200000*%
%ADD19O,1.700000X1.850000*%
%ADD20R,1.200000X0.900000*%
G04 APERTURE END LIST*
D10*
%TO.C,F1*%
X31125000Y-12700000D03*
X24755000Y-12700000D03*
%TD*%
D11*
%TO.C,RN5*%
X21660000Y-53710000D03*
D12*
X22460000Y-53710000D03*
D11*
X24060000Y-53710000D03*
D12*
X23260000Y-53710000D03*
D11*
X21660000Y-55510000D03*
D12*
X23260000Y-55510000D03*
X22460000Y-55510000D03*
D11*
X24060000Y-55510000D03*
%TD*%
%TO.C,RN4*%
X25470000Y-53710000D03*
D12*
X26270000Y-53710000D03*
D11*
X27870000Y-53710000D03*
D12*
X27070000Y-53710000D03*
D11*
X25470000Y-55510000D03*
D12*
X27070000Y-55510000D03*
X26270000Y-55510000D03*
D11*
X27870000Y-55510000D03*
%TD*%
%TO.C,RN3*%
X29280000Y-53710000D03*
D12*
X30080000Y-53710000D03*
D11*
X31680000Y-53710000D03*
D12*
X30880000Y-53710000D03*
D11*
X29280000Y-55510000D03*
D12*
X30880000Y-55510000D03*
X30080000Y-55510000D03*
D11*
X31680000Y-55510000D03*
%TD*%
%TO.C,RN2*%
X33090000Y-53710000D03*
D12*
X33890000Y-53710000D03*
D11*
X35490000Y-53710000D03*
D12*
X34690000Y-53710000D03*
D11*
X33090000Y-55510000D03*
D12*
X34690000Y-55510000D03*
X33890000Y-55510000D03*
D11*
X35490000Y-55510000D03*
%TD*%
%TO.C,RN1*%
X36900000Y-53710000D03*
D12*
X37700000Y-53710000D03*
D11*
X39300000Y-53710000D03*
D12*
X38500000Y-53710000D03*
D11*
X36900000Y-55510000D03*
D12*
X38500000Y-55510000D03*
X37700000Y-55510000D03*
D11*
X39300000Y-55510000D03*
%TD*%
D13*
%TO.C,JP1*%
G36*
X20595000Y-29464000D02*
G01*
X20095000Y-30214000D01*
X19095000Y-30214000D01*
X19095000Y-28714000D01*
X20095000Y-28714000D01*
X20595000Y-29464000D01*
G37*
G36*
X21545000Y-30214000D02*
G01*
X20395000Y-30214000D01*
X20895000Y-29464000D01*
X20395000Y-28714000D01*
X21545000Y-28714000D01*
X21545000Y-30214000D01*
G37*
%TD*%
D14*
%TO.C,P8*%
X5080000Y-63500000D03*
X7620000Y-63500000D03*
X5080000Y-60960000D03*
X7620000Y-60960000D03*
X5080000Y-58420000D03*
X7620000Y-58420000D03*
X5080000Y-55880000D03*
X7620000Y-55880000D03*
X5080000Y-53340000D03*
X7620000Y-53340000D03*
X5080000Y-50800000D03*
X7620000Y-50800000D03*
X5080000Y-48260000D03*
X7620000Y-48260000D03*
X5080000Y-45720000D03*
X7620000Y-45720000D03*
X5080000Y-43180000D03*
X7620000Y-43180000D03*
X5080000Y-40640000D03*
X7620000Y-40640000D03*
X5080000Y-38100000D03*
X7620000Y-38100000D03*
X5080000Y-35560000D03*
X7620000Y-35560000D03*
X5080000Y-33020000D03*
X7620000Y-33020000D03*
X5080000Y-30480000D03*
X7620000Y-30480000D03*
X5080000Y-27940000D03*
X7620000Y-27940000D03*
X5080000Y-25400000D03*
X7620000Y-25400000D03*
X5080000Y-22860000D03*
X7620000Y-22860000D03*
X5080000Y-20320000D03*
X7620000Y-20320000D03*
X5080000Y-17780000D03*
X7620000Y-17780000D03*
X5080000Y-15240000D03*
X7620000Y-15240000D03*
X5080000Y-12700000D03*
X7620000Y-12700000D03*
X5080000Y-10160000D03*
X7620000Y-10160000D03*
X5080000Y-7620000D03*
D15*
X7620000Y-7620000D03*
%TD*%
D16*
%TO.C,TP9*%
X34290000Y-22860000D03*
%TD*%
%TO.C,TP6*%
X34290000Y-31750000D03*
%TD*%
%TO.C,TP3*%
X43180000Y-31750000D03*
%TD*%
%TO.C,TP8*%
X43180000Y-29210000D03*
%TD*%
%TO.C,TP5*%
X34290000Y-29210000D03*
%TD*%
%TO.C,TP2*%
X34290000Y-20320000D03*
%TD*%
%TO.C,TP7*%
X45720000Y-53340000D03*
%TD*%
%TO.C,TP4*%
X45720000Y-55880000D03*
%TD*%
%TO.C,TP1*%
X34290000Y-36830000D03*
%TD*%
D14*
%TO.C,P9*%
X53340000Y-63500000D03*
X55880000Y-63500000D03*
X53340000Y-60960000D03*
X55880000Y-60960000D03*
X53340000Y-58420000D03*
X55880000Y-58420000D03*
X53340000Y-55880000D03*
X55880000Y-55880000D03*
X53340000Y-53340000D03*
X55880000Y-53340000D03*
X53340000Y-50800000D03*
X55880000Y-50800000D03*
X53340000Y-48260000D03*
X55880000Y-48260000D03*
X53340000Y-45720000D03*
X55880000Y-45720000D03*
X53340000Y-43180000D03*
X55880000Y-43180000D03*
X53340000Y-40640000D03*
X55880000Y-40640000D03*
X53340000Y-38100000D03*
X55880000Y-38100000D03*
X53340000Y-35560000D03*
X55880000Y-35560000D03*
X53340000Y-33020000D03*
X55880000Y-33020000D03*
X53340000Y-30480000D03*
X55880000Y-30480000D03*
X53340000Y-27940000D03*
X55880000Y-27940000D03*
X53340000Y-25400000D03*
X55880000Y-25400000D03*
X53340000Y-22860000D03*
X55880000Y-22860000D03*
X53340000Y-20320000D03*
X55880000Y-20320000D03*
X53340000Y-17780000D03*
X55880000Y-17780000D03*
X53340000Y-15240000D03*
X55880000Y-15240000D03*
X53340000Y-12700000D03*
X55880000Y-12700000D03*
X53340000Y-10160000D03*
X55880000Y-10160000D03*
X53340000Y-7620000D03*
D15*
X55880000Y-7620000D03*
%TD*%
D17*
%TO.C,J1*%
X20730000Y-59110000D03*
X21230000Y-59110000D03*
X21730000Y-59110000D03*
X22230000Y-59110000D03*
X22730000Y-59110000D03*
X23230000Y-59110000D03*
X23730000Y-59110000D03*
X24230000Y-59110000D03*
X24730000Y-59110000D03*
X25230000Y-59110000D03*
X25730000Y-59110000D03*
X26230000Y-59110000D03*
X26730000Y-59110000D03*
X27230000Y-59110000D03*
X27730000Y-59110000D03*
X28230000Y-59110000D03*
X28730000Y-59110000D03*
X29230000Y-59110000D03*
X29730000Y-59110000D03*
X30230000Y-59110000D03*
X30730000Y-59110000D03*
X31230000Y-59110000D03*
X31730000Y-59110000D03*
X32230000Y-59110000D03*
X32730000Y-59110000D03*
X33230000Y-59110000D03*
X33730000Y-59110000D03*
X34230000Y-59110000D03*
X34730000Y-59110000D03*
X35230000Y-59110000D03*
X35730000Y-59110000D03*
X36230000Y-59110000D03*
X36730000Y-59110000D03*
X37230000Y-59110000D03*
X37730000Y-59110000D03*
X38230000Y-59110000D03*
X38730000Y-59110000D03*
X39230000Y-59110000D03*
X39730000Y-59110000D03*
X40230000Y-59110000D03*
D18*
X42130000Y-62360000D03*
X18830000Y-62360000D03*
%TD*%
D19*
%TO.C,J2*%
X46910000Y-12700000D03*
X44410000Y-12700000D03*
G36*
G01*
X41060000Y-13375000D02*
X41060000Y-12025000D01*
G75*
G02*
X41310000Y-11775000I250000J0D01*
G01*
X42510000Y-11775000D01*
G75*
G02*
X42760000Y-12025000I0J-250000D01*
G01*
X42760000Y-13375000D01*
G75*
G02*
X42510000Y-13625000I-250000J0D01*
G01*
X41310000Y-13625000D01*
G75*
G02*
X41060000Y-13375000I0J250000D01*
G01*
G37*
%TD*%
%TO.C,J3*%
X15200000Y-12700000D03*
G36*
G01*
X11850000Y-13375000D02*
X11850000Y-12025000D01*
G75*
G02*
X12100000Y-11775000I250000J0D01*
G01*
X13300000Y-11775000D01*
G75*
G02*
X13550000Y-12025000I0J-250000D01*
G01*
X13550000Y-13375000D01*
G75*
G02*
X13300000Y-13625000I-250000J0D01*
G01*
X12100000Y-13625000D01*
G75*
G02*
X11850000Y-13375000I0J250000D01*
G01*
G37*
%TD*%
D20*
%TO.C,D2*%
X20320000Y-14350000D03*
X20320000Y-11050000D03*
%TD*%
M02*
