G04 #@! TF.GenerationSoftware,KiCad,Pcbnew,5.1.5*
G04 #@! TF.CreationDate,2020-03-06T13:15:01+00:00*
G04 #@! TF.ProjectId,BB_Dash_Display,42425f44-6173-4685-9f44-6973706c6179,rev?*
G04 #@! TF.SameCoordinates,PX43d3480PY41672a0*
G04 #@! TF.FileFunction,Legend,Bot*
G04 #@! TF.FilePolarity,Positive*
%FSLAX46Y46*%
G04 Gerber Fmt 4.6, Leading zero omitted, Abs format (unit mm)*
G04 Created by KiCad (PCBNEW 5.1.5) date 2020-03-06 13:15:01*
%MOMM*%
%LPD*%
G04 APERTURE LIST*
%ADD10C,0.150000*%
%ADD11C,0.120000*%
G04 APERTURE END LIST*
D10*
X51164761Y-39743571D02*
X51021904Y-39791190D01*
X50974285Y-39838809D01*
X50926666Y-39934047D01*
X50926666Y-40076904D01*
X50974285Y-40172142D01*
X51021904Y-40219761D01*
X51117142Y-40267380D01*
X51498095Y-40267380D01*
X51498095Y-39267380D01*
X51164761Y-39267380D01*
X51069523Y-39315000D01*
X51021904Y-39362619D01*
X50974285Y-39457857D01*
X50974285Y-39553095D01*
X51021904Y-39648333D01*
X51069523Y-39695952D01*
X51164761Y-39743571D01*
X51498095Y-39743571D01*
X50069523Y-40267380D02*
X50069523Y-39743571D01*
X50117142Y-39648333D01*
X50212380Y-39600714D01*
X50402857Y-39600714D01*
X50498095Y-39648333D01*
X50069523Y-40219761D02*
X50164761Y-40267380D01*
X50402857Y-40267380D01*
X50498095Y-40219761D01*
X50545714Y-40124523D01*
X50545714Y-40029285D01*
X50498095Y-39934047D01*
X50402857Y-39886428D01*
X50164761Y-39886428D01*
X50069523Y-39838809D01*
X49164761Y-40219761D02*
X49260000Y-40267380D01*
X49450476Y-40267380D01*
X49545714Y-40219761D01*
X49593333Y-40172142D01*
X49640952Y-40076904D01*
X49640952Y-39791190D01*
X49593333Y-39695952D01*
X49545714Y-39648333D01*
X49450476Y-39600714D01*
X49260000Y-39600714D01*
X49164761Y-39648333D01*
X48736190Y-40267380D02*
X48736190Y-39267380D01*
X48640952Y-39886428D02*
X48355238Y-40267380D01*
X48355238Y-39600714D02*
X48736190Y-39981666D01*
X47783809Y-40267380D02*
X47879047Y-40219761D01*
X47926666Y-40124523D01*
X47926666Y-39267380D01*
X47402857Y-40267380D02*
X47402857Y-39600714D01*
X47402857Y-39267380D02*
X47450476Y-39315000D01*
X47402857Y-39362619D01*
X47355238Y-39315000D01*
X47402857Y-39267380D01*
X47402857Y-39362619D01*
X46498095Y-39600714D02*
X46498095Y-40410238D01*
X46545714Y-40505476D01*
X46593333Y-40553095D01*
X46688571Y-40600714D01*
X46831428Y-40600714D01*
X46926666Y-40553095D01*
X46498095Y-40219761D02*
X46593333Y-40267380D01*
X46783809Y-40267380D01*
X46879047Y-40219761D01*
X46926666Y-40172142D01*
X46974285Y-40076904D01*
X46974285Y-39791190D01*
X46926666Y-39695952D01*
X46879047Y-39648333D01*
X46783809Y-39600714D01*
X46593333Y-39600714D01*
X46498095Y-39648333D01*
X46021904Y-40267380D02*
X46021904Y-39267380D01*
X45593333Y-40267380D02*
X45593333Y-39743571D01*
X45640952Y-39648333D01*
X45736190Y-39600714D01*
X45879047Y-39600714D01*
X45974285Y-39648333D01*
X46021904Y-39695952D01*
X45260000Y-39600714D02*
X44879047Y-39600714D01*
X45117142Y-39267380D02*
X45117142Y-40124523D01*
X45069523Y-40219761D01*
X44974285Y-40267380D01*
X44879047Y-40267380D01*
X50521904Y-41393571D02*
X50188571Y-41393571D01*
X50045714Y-41917380D02*
X50521904Y-41917380D01*
X50521904Y-40917380D01*
X50045714Y-40917380D01*
X49617142Y-41250714D02*
X49617142Y-41917380D01*
X49617142Y-41345952D02*
X49569523Y-41298333D01*
X49474285Y-41250714D01*
X49331428Y-41250714D01*
X49236190Y-41298333D01*
X49188571Y-41393571D01*
X49188571Y-41917380D01*
X48283809Y-41917380D02*
X48283809Y-41393571D01*
X48331428Y-41298333D01*
X48426666Y-41250714D01*
X48617142Y-41250714D01*
X48712380Y-41298333D01*
X48283809Y-41869761D02*
X48379047Y-41917380D01*
X48617142Y-41917380D01*
X48712380Y-41869761D01*
X48760000Y-41774523D01*
X48760000Y-41679285D01*
X48712380Y-41584047D01*
X48617142Y-41536428D01*
X48379047Y-41536428D01*
X48283809Y-41488809D01*
X47807619Y-41917380D02*
X47807619Y-40917380D01*
X47807619Y-41298333D02*
X47712380Y-41250714D01*
X47521904Y-41250714D01*
X47426666Y-41298333D01*
X47379047Y-41345952D01*
X47331428Y-41441190D01*
X47331428Y-41726904D01*
X47379047Y-41822142D01*
X47426666Y-41869761D01*
X47521904Y-41917380D01*
X47712380Y-41917380D01*
X47807619Y-41869761D01*
X46760000Y-41917380D02*
X46855238Y-41869761D01*
X46902857Y-41774523D01*
X46902857Y-40917380D01*
X45998095Y-41869761D02*
X46093333Y-41917380D01*
X46283809Y-41917380D01*
X46379047Y-41869761D01*
X46426666Y-41774523D01*
X46426666Y-41393571D01*
X46379047Y-41298333D01*
X46283809Y-41250714D01*
X46093333Y-41250714D01*
X45998095Y-41298333D01*
X45950476Y-41393571D01*
X45950476Y-41488809D01*
X46426666Y-41584047D01*
X32208214Y-46172380D02*
X32684404Y-46172380D01*
X32684404Y-45172380D01*
X31874880Y-45648571D02*
X31541547Y-45648571D01*
X31398690Y-46172380D02*
X31874880Y-46172380D01*
X31874880Y-45172380D01*
X31398690Y-45172380D01*
X30970119Y-46172380D02*
X30970119Y-45172380D01*
X30732023Y-45172380D01*
X30589166Y-45220000D01*
X30493928Y-45315238D01*
X30446309Y-45410476D01*
X30398690Y-45600952D01*
X30398690Y-45743809D01*
X30446309Y-45934285D01*
X30493928Y-46029523D01*
X30589166Y-46124761D01*
X30732023Y-46172380D01*
X30970119Y-46172380D01*
X29970119Y-45791428D02*
X29208214Y-45791428D01*
X29589166Y-46172380D02*
X29589166Y-45410476D01*
X32208214Y-43632380D02*
X32684404Y-43632380D01*
X32684404Y-42632380D01*
X31874880Y-43108571D02*
X31541547Y-43108571D01*
X31398690Y-43632380D02*
X31874880Y-43632380D01*
X31874880Y-42632380D01*
X31398690Y-42632380D01*
X30970119Y-43632380D02*
X30970119Y-42632380D01*
X30732023Y-42632380D01*
X30589166Y-42680000D01*
X30493928Y-42775238D01*
X30446309Y-42870476D01*
X30398690Y-43060952D01*
X30398690Y-43203809D01*
X30446309Y-43394285D01*
X30493928Y-43489523D01*
X30589166Y-43584761D01*
X30732023Y-43632380D01*
X30970119Y-43632380D01*
X29970119Y-43251428D02*
X29208214Y-43251428D01*
X48394761Y-30932380D02*
X48394761Y-29932380D01*
X48013809Y-29932380D01*
X47918571Y-29980000D01*
X47870952Y-30027619D01*
X47823333Y-30122857D01*
X47823333Y-30265714D01*
X47870952Y-30360952D01*
X47918571Y-30408571D01*
X48013809Y-30456190D01*
X48394761Y-30456190D01*
X47490000Y-29932380D02*
X47251904Y-30932380D01*
X47061428Y-30218095D01*
X46870952Y-30932380D01*
X46632857Y-29932380D01*
X46251904Y-30932380D02*
X46251904Y-29932380D01*
X45918571Y-30646666D01*
X45585238Y-29932380D01*
X45585238Y-30932380D01*
X21661190Y-31567380D02*
X21661190Y-30567380D01*
X21280238Y-30567380D01*
X21185000Y-30615000D01*
X21137380Y-30662619D01*
X21089761Y-30757857D01*
X21089761Y-30900714D01*
X21137380Y-30995952D01*
X21185000Y-31043571D01*
X21280238Y-31091190D01*
X21661190Y-31091190D01*
X20518333Y-31567380D02*
X20613571Y-31519761D01*
X20661190Y-31472142D01*
X20708809Y-31376904D01*
X20708809Y-31091190D01*
X20661190Y-30995952D01*
X20613571Y-30948333D01*
X20518333Y-30900714D01*
X20375476Y-30900714D01*
X20280238Y-30948333D01*
X20232619Y-30995952D01*
X20185000Y-31091190D01*
X20185000Y-31376904D01*
X20232619Y-31472142D01*
X20280238Y-31519761D01*
X20375476Y-31567380D01*
X20518333Y-31567380D01*
X19851666Y-30900714D02*
X19661190Y-31567380D01*
X19470714Y-31091190D01*
X19280238Y-31567380D01*
X19089761Y-30900714D01*
X18327857Y-31519761D02*
X18423095Y-31567380D01*
X18613571Y-31567380D01*
X18708809Y-31519761D01*
X18756428Y-31424523D01*
X18756428Y-31043571D01*
X18708809Y-30948333D01*
X18613571Y-30900714D01*
X18423095Y-30900714D01*
X18327857Y-30948333D01*
X18280238Y-31043571D01*
X18280238Y-31138809D01*
X18756428Y-31234047D01*
X17851666Y-31567380D02*
X17851666Y-30900714D01*
X17851666Y-31091190D02*
X17804047Y-30995952D01*
X17756428Y-30948333D01*
X17661190Y-30900714D01*
X17565952Y-30900714D01*
X18160952Y-29281428D02*
X17399047Y-29281428D01*
X17780000Y-29662380D02*
X17780000Y-28900476D01*
X21716952Y-29281428D02*
X20955047Y-29281428D01*
X17152857Y-62587142D02*
X17200476Y-62634761D01*
X17343333Y-62682380D01*
X17438571Y-62682380D01*
X17581428Y-62634761D01*
X17676666Y-62539523D01*
X17724285Y-62444285D01*
X17771904Y-62253809D01*
X17771904Y-62110952D01*
X17724285Y-61920476D01*
X17676666Y-61825238D01*
X17581428Y-61730000D01*
X17438571Y-61682380D01*
X17343333Y-61682380D01*
X17200476Y-61730000D01*
X17152857Y-61777619D01*
X16771904Y-62396666D02*
X16295714Y-62396666D01*
X16867142Y-62682380D02*
X16533809Y-61682380D01*
X16200476Y-62682380D01*
X15867142Y-62682380D02*
X15867142Y-61682380D01*
X15295714Y-62682380D01*
X15295714Y-61682380D01*
X20796190Y-64015952D02*
X19843809Y-64015952D01*
X20605714Y-64301666D02*
X20034285Y-64301666D01*
X20320000Y-63587380D02*
X20320000Y-64015952D01*
X20224761Y-64587380D02*
X20415238Y-64587380D01*
X13025476Y-64587380D02*
X13501666Y-64587380D01*
X13501666Y-63587380D01*
X17049714Y-64460380D02*
X17049714Y-63460380D01*
X17049714Y-63936571D02*
X16478285Y-63936571D01*
X16478285Y-64460380D02*
X16478285Y-63460380D01*
X41600476Y-12517380D02*
X42076666Y-12517380D01*
X42076666Y-11517380D01*
X44735714Y-12517380D02*
X44735714Y-11517380D01*
X44735714Y-11993571D02*
X44164285Y-11993571D01*
X44164285Y-12517380D02*
X44164285Y-11517380D01*
X47466190Y-11945952D02*
X46513809Y-11945952D01*
X47275714Y-12231666D02*
X46704285Y-12231666D01*
X46990000Y-11517380D02*
X46990000Y-11945952D01*
X46894761Y-12517380D02*
X47085238Y-12517380D01*
X45092857Y-14327142D02*
X45140476Y-14374761D01*
X45283333Y-14422380D01*
X45378571Y-14422380D01*
X45521428Y-14374761D01*
X45616666Y-14279523D01*
X45664285Y-14184285D01*
X45711904Y-13993809D01*
X45711904Y-13850952D01*
X45664285Y-13660476D01*
X45616666Y-13565238D01*
X45521428Y-13470000D01*
X45378571Y-13422380D01*
X45283333Y-13422380D01*
X45140476Y-13470000D01*
X45092857Y-13517619D01*
X44711904Y-14136666D02*
X44235714Y-14136666D01*
X44807142Y-14422380D02*
X44473809Y-13422380D01*
X44140476Y-14422380D01*
X43807142Y-14422380D02*
X43807142Y-13422380D01*
X43235714Y-14422380D01*
X43235714Y-13422380D01*
X13080952Y-12136428D02*
X12319047Y-12136428D01*
X12700000Y-12517380D02*
X12700000Y-11755476D01*
X15620952Y-12136428D02*
X14859047Y-12136428D01*
X15946190Y-14422380D02*
X15946190Y-13422380D01*
X15565238Y-13422380D01*
X15470000Y-13470000D01*
X15422380Y-13517619D01*
X15374761Y-13612857D01*
X15374761Y-13755714D01*
X15422380Y-13850952D01*
X15470000Y-13898571D01*
X15565238Y-13946190D01*
X15946190Y-13946190D01*
X14803333Y-14422380D02*
X14898571Y-14374761D01*
X14946190Y-14327142D01*
X14993809Y-14231904D01*
X14993809Y-13946190D01*
X14946190Y-13850952D01*
X14898571Y-13803333D01*
X14803333Y-13755714D01*
X14660476Y-13755714D01*
X14565238Y-13803333D01*
X14517619Y-13850952D01*
X14470000Y-13946190D01*
X14470000Y-14231904D01*
X14517619Y-14327142D01*
X14565238Y-14374761D01*
X14660476Y-14422380D01*
X14803333Y-14422380D01*
X14136666Y-13755714D02*
X13946190Y-14422380D01*
X13755714Y-13946190D01*
X13565238Y-14422380D01*
X13374761Y-13755714D01*
X12612857Y-14374761D02*
X12708095Y-14422380D01*
X12898571Y-14422380D01*
X12993809Y-14374761D01*
X13041428Y-14279523D01*
X13041428Y-13898571D01*
X12993809Y-13803333D01*
X12898571Y-13755714D01*
X12708095Y-13755714D01*
X12612857Y-13803333D01*
X12565238Y-13898571D01*
X12565238Y-13993809D01*
X13041428Y-14089047D01*
X12136666Y-14422380D02*
X12136666Y-13755714D01*
X12136666Y-13946190D02*
X12089047Y-13850952D01*
X12041428Y-13803333D01*
X11946190Y-13755714D01*
X11850952Y-13755714D01*
X28963809Y-27392380D02*
X28630476Y-28392380D01*
X28297142Y-27392380D01*
X27963809Y-28392380D02*
X27963809Y-27725714D01*
X27963809Y-27392380D02*
X28011428Y-27440000D01*
X27963809Y-27487619D01*
X27916190Y-27440000D01*
X27963809Y-27392380D01*
X27963809Y-27487619D01*
X27487619Y-27725714D02*
X27487619Y-28392380D01*
X27487619Y-27820952D02*
X27440000Y-27773333D01*
X27344761Y-27725714D01*
X27201904Y-27725714D01*
X27106666Y-27773333D01*
X27059047Y-27868571D01*
X27059047Y-28392380D01*
X28701904Y-19820000D02*
X28797142Y-19772380D01*
X28940000Y-19772380D01*
X29082857Y-19820000D01*
X29178095Y-19915238D01*
X29225714Y-20010476D01*
X29273333Y-20200952D01*
X29273333Y-20343809D01*
X29225714Y-20534285D01*
X29178095Y-20629523D01*
X29082857Y-20724761D01*
X28940000Y-20772380D01*
X28844761Y-20772380D01*
X28701904Y-20724761D01*
X28654285Y-20677142D01*
X28654285Y-20343809D01*
X28844761Y-20343809D01*
X28225714Y-20772380D02*
X28225714Y-19772380D01*
X27654285Y-20772380D01*
X27654285Y-19772380D01*
X27178095Y-20772380D02*
X27178095Y-19772380D01*
X26940000Y-19772380D01*
X26797142Y-19820000D01*
X26701904Y-19915238D01*
X26654285Y-20010476D01*
X26606666Y-20200952D01*
X26606666Y-20343809D01*
X26654285Y-20534285D01*
X26701904Y-20629523D01*
X26797142Y-20724761D01*
X26940000Y-20772380D01*
X27178095Y-20772380D01*
X45495595Y-24900000D02*
X45590833Y-24852380D01*
X45733690Y-24852380D01*
X45876547Y-24900000D01*
X45971785Y-24995238D01*
X46019404Y-25090476D01*
X46067023Y-25280952D01*
X46067023Y-25423809D01*
X46019404Y-25614285D01*
X45971785Y-25709523D01*
X45876547Y-25804761D01*
X45733690Y-25852380D01*
X45638452Y-25852380D01*
X45495595Y-25804761D01*
X45447976Y-25757142D01*
X45447976Y-25423809D01*
X45638452Y-25423809D01*
X45019404Y-25852380D02*
X45019404Y-24852380D01*
X44447976Y-25852380D01*
X44447976Y-24852380D01*
X43971785Y-25852380D02*
X43971785Y-24852380D01*
X43733690Y-24852380D01*
X43590833Y-24900000D01*
X43495595Y-24995238D01*
X43447976Y-25090476D01*
X43400357Y-25280952D01*
X43400357Y-25423809D01*
X43447976Y-25614285D01*
X43495595Y-25709523D01*
X43590833Y-25804761D01*
X43733690Y-25852380D01*
X43971785Y-25852380D01*
X45543214Y-22312380D02*
X46019404Y-22312380D01*
X46067023Y-22788571D01*
X46019404Y-22740952D01*
X45924166Y-22693333D01*
X45686071Y-22693333D01*
X45590833Y-22740952D01*
X45543214Y-22788571D01*
X45495595Y-22883809D01*
X45495595Y-23121904D01*
X45543214Y-23217142D01*
X45590833Y-23264761D01*
X45686071Y-23312380D01*
X45924166Y-23312380D01*
X46019404Y-23264761D01*
X46067023Y-23217142D01*
X45209880Y-22312380D02*
X44876547Y-23312380D01*
X44543214Y-22312380D01*
X45495595Y-19820000D02*
X45590833Y-19772380D01*
X45733690Y-19772380D01*
X45876547Y-19820000D01*
X45971785Y-19915238D01*
X46019404Y-20010476D01*
X46067023Y-20200952D01*
X46067023Y-20343809D01*
X46019404Y-20534285D01*
X45971785Y-20629523D01*
X45876547Y-20724761D01*
X45733690Y-20772380D01*
X45638452Y-20772380D01*
X45495595Y-20724761D01*
X45447976Y-20677142D01*
X45447976Y-20343809D01*
X45638452Y-20343809D01*
X45019404Y-20772380D02*
X45019404Y-19772380D01*
X44447976Y-20772380D01*
X44447976Y-19772380D01*
X43971785Y-20772380D02*
X43971785Y-19772380D01*
X43733690Y-19772380D01*
X43590833Y-19820000D01*
X43495595Y-19915238D01*
X43447976Y-20010476D01*
X43400357Y-20200952D01*
X43400357Y-20343809D01*
X43447976Y-20534285D01*
X43495595Y-20629523D01*
X43590833Y-20724761D01*
X43733690Y-20772380D01*
X43971785Y-20772380D01*
X46114642Y-17232380D02*
X45495595Y-17232380D01*
X45828928Y-17613333D01*
X45686071Y-17613333D01*
X45590833Y-17660952D01*
X45543214Y-17708571D01*
X45495595Y-17803809D01*
X45495595Y-18041904D01*
X45543214Y-18137142D01*
X45590833Y-18184761D01*
X45686071Y-18232380D01*
X45971785Y-18232380D01*
X46067023Y-18184761D01*
X46114642Y-18137142D01*
X45209880Y-17232380D02*
X44876547Y-18232380D01*
X44543214Y-17232380D01*
X44305119Y-17232380D02*
X43686071Y-17232380D01*
X44019404Y-17613333D01*
X43876547Y-17613333D01*
X43781309Y-17660952D01*
X43733690Y-17708571D01*
X43686071Y-17803809D01*
X43686071Y-18041904D01*
X43733690Y-18137142D01*
X43781309Y-18184761D01*
X43876547Y-18232380D01*
X44162261Y-18232380D01*
X44257500Y-18184761D01*
X44305119Y-18137142D01*
X42844404Y-32712380D02*
X42844404Y-31712380D01*
X42606309Y-31712380D01*
X42463452Y-31760000D01*
X42368214Y-31855238D01*
X42320595Y-31950476D01*
X42272976Y-32140952D01*
X42272976Y-32283809D01*
X42320595Y-32474285D01*
X42368214Y-32569523D01*
X42463452Y-32664761D01*
X42606309Y-32712380D01*
X42844404Y-32712380D01*
X41415833Y-32712380D02*
X41415833Y-32188571D01*
X41463452Y-32093333D01*
X41558690Y-32045714D01*
X41749166Y-32045714D01*
X41844404Y-32093333D01*
X41415833Y-32664761D02*
X41511071Y-32712380D01*
X41749166Y-32712380D01*
X41844404Y-32664761D01*
X41892023Y-32569523D01*
X41892023Y-32474285D01*
X41844404Y-32379047D01*
X41749166Y-32331428D01*
X41511071Y-32331428D01*
X41415833Y-32283809D01*
X40987261Y-32664761D02*
X40892023Y-32712380D01*
X40701547Y-32712380D01*
X40606309Y-32664761D01*
X40558690Y-32569523D01*
X40558690Y-32521904D01*
X40606309Y-32426666D01*
X40701547Y-32379047D01*
X40844404Y-32379047D01*
X40939642Y-32331428D01*
X40987261Y-32236190D01*
X40987261Y-32188571D01*
X40939642Y-32093333D01*
X40844404Y-32045714D01*
X40701547Y-32045714D01*
X40606309Y-32093333D01*
X40130119Y-32712380D02*
X40130119Y-31712380D01*
X39701547Y-32712380D02*
X39701547Y-32188571D01*
X39749166Y-32093333D01*
X39844404Y-32045714D01*
X39987261Y-32045714D01*
X40082500Y-32093333D01*
X40130119Y-32140952D01*
X39225357Y-32712380D02*
X39225357Y-31712380D01*
X39225357Y-32093333D02*
X39130119Y-32045714D01*
X38939642Y-32045714D01*
X38844404Y-32093333D01*
X38796785Y-32140952D01*
X38749166Y-32236190D01*
X38749166Y-32521904D01*
X38796785Y-32617142D01*
X38844404Y-32664761D01*
X38939642Y-32712380D01*
X39130119Y-32712380D01*
X39225357Y-32664761D01*
X38177738Y-32712380D02*
X38272976Y-32664761D01*
X38320595Y-32617142D01*
X38368214Y-32521904D01*
X38368214Y-32236190D01*
X38320595Y-32140952D01*
X38272976Y-32093333D01*
X38177738Y-32045714D01*
X38034880Y-32045714D01*
X37939642Y-32093333D01*
X37892023Y-32140952D01*
X37844404Y-32236190D01*
X37844404Y-32521904D01*
X37892023Y-32617142D01*
X37939642Y-32664761D01*
X38034880Y-32712380D01*
X38177738Y-32712380D01*
X36987261Y-32712380D02*
X36987261Y-32188571D01*
X37034880Y-32093333D01*
X37130119Y-32045714D01*
X37320595Y-32045714D01*
X37415833Y-32093333D01*
X36987261Y-32664761D02*
X37082500Y-32712380D01*
X37320595Y-32712380D01*
X37415833Y-32664761D01*
X37463452Y-32569523D01*
X37463452Y-32474285D01*
X37415833Y-32379047D01*
X37320595Y-32331428D01*
X37082500Y-32331428D01*
X36987261Y-32283809D01*
X36511071Y-32712380D02*
X36511071Y-32045714D01*
X36511071Y-32236190D02*
X36463452Y-32140952D01*
X36415833Y-32093333D01*
X36320595Y-32045714D01*
X36225357Y-32045714D01*
X35463452Y-32712380D02*
X35463452Y-31712380D01*
X35463452Y-32664761D02*
X35558690Y-32712380D01*
X35749166Y-32712380D01*
X35844404Y-32664761D01*
X35892023Y-32617142D01*
X35939642Y-32521904D01*
X35939642Y-32236190D01*
X35892023Y-32140952D01*
X35844404Y-32093333D01*
X35749166Y-32045714D01*
X35558690Y-32045714D01*
X35463452Y-32093333D01*
X34225357Y-32712380D02*
X34225357Y-31712380D01*
X33987261Y-31712380D01*
X33844404Y-31760000D01*
X33749166Y-31855238D01*
X33701547Y-31950476D01*
X33653928Y-32140952D01*
X33653928Y-32283809D01*
X33701547Y-32474285D01*
X33749166Y-32569523D01*
X33844404Y-32664761D01*
X33987261Y-32712380D01*
X34225357Y-32712380D01*
X33225357Y-32712380D02*
X33225357Y-32045714D01*
X33225357Y-31712380D02*
X33272976Y-31760000D01*
X33225357Y-31807619D01*
X33177738Y-31760000D01*
X33225357Y-31712380D01*
X33225357Y-31807619D01*
X32796785Y-32664761D02*
X32701547Y-32712380D01*
X32511071Y-32712380D01*
X32415833Y-32664761D01*
X32368214Y-32569523D01*
X32368214Y-32521904D01*
X32415833Y-32426666D01*
X32511071Y-32379047D01*
X32653928Y-32379047D01*
X32749166Y-32331428D01*
X32796785Y-32236190D01*
X32796785Y-32188571D01*
X32749166Y-32093333D01*
X32653928Y-32045714D01*
X32511071Y-32045714D01*
X32415833Y-32093333D01*
X31939642Y-32045714D02*
X31939642Y-33045714D01*
X31939642Y-32093333D02*
X31844404Y-32045714D01*
X31653928Y-32045714D01*
X31558690Y-32093333D01*
X31511071Y-32140952D01*
X31463452Y-32236190D01*
X31463452Y-32521904D01*
X31511071Y-32617142D01*
X31558690Y-32664761D01*
X31653928Y-32712380D01*
X31844404Y-32712380D01*
X31939642Y-32664761D01*
X30892023Y-32712380D02*
X30987261Y-32664761D01*
X31034880Y-32569523D01*
X31034880Y-31712380D01*
X30082500Y-32712380D02*
X30082500Y-32188571D01*
X30130119Y-32093333D01*
X30225357Y-32045714D01*
X30415833Y-32045714D01*
X30511071Y-32093333D01*
X30082500Y-32664761D02*
X30177738Y-32712380D01*
X30415833Y-32712380D01*
X30511071Y-32664761D01*
X30558690Y-32569523D01*
X30558690Y-32474285D01*
X30511071Y-32379047D01*
X30415833Y-32331428D01*
X30177738Y-32331428D01*
X30082500Y-32283809D01*
X29701547Y-32045714D02*
X29463452Y-32712380D01*
X29225357Y-32045714D02*
X29463452Y-32712380D01*
X29558690Y-32950476D01*
X29606309Y-32998095D01*
X29701547Y-33045714D01*
X42511071Y-33838571D02*
X42368214Y-33886190D01*
X42320595Y-33933809D01*
X42272976Y-34029047D01*
X42272976Y-34171904D01*
X42320595Y-34267142D01*
X42368214Y-34314761D01*
X42463452Y-34362380D01*
X42844404Y-34362380D01*
X42844404Y-33362380D01*
X42511071Y-33362380D01*
X42415833Y-33410000D01*
X42368214Y-33457619D01*
X42320595Y-33552857D01*
X42320595Y-33648095D01*
X42368214Y-33743333D01*
X42415833Y-33790952D01*
X42511071Y-33838571D01*
X42844404Y-33838571D01*
X41463452Y-34314761D02*
X41558690Y-34362380D01*
X41749166Y-34362380D01*
X41844404Y-34314761D01*
X41892023Y-34219523D01*
X41892023Y-33838571D01*
X41844404Y-33743333D01*
X41749166Y-33695714D01*
X41558690Y-33695714D01*
X41463452Y-33743333D01*
X41415833Y-33838571D01*
X41415833Y-33933809D01*
X41892023Y-34029047D01*
X40558690Y-34362380D02*
X40558690Y-33838571D01*
X40606309Y-33743333D01*
X40701547Y-33695714D01*
X40892023Y-33695714D01*
X40987261Y-33743333D01*
X40558690Y-34314761D02*
X40653928Y-34362380D01*
X40892023Y-34362380D01*
X40987261Y-34314761D01*
X41034880Y-34219523D01*
X41034880Y-34124285D01*
X40987261Y-34029047D01*
X40892023Y-33981428D01*
X40653928Y-33981428D01*
X40558690Y-33933809D01*
X39653928Y-33695714D02*
X39653928Y-34505238D01*
X39701547Y-34600476D01*
X39749166Y-34648095D01*
X39844404Y-34695714D01*
X39987261Y-34695714D01*
X40082500Y-34648095D01*
X39653928Y-34314761D02*
X39749166Y-34362380D01*
X39939642Y-34362380D01*
X40034880Y-34314761D01*
X40082500Y-34267142D01*
X40130119Y-34171904D01*
X40130119Y-33886190D01*
X40082500Y-33790952D01*
X40034880Y-33743333D01*
X39939642Y-33695714D01*
X39749166Y-33695714D01*
X39653928Y-33743333D01*
X39034880Y-34362380D02*
X39130119Y-34314761D01*
X39177738Y-34219523D01*
X39177738Y-33362380D01*
X38272976Y-34314761D02*
X38368214Y-34362380D01*
X38558690Y-34362380D01*
X38653928Y-34314761D01*
X38701547Y-34219523D01*
X38701547Y-33838571D01*
X38653928Y-33743333D01*
X38558690Y-33695714D01*
X38368214Y-33695714D01*
X38272976Y-33743333D01*
X38225357Y-33838571D01*
X38225357Y-33933809D01*
X38701547Y-34029047D01*
X37463452Y-33838571D02*
X37320595Y-33886190D01*
X37272976Y-33933809D01*
X37225357Y-34029047D01*
X37225357Y-34171904D01*
X37272976Y-34267142D01*
X37320595Y-34314761D01*
X37415833Y-34362380D01*
X37796785Y-34362380D01*
X37796785Y-33362380D01*
X37463452Y-33362380D01*
X37368214Y-33410000D01*
X37320595Y-33457619D01*
X37272976Y-33552857D01*
X37272976Y-33648095D01*
X37320595Y-33743333D01*
X37368214Y-33790952D01*
X37463452Y-33838571D01*
X37796785Y-33838571D01*
X36653928Y-34362380D02*
X36749166Y-34314761D01*
X36796785Y-34267142D01*
X36844404Y-34171904D01*
X36844404Y-33886190D01*
X36796785Y-33790952D01*
X36749166Y-33743333D01*
X36653928Y-33695714D01*
X36511071Y-33695714D01*
X36415833Y-33743333D01*
X36368214Y-33790952D01*
X36320595Y-33886190D01*
X36320595Y-34171904D01*
X36368214Y-34267142D01*
X36415833Y-34314761D01*
X36511071Y-34362380D01*
X36653928Y-34362380D01*
X35892023Y-33695714D02*
X35892023Y-34362380D01*
X35892023Y-33790952D02*
X35844404Y-33743333D01*
X35749166Y-33695714D01*
X35606309Y-33695714D01*
X35511071Y-33743333D01*
X35463452Y-33838571D01*
X35463452Y-34362380D01*
X34606309Y-34314761D02*
X34701547Y-34362380D01*
X34892023Y-34362380D01*
X34987261Y-34314761D01*
X35034880Y-34219523D01*
X35034880Y-33838571D01*
X34987261Y-33743333D01*
X34892023Y-33695714D01*
X34701547Y-33695714D01*
X34606309Y-33743333D01*
X34558690Y-33838571D01*
X34558690Y-33933809D01*
X35034880Y-34029047D01*
X32796785Y-34267142D02*
X32844404Y-34314761D01*
X32987261Y-34362380D01*
X33082500Y-34362380D01*
X33225357Y-34314761D01*
X33320595Y-34219523D01*
X33368214Y-34124285D01*
X33415833Y-33933809D01*
X33415833Y-33790952D01*
X33368214Y-33600476D01*
X33320595Y-33505238D01*
X33225357Y-33410000D01*
X33082500Y-33362380D01*
X32987261Y-33362380D01*
X32844404Y-33410000D01*
X32796785Y-33457619D01*
X32415833Y-34076666D02*
X31939642Y-34076666D01*
X32511071Y-34362380D02*
X32177738Y-33362380D01*
X31844404Y-34362380D01*
X31511071Y-34362380D02*
X31511071Y-33362380D01*
X30939642Y-34362380D01*
X30939642Y-33362380D01*
X28892023Y-34362380D02*
X28939642Y-34362380D01*
X29034880Y-34314761D01*
X29177738Y-34171904D01*
X29415833Y-33886190D01*
X29511071Y-33743333D01*
X29558690Y-33600476D01*
X29558690Y-33505238D01*
X29511071Y-33410000D01*
X29415833Y-33362380D01*
X29368214Y-33362380D01*
X29272976Y-33410000D01*
X29225357Y-33505238D01*
X29225357Y-33552857D01*
X29272976Y-33648095D01*
X29320595Y-33695714D01*
X29606309Y-33886190D01*
X29653928Y-33933809D01*
X29701547Y-34029047D01*
X29701547Y-34171904D01*
X29653928Y-34267142D01*
X29606309Y-34314761D01*
X29511071Y-34362380D01*
X29368214Y-34362380D01*
X29272976Y-34314761D01*
X29225357Y-34267142D01*
X29082500Y-34076666D01*
X29034880Y-33933809D01*
X29034880Y-33838571D01*
X27225357Y-34362380D02*
X27701547Y-34362380D01*
X27701547Y-33362380D01*
X26320595Y-34267142D02*
X26368214Y-34314761D01*
X26511071Y-34362380D01*
X26606309Y-34362380D01*
X26749166Y-34314761D01*
X26844404Y-34219523D01*
X26892023Y-34124285D01*
X26939642Y-33933809D01*
X26939642Y-33790952D01*
X26892023Y-33600476D01*
X26844404Y-33505238D01*
X26749166Y-33410000D01*
X26606309Y-33362380D01*
X26511071Y-33362380D01*
X26368214Y-33410000D01*
X26320595Y-33457619D01*
X25892023Y-34362380D02*
X25892023Y-33362380D01*
X25653928Y-33362380D01*
X25511071Y-33410000D01*
X25415833Y-33505238D01*
X25368214Y-33600476D01*
X25320595Y-33790952D01*
X25320595Y-33933809D01*
X25368214Y-34124285D01*
X25415833Y-34219523D01*
X25511071Y-34314761D01*
X25653928Y-34362380D01*
X25892023Y-34362380D01*
X42987261Y-35012380D02*
X42653928Y-36012380D01*
X42320595Y-35012380D01*
X41606309Y-35964761D02*
X41701547Y-36012380D01*
X41892023Y-36012380D01*
X41987261Y-35964761D01*
X42034880Y-35869523D01*
X42034880Y-35488571D01*
X41987261Y-35393333D01*
X41892023Y-35345714D01*
X41701547Y-35345714D01*
X41606309Y-35393333D01*
X41558690Y-35488571D01*
X41558690Y-35583809D01*
X42034880Y-35679047D01*
X41130119Y-36012380D02*
X41130119Y-35345714D01*
X41130119Y-35536190D02*
X41082500Y-35440952D01*
X41034880Y-35393333D01*
X40939642Y-35345714D01*
X40844404Y-35345714D01*
X40558690Y-35964761D02*
X40463452Y-36012380D01*
X40272976Y-36012380D01*
X40177738Y-35964761D01*
X40130119Y-35869523D01*
X40130119Y-35821904D01*
X40177738Y-35726666D01*
X40272976Y-35679047D01*
X40415833Y-35679047D01*
X40511071Y-35631428D01*
X40558690Y-35536190D01*
X40558690Y-35488571D01*
X40511071Y-35393333D01*
X40415833Y-35345714D01*
X40272976Y-35345714D01*
X40177738Y-35393333D01*
X39701547Y-36012380D02*
X39701547Y-35345714D01*
X39701547Y-35012380D02*
X39749166Y-35060000D01*
X39701547Y-35107619D01*
X39653928Y-35060000D01*
X39701547Y-35012380D01*
X39701547Y-35107619D01*
X39082500Y-36012380D02*
X39177738Y-35964761D01*
X39225357Y-35917142D01*
X39272976Y-35821904D01*
X39272976Y-35536190D01*
X39225357Y-35440952D01*
X39177738Y-35393333D01*
X39082500Y-35345714D01*
X38939642Y-35345714D01*
X38844404Y-35393333D01*
X38796785Y-35440952D01*
X38749166Y-35536190D01*
X38749166Y-35821904D01*
X38796785Y-35917142D01*
X38844404Y-35964761D01*
X38939642Y-36012380D01*
X39082500Y-36012380D01*
X38320595Y-35345714D02*
X38320595Y-36012380D01*
X38320595Y-35440952D02*
X38272976Y-35393333D01*
X38177738Y-35345714D01*
X38034880Y-35345714D01*
X37939642Y-35393333D01*
X37892023Y-35488571D01*
X37892023Y-36012380D01*
X37415833Y-35917142D02*
X37368214Y-35964761D01*
X37415833Y-36012380D01*
X37463452Y-35964761D01*
X37415833Y-35917142D01*
X37415833Y-36012380D01*
X37415833Y-35393333D02*
X37368214Y-35440952D01*
X37415833Y-35488571D01*
X37463452Y-35440952D01*
X37415833Y-35393333D01*
X37415833Y-35488571D01*
X35606309Y-36012380D02*
X35939642Y-35536190D01*
X36177738Y-36012380D02*
X36177738Y-35012380D01*
X35796785Y-35012380D01*
X35701547Y-35060000D01*
X35653928Y-35107619D01*
X35606309Y-35202857D01*
X35606309Y-35345714D01*
X35653928Y-35440952D01*
X35701547Y-35488571D01*
X35796785Y-35536190D01*
X36177738Y-35536190D01*
X34796785Y-35964761D02*
X34892023Y-36012380D01*
X35082500Y-36012380D01*
X35177738Y-35964761D01*
X35225357Y-35869523D01*
X35225357Y-35488571D01*
X35177738Y-35393333D01*
X35082500Y-35345714D01*
X34892023Y-35345714D01*
X34796785Y-35393333D01*
X34749166Y-35488571D01*
X34749166Y-35583809D01*
X35225357Y-35679047D01*
X34415833Y-35345714D02*
X34177738Y-36012380D01*
X33939642Y-35345714D01*
X32844404Y-35726666D02*
X32368214Y-35726666D01*
X32939642Y-36012380D02*
X32606309Y-35012380D01*
X32272976Y-36012380D01*
X42844404Y-37662380D02*
X42844404Y-36662380D01*
X42606309Y-36662380D01*
X42463452Y-36710000D01*
X42368214Y-36805238D01*
X42320595Y-36900476D01*
X42272976Y-37090952D01*
X42272976Y-37233809D01*
X42320595Y-37424285D01*
X42368214Y-37519523D01*
X42463452Y-37614761D01*
X42606309Y-37662380D01*
X42844404Y-37662380D01*
X41463452Y-37614761D02*
X41558690Y-37662380D01*
X41749166Y-37662380D01*
X41844404Y-37614761D01*
X41892023Y-37519523D01*
X41892023Y-37138571D01*
X41844404Y-37043333D01*
X41749166Y-36995714D01*
X41558690Y-36995714D01*
X41463452Y-37043333D01*
X41415833Y-37138571D01*
X41415833Y-37233809D01*
X41892023Y-37329047D01*
X41034880Y-37614761D02*
X40939642Y-37662380D01*
X40749166Y-37662380D01*
X40653928Y-37614761D01*
X40606309Y-37519523D01*
X40606309Y-37471904D01*
X40653928Y-37376666D01*
X40749166Y-37329047D01*
X40892023Y-37329047D01*
X40987261Y-37281428D01*
X41034880Y-37186190D01*
X41034880Y-37138571D01*
X40987261Y-37043333D01*
X40892023Y-36995714D01*
X40749166Y-36995714D01*
X40653928Y-37043333D01*
X40177738Y-37662380D02*
X40177738Y-36995714D01*
X40177738Y-36662380D02*
X40225357Y-36710000D01*
X40177738Y-36757619D01*
X40130119Y-36710000D01*
X40177738Y-36662380D01*
X40177738Y-36757619D01*
X39272976Y-36995714D02*
X39272976Y-37805238D01*
X39320595Y-37900476D01*
X39368214Y-37948095D01*
X39463452Y-37995714D01*
X39606309Y-37995714D01*
X39701547Y-37948095D01*
X39272976Y-37614761D02*
X39368214Y-37662380D01*
X39558690Y-37662380D01*
X39653928Y-37614761D01*
X39701547Y-37567142D01*
X39749166Y-37471904D01*
X39749166Y-37186190D01*
X39701547Y-37090952D01*
X39653928Y-37043333D01*
X39558690Y-36995714D01*
X39368214Y-36995714D01*
X39272976Y-37043333D01*
X38796785Y-36995714D02*
X38796785Y-37662380D01*
X38796785Y-37090952D02*
X38749166Y-37043333D01*
X38653928Y-36995714D01*
X38511071Y-36995714D01*
X38415833Y-37043333D01*
X38368214Y-37138571D01*
X38368214Y-37662380D01*
X37511071Y-37614761D02*
X37606309Y-37662380D01*
X37796785Y-37662380D01*
X37892023Y-37614761D01*
X37939642Y-37519523D01*
X37939642Y-37138571D01*
X37892023Y-37043333D01*
X37796785Y-36995714D01*
X37606309Y-36995714D01*
X37511071Y-37043333D01*
X37463452Y-37138571D01*
X37463452Y-37233809D01*
X37939642Y-37329047D01*
X36606309Y-37662380D02*
X36606309Y-36662380D01*
X36606309Y-37614761D02*
X36701547Y-37662380D01*
X36892023Y-37662380D01*
X36987261Y-37614761D01*
X37034880Y-37567142D01*
X37082500Y-37471904D01*
X37082500Y-37186190D01*
X37034880Y-37090952D01*
X36987261Y-37043333D01*
X36892023Y-36995714D01*
X36701547Y-36995714D01*
X36606309Y-37043333D01*
X35368214Y-37662380D02*
X35368214Y-36662380D01*
X35368214Y-37043333D02*
X35272976Y-36995714D01*
X35082500Y-36995714D01*
X34987261Y-37043333D01*
X34939642Y-37090952D01*
X34892023Y-37186190D01*
X34892023Y-37471904D01*
X34939642Y-37567142D01*
X34987261Y-37614761D01*
X35082500Y-37662380D01*
X35272976Y-37662380D01*
X35368214Y-37614761D01*
X34558690Y-36995714D02*
X34320595Y-37662380D01*
X34082500Y-36995714D02*
X34320595Y-37662380D01*
X34415833Y-37900476D01*
X34463452Y-37948095D01*
X34558690Y-37995714D01*
X33701547Y-37567142D02*
X33653928Y-37614761D01*
X33701547Y-37662380D01*
X33749166Y-37614761D01*
X33701547Y-37567142D01*
X33701547Y-37662380D01*
X33701547Y-37043333D02*
X33653928Y-37090952D01*
X33701547Y-37138571D01*
X33749166Y-37090952D01*
X33701547Y-37043333D01*
X33701547Y-37138571D01*
X32511071Y-37376666D02*
X32034880Y-37376666D01*
X32606309Y-37662380D02*
X32272976Y-36662380D01*
X31939642Y-37662380D01*
X31606309Y-36995714D02*
X31606309Y-37662380D01*
X31606309Y-37090952D02*
X31558690Y-37043333D01*
X31463452Y-36995714D01*
X31320595Y-36995714D01*
X31225357Y-37043333D01*
X31177738Y-37138571D01*
X31177738Y-37662380D01*
X30272976Y-37662380D02*
X30272976Y-36662380D01*
X30272976Y-37614761D02*
X30368214Y-37662380D01*
X30558690Y-37662380D01*
X30653928Y-37614761D01*
X30701547Y-37567142D01*
X30749166Y-37471904D01*
X30749166Y-37186190D01*
X30701547Y-37090952D01*
X30653928Y-37043333D01*
X30558690Y-36995714D01*
X30368214Y-36995714D01*
X30272976Y-37043333D01*
X29796785Y-37662380D02*
X29796785Y-36995714D01*
X29796785Y-37186190D02*
X29749166Y-37090952D01*
X29701547Y-37043333D01*
X29606309Y-36995714D01*
X29511071Y-36995714D01*
X28796785Y-37614761D02*
X28892023Y-37662380D01*
X29082500Y-37662380D01*
X29177738Y-37614761D01*
X29225357Y-37519523D01*
X29225357Y-37138571D01*
X29177738Y-37043333D01*
X29082500Y-36995714D01*
X28892023Y-36995714D01*
X28796785Y-37043333D01*
X28749166Y-37138571D01*
X28749166Y-37233809D01*
X29225357Y-37329047D01*
X28415833Y-36995714D02*
X28225357Y-37662380D01*
X28034880Y-37186190D01*
X27844404Y-37662380D01*
X27653928Y-36995714D01*
X25939642Y-37567142D02*
X25987261Y-37614761D01*
X26130119Y-37662380D01*
X26225357Y-37662380D01*
X26368214Y-37614761D01*
X26463452Y-37519523D01*
X26511071Y-37424285D01*
X26558690Y-37233809D01*
X26558690Y-37090952D01*
X26511071Y-36900476D01*
X26463452Y-36805238D01*
X26368214Y-36710000D01*
X26225357Y-36662380D01*
X26130119Y-36662380D01*
X25987261Y-36710000D01*
X25939642Y-36757619D01*
X25511071Y-37662380D02*
X25511071Y-36662380D01*
X25082500Y-37662380D02*
X25082500Y-37138571D01*
X25130119Y-37043333D01*
X25225357Y-36995714D01*
X25368214Y-36995714D01*
X25463452Y-37043333D01*
X25511071Y-37090952D01*
X24225357Y-37614761D02*
X24320595Y-37662380D01*
X24511071Y-37662380D01*
X24606309Y-37614761D01*
X24653928Y-37519523D01*
X24653928Y-37138571D01*
X24606309Y-37043333D01*
X24511071Y-36995714D01*
X24320595Y-36995714D01*
X24225357Y-37043333D01*
X24177738Y-37138571D01*
X24177738Y-37233809D01*
X24653928Y-37329047D01*
X23749166Y-36995714D02*
X23749166Y-37662380D01*
X23749166Y-37090952D02*
X23701547Y-37043333D01*
X23606309Y-36995714D01*
X23463452Y-36995714D01*
X23368214Y-37043333D01*
X23320595Y-37138571D01*
X23320595Y-37662380D01*
X42844404Y-39312380D02*
X42844404Y-38312380D01*
X42606309Y-38312380D01*
X42463452Y-38360000D01*
X42368214Y-38455238D01*
X42320595Y-38550476D01*
X42272976Y-38740952D01*
X42272976Y-38883809D01*
X42320595Y-39074285D01*
X42368214Y-39169523D01*
X42463452Y-39264761D01*
X42606309Y-39312380D01*
X42844404Y-39312380D01*
X41415833Y-39312380D02*
X41415833Y-38788571D01*
X41463452Y-38693333D01*
X41558690Y-38645714D01*
X41749166Y-38645714D01*
X41844404Y-38693333D01*
X41415833Y-39264761D02*
X41511071Y-39312380D01*
X41749166Y-39312380D01*
X41844404Y-39264761D01*
X41892023Y-39169523D01*
X41892023Y-39074285D01*
X41844404Y-38979047D01*
X41749166Y-38931428D01*
X41511071Y-38931428D01*
X41415833Y-38883809D01*
X41082500Y-38645714D02*
X40701547Y-38645714D01*
X40939642Y-38312380D02*
X40939642Y-39169523D01*
X40892023Y-39264761D01*
X40796785Y-39312380D01*
X40701547Y-39312380D01*
X39987261Y-39264761D02*
X40082500Y-39312380D01*
X40272976Y-39312380D01*
X40368214Y-39264761D01*
X40415833Y-39169523D01*
X40415833Y-38788571D01*
X40368214Y-38693333D01*
X40272976Y-38645714D01*
X40082500Y-38645714D01*
X39987261Y-38693333D01*
X39939642Y-38788571D01*
X39939642Y-38883809D01*
X40415833Y-38979047D01*
X39511071Y-39217142D02*
X39463452Y-39264761D01*
X39511071Y-39312380D01*
X39558690Y-39264761D01*
X39511071Y-39217142D01*
X39511071Y-39312380D01*
X39511071Y-38693333D02*
X39463452Y-38740952D01*
X39511071Y-38788571D01*
X39558690Y-38740952D01*
X39511071Y-38693333D01*
X39511071Y-38788571D01*
X38320595Y-38407619D02*
X38272976Y-38360000D01*
X38177738Y-38312380D01*
X37939642Y-38312380D01*
X37844404Y-38360000D01*
X37796785Y-38407619D01*
X37749166Y-38502857D01*
X37749166Y-38598095D01*
X37796785Y-38740952D01*
X38368214Y-39312380D01*
X37749166Y-39312380D01*
X37130119Y-38312380D02*
X37034880Y-38312380D01*
X36939642Y-38360000D01*
X36892023Y-38407619D01*
X36844404Y-38502857D01*
X36796785Y-38693333D01*
X36796785Y-38931428D01*
X36844404Y-39121904D01*
X36892023Y-39217142D01*
X36939642Y-39264761D01*
X37034880Y-39312380D01*
X37130119Y-39312380D01*
X37225357Y-39264761D01*
X37272976Y-39217142D01*
X37320595Y-39121904D01*
X37368214Y-38931428D01*
X37368214Y-38693333D01*
X37320595Y-38502857D01*
X37272976Y-38407619D01*
X37225357Y-38360000D01*
X37130119Y-38312380D01*
X36415833Y-38407619D02*
X36368214Y-38360000D01*
X36272976Y-38312380D01*
X36034880Y-38312380D01*
X35939642Y-38360000D01*
X35892023Y-38407619D01*
X35844404Y-38502857D01*
X35844404Y-38598095D01*
X35892023Y-38740952D01*
X36463452Y-39312380D01*
X35844404Y-39312380D01*
X35225357Y-38312380D02*
X35130119Y-38312380D01*
X35034880Y-38360000D01*
X34987261Y-38407619D01*
X34939642Y-38502857D01*
X34892023Y-38693333D01*
X34892023Y-38931428D01*
X34939642Y-39121904D01*
X34987261Y-39217142D01*
X35034880Y-39264761D01*
X35130119Y-39312380D01*
X35225357Y-39312380D01*
X35320595Y-39264761D01*
X35368214Y-39217142D01*
X35415833Y-39121904D01*
X35463452Y-38931428D01*
X35463452Y-38693333D01*
X35415833Y-38502857D01*
X35368214Y-38407619D01*
X35320595Y-38360000D01*
X35225357Y-38312380D01*
X34463452Y-38931428D02*
X33701547Y-38931428D01*
X33034880Y-38312380D02*
X32939642Y-38312380D01*
X32844404Y-38360000D01*
X32796785Y-38407619D01*
X32749166Y-38502857D01*
X32701547Y-38693333D01*
X32701547Y-38931428D01*
X32749166Y-39121904D01*
X32796785Y-39217142D01*
X32844404Y-39264761D01*
X32939642Y-39312380D01*
X33034880Y-39312380D01*
X33130119Y-39264761D01*
X33177738Y-39217142D01*
X33225357Y-39121904D01*
X33272976Y-38931428D01*
X33272976Y-38693333D01*
X33225357Y-38502857D01*
X33177738Y-38407619D01*
X33130119Y-38360000D01*
X33034880Y-38312380D01*
X32368214Y-38312380D02*
X31749166Y-38312380D01*
X32082500Y-38693333D01*
X31939642Y-38693333D01*
X31844404Y-38740952D01*
X31796785Y-38788571D01*
X31749166Y-38883809D01*
X31749166Y-39121904D01*
X31796785Y-39217142D01*
X31844404Y-39264761D01*
X31939642Y-39312380D01*
X32225357Y-39312380D01*
X32320595Y-39264761D01*
X32368214Y-39217142D01*
X31320595Y-38931428D02*
X30558690Y-38931428D01*
X29892023Y-38312380D02*
X29796785Y-38312380D01*
X29701547Y-38360000D01*
X29653928Y-38407619D01*
X29606309Y-38502857D01*
X29558690Y-38693333D01*
X29558690Y-38931428D01*
X29606309Y-39121904D01*
X29653928Y-39217142D01*
X29701547Y-39264761D01*
X29796785Y-39312380D01*
X29892023Y-39312380D01*
X29987261Y-39264761D01*
X30034880Y-39217142D01*
X30082500Y-39121904D01*
X30130119Y-38931428D01*
X30130119Y-38693333D01*
X30082500Y-38502857D01*
X30034880Y-38407619D01*
X29987261Y-38360000D01*
X29892023Y-38312380D01*
X28701547Y-38312380D02*
X28892023Y-38312380D01*
X28987261Y-38360000D01*
X29034880Y-38407619D01*
X29130119Y-38550476D01*
X29177738Y-38740952D01*
X29177738Y-39121904D01*
X29130119Y-39217142D01*
X29082500Y-39264761D01*
X28987261Y-39312380D01*
X28796785Y-39312380D01*
X28701547Y-39264761D01*
X28653928Y-39217142D01*
X28606309Y-39121904D01*
X28606309Y-38883809D01*
X28653928Y-38788571D01*
X28701547Y-38740952D01*
X28796785Y-38693333D01*
X28987261Y-38693333D01*
X29082500Y-38740952D01*
X29130119Y-38788571D01*
X29177738Y-38883809D01*
D11*
X13740000Y-17780000D02*
X14510000Y-17780000D01*
X21820000Y-17780000D02*
X21050000Y-17780000D01*
X14510000Y-16410000D02*
X21050000Y-16410000D01*
X14510000Y-19150000D02*
X14510000Y-16410000D01*
X21050000Y-19150000D02*
X14510000Y-19150000D01*
X21050000Y-16410000D02*
X21050000Y-19150000D01*
X45990000Y-36192000D02*
X45990000Y-38992000D01*
X45990000Y-38992000D02*
X47990000Y-38992000D01*
X47990000Y-38992000D02*
X47990000Y-36192000D01*
X47990000Y-36192000D02*
X45990000Y-36192000D01*
X22370000Y-73380000D02*
X21970000Y-73380000D01*
X22370000Y-72740000D02*
X22370000Y-73380000D01*
X14465000Y-69521000D02*
X14594000Y-69649000D01*
X12250000Y-67305000D02*
X12344000Y-67399000D01*
X14295000Y-69761000D02*
X14389000Y-69854000D01*
X12045000Y-67511000D02*
X12174000Y-67639000D01*
X17965000Y-69521000D02*
X18094000Y-69649000D01*
X15750000Y-67305000D02*
X15844000Y-67399000D01*
X17795000Y-69761000D02*
X17889000Y-69854000D01*
X15545000Y-67511000D02*
X15674000Y-67639000D01*
X11510000Y-65420000D02*
X11510000Y-73140000D01*
X22130000Y-65420000D02*
X22130000Y-73140000D01*
X22130000Y-73140000D02*
X11510000Y-73140000D01*
X22130000Y-65420000D02*
X11510000Y-65420000D01*
X22130000Y-71580000D02*
X11510000Y-71580000D01*
X22130000Y-72680000D02*
X11510000Y-72680000D01*
X15000000Y-68580000D02*
G75*
G03X15000000Y-68580000I-1680000J0D01*
G01*
X18500000Y-68580000D02*
G75*
G03X18500000Y-68580000I-1680000J0D01*
G01*
X20291326Y-70260099D02*
G75*
G03X21186000Y-70020000I28674J1680099D01*
G01*
X21745358Y-69469894D02*
G75*
G03X21760000Y-67714000I-1425358J889894D01*
G01*
X21209894Y-67154642D02*
G75*
G03X19454000Y-67140000I-889894J-1425358D01*
G01*
X18894495Y-67689807D02*
G75*
G03X18895000Y-69471000I1425505J-890193D01*
G01*
X19429736Y-70004721D02*
G75*
G03X20320000Y-70260000I890264J1424721D01*
G01*
X27120000Y-56750000D02*
X27120000Y-57550000D01*
X23680000Y-56750000D02*
X23680000Y-57550000D01*
X30930000Y-56750000D02*
X30930000Y-57550000D01*
X27490000Y-56750000D02*
X27490000Y-57550000D01*
X34740000Y-56750000D02*
X34740000Y-57550000D01*
X31300000Y-56750000D02*
X31300000Y-57550000D01*
X38550000Y-56750000D02*
X38550000Y-57550000D01*
X35110000Y-56750000D02*
X35110000Y-57550000D01*
X42360000Y-56750000D02*
X42360000Y-57550000D01*
X38920000Y-56750000D02*
X38920000Y-57550000D01*
X46170000Y-56750000D02*
X46170000Y-57550000D01*
X42730000Y-56750000D02*
X42730000Y-57550000D01*
X29140000Y-22860000D02*
G75*
G03X29140000Y-22860000I-1200000J0D01*
G01*
X49460000Y-25400000D02*
G75*
G03X49460000Y-25400000I-1200000J0D01*
G01*
X49460000Y-20320000D02*
G75*
G03X49460000Y-20320000I-1200000J0D01*
G01*
X49460000Y-17780000D02*
G75*
G03X49460000Y-17780000I-1200000J0D01*
G01*
X49460000Y-22860000D02*
G75*
G03X49460000Y-22860000I-1200000J0D01*
G01*
X29140000Y-25400000D02*
G75*
G03X29140000Y-25400000I-1200000J0D01*
G01*
X36125000Y-43180000D02*
G75*
G03X36125000Y-43180000I-1200000J0D01*
G01*
X36125000Y-45720000D02*
G75*
G03X36125000Y-45720000I-1200000J0D01*
G01*
X48190000Y-33020000D02*
G75*
G03X48190000Y-33020000I-1200000J0D01*
G01*
X49980000Y-56750000D02*
X49980000Y-57550000D01*
X46540000Y-56750000D02*
X46540000Y-57550000D01*
X46990000Y-64740000D02*
X46990000Y-63540000D01*
X25180000Y-70540000D02*
X25180000Y-68800000D01*
X48480000Y-70540000D02*
X25180000Y-70540000D01*
X48480000Y-68800000D02*
X48480000Y-70540000D01*
X25180000Y-64740000D02*
X25180000Y-66080000D01*
X26670000Y-64740000D02*
X25180000Y-64740000D01*
X48480000Y-64740000D02*
X48480000Y-66080000D01*
X46990000Y-64740000D02*
X48480000Y-64740000D01*
X39090000Y-11235000D02*
X41500000Y-11235000D01*
X39090000Y-8825000D02*
X39090000Y-11235000D01*
X49510000Y-10935000D02*
X39390000Y-10935000D01*
X49510000Y-2815000D02*
X49510000Y-10935000D01*
X39390000Y-2815000D02*
X49510000Y-2815000D01*
X39390000Y-10935000D02*
X39390000Y-2815000D01*
X9840000Y-11235000D02*
X12250000Y-11235000D01*
X9840000Y-8825000D02*
X9840000Y-11235000D01*
X17760000Y-10935000D02*
X10140000Y-10935000D01*
X17760000Y-2815000D02*
X17760000Y-10935000D01*
X10140000Y-2815000D02*
X17760000Y-2815000D01*
X10140000Y-10935000D02*
X10140000Y-2815000D01*
X23330000Y-28295000D02*
X22930000Y-28295000D01*
X23330000Y-27655000D02*
X23330000Y-28295000D01*
X18925000Y-24436000D02*
X19054000Y-24564000D01*
X16710000Y-22220000D02*
X16804000Y-22314000D01*
X18755000Y-24676000D02*
X18849000Y-24769000D01*
X16505000Y-22426000D02*
X16634000Y-22554000D01*
X15970000Y-20335000D02*
X15970000Y-28055000D01*
X23090000Y-20335000D02*
X23090000Y-28055000D01*
X23090000Y-28055000D02*
X15970000Y-28055000D01*
X23090000Y-20335000D02*
X15970000Y-20335000D01*
X23090000Y-26495000D02*
X15970000Y-26495000D01*
X23090000Y-27595000D02*
X15970000Y-27595000D01*
X19460000Y-23495000D02*
G75*
G03X19460000Y-23495000I-1680000J0D01*
G01*
X21251326Y-25175099D02*
G75*
G03X22146000Y-24935000I28674J1680099D01*
G01*
X22705358Y-24384894D02*
G75*
G03X22720000Y-22629000I-1425358J889894D01*
G01*
X22169894Y-22069642D02*
G75*
G03X20414000Y-22055000I-889894J-1425358D01*
G01*
X19854495Y-22604807D02*
G75*
G03X19855000Y-24386000I1425505J-890193D01*
G01*
X20389736Y-24919721D02*
G75*
G03X21280000Y-25175000I890264J1424721D01*
G01*
D10*
X18113333Y-15338571D02*
X18446666Y-15338571D01*
X18446666Y-15862380D02*
X18446666Y-14862380D01*
X17970476Y-14862380D01*
X17065714Y-15862380D02*
X17637142Y-15862380D01*
X17351428Y-15862380D02*
X17351428Y-14862380D01*
X17446666Y-15005238D01*
X17541904Y-15100476D01*
X17637142Y-15148095D01*
X44642380Y-36758666D02*
X45356666Y-36758666D01*
X45499523Y-36711047D01*
X45594761Y-36615809D01*
X45642380Y-36472952D01*
X45642380Y-36377714D01*
X45642380Y-37234857D02*
X44642380Y-37234857D01*
X44642380Y-37615809D01*
X44690000Y-37711047D01*
X44737619Y-37758666D01*
X44832857Y-37806285D01*
X44975714Y-37806285D01*
X45070952Y-37758666D01*
X45118571Y-37711047D01*
X45166190Y-37615809D01*
X45166190Y-37234857D01*
X45642380Y-38758666D02*
X45642380Y-38187238D01*
X45642380Y-38472952D02*
X44642380Y-38472952D01*
X44785238Y-38377714D01*
X44880476Y-38282476D01*
X44928095Y-38187238D01*
X10493333Y-65492380D02*
X10493333Y-66206666D01*
X10540952Y-66349523D01*
X10636190Y-66444761D01*
X10779047Y-66492380D01*
X10874285Y-66492380D01*
X10112380Y-65492380D02*
X9493333Y-65492380D01*
X9826666Y-65873333D01*
X9683809Y-65873333D01*
X9588571Y-65920952D01*
X9540952Y-65968571D01*
X9493333Y-66063809D01*
X9493333Y-66301904D01*
X9540952Y-66397142D01*
X9588571Y-66444761D01*
X9683809Y-66492380D01*
X9969523Y-66492380D01*
X10064761Y-66444761D01*
X10112380Y-66397142D01*
X26090476Y-55316380D02*
X26423809Y-54840190D01*
X26661904Y-55316380D02*
X26661904Y-54316380D01*
X26280952Y-54316380D01*
X26185714Y-54364000D01*
X26138095Y-54411619D01*
X26090476Y-54506857D01*
X26090476Y-54649714D01*
X26138095Y-54744952D01*
X26185714Y-54792571D01*
X26280952Y-54840190D01*
X26661904Y-54840190D01*
X25661904Y-55316380D02*
X25661904Y-54316380D01*
X25090476Y-55316380D01*
X25090476Y-54316380D01*
X24709523Y-54316380D02*
X24042857Y-54316380D01*
X24471428Y-55316380D01*
X29900476Y-55316380D02*
X30233809Y-54840190D01*
X30471904Y-55316380D02*
X30471904Y-54316380D01*
X30090952Y-54316380D01*
X29995714Y-54364000D01*
X29948095Y-54411619D01*
X29900476Y-54506857D01*
X29900476Y-54649714D01*
X29948095Y-54744952D01*
X29995714Y-54792571D01*
X30090952Y-54840190D01*
X30471904Y-54840190D01*
X29471904Y-55316380D02*
X29471904Y-54316380D01*
X28900476Y-55316380D01*
X28900476Y-54316380D01*
X27995714Y-54316380D02*
X28186190Y-54316380D01*
X28281428Y-54364000D01*
X28329047Y-54411619D01*
X28424285Y-54554476D01*
X28471904Y-54744952D01*
X28471904Y-55125904D01*
X28424285Y-55221142D01*
X28376666Y-55268761D01*
X28281428Y-55316380D01*
X28090952Y-55316380D01*
X27995714Y-55268761D01*
X27948095Y-55221142D01*
X27900476Y-55125904D01*
X27900476Y-54887809D01*
X27948095Y-54792571D01*
X27995714Y-54744952D01*
X28090952Y-54697333D01*
X28281428Y-54697333D01*
X28376666Y-54744952D01*
X28424285Y-54792571D01*
X28471904Y-54887809D01*
X33710476Y-55316380D02*
X34043809Y-54840190D01*
X34281904Y-55316380D02*
X34281904Y-54316380D01*
X33900952Y-54316380D01*
X33805714Y-54364000D01*
X33758095Y-54411619D01*
X33710476Y-54506857D01*
X33710476Y-54649714D01*
X33758095Y-54744952D01*
X33805714Y-54792571D01*
X33900952Y-54840190D01*
X34281904Y-54840190D01*
X33281904Y-55316380D02*
X33281904Y-54316380D01*
X32710476Y-55316380D01*
X32710476Y-54316380D01*
X31758095Y-54316380D02*
X32234285Y-54316380D01*
X32281904Y-54792571D01*
X32234285Y-54744952D01*
X32139047Y-54697333D01*
X31900952Y-54697333D01*
X31805714Y-54744952D01*
X31758095Y-54792571D01*
X31710476Y-54887809D01*
X31710476Y-55125904D01*
X31758095Y-55221142D01*
X31805714Y-55268761D01*
X31900952Y-55316380D01*
X32139047Y-55316380D01*
X32234285Y-55268761D01*
X32281904Y-55221142D01*
X37520476Y-55316380D02*
X37853809Y-54840190D01*
X38091904Y-55316380D02*
X38091904Y-54316380D01*
X37710952Y-54316380D01*
X37615714Y-54364000D01*
X37568095Y-54411619D01*
X37520476Y-54506857D01*
X37520476Y-54649714D01*
X37568095Y-54744952D01*
X37615714Y-54792571D01*
X37710952Y-54840190D01*
X38091904Y-54840190D01*
X37091904Y-55316380D02*
X37091904Y-54316380D01*
X36520476Y-55316380D01*
X36520476Y-54316380D01*
X35615714Y-54649714D02*
X35615714Y-55316380D01*
X35853809Y-54268761D02*
X36091904Y-54983047D01*
X35472857Y-54983047D01*
X41584476Y-55316380D02*
X41917809Y-54840190D01*
X42155904Y-55316380D02*
X42155904Y-54316380D01*
X41774952Y-54316380D01*
X41679714Y-54364000D01*
X41632095Y-54411619D01*
X41584476Y-54506857D01*
X41584476Y-54649714D01*
X41632095Y-54744952D01*
X41679714Y-54792571D01*
X41774952Y-54840190D01*
X42155904Y-54840190D01*
X41155904Y-55316380D02*
X41155904Y-54316380D01*
X40584476Y-55316380D01*
X40584476Y-54316380D01*
X40203523Y-54316380D02*
X39584476Y-54316380D01*
X39917809Y-54697333D01*
X39774952Y-54697333D01*
X39679714Y-54744952D01*
X39632095Y-54792571D01*
X39584476Y-54887809D01*
X39584476Y-55125904D01*
X39632095Y-55221142D01*
X39679714Y-55268761D01*
X39774952Y-55316380D01*
X40060666Y-55316380D01*
X40155904Y-55268761D01*
X40203523Y-55221142D01*
X45140476Y-55316380D02*
X45473809Y-54840190D01*
X45711904Y-55316380D02*
X45711904Y-54316380D01*
X45330952Y-54316380D01*
X45235714Y-54364000D01*
X45188095Y-54411619D01*
X45140476Y-54506857D01*
X45140476Y-54649714D01*
X45188095Y-54744952D01*
X45235714Y-54792571D01*
X45330952Y-54840190D01*
X45711904Y-54840190D01*
X44711904Y-55316380D02*
X44711904Y-54316380D01*
X44140476Y-55316380D01*
X44140476Y-54316380D01*
X43711904Y-54411619D02*
X43664285Y-54364000D01*
X43569047Y-54316380D01*
X43330952Y-54316380D01*
X43235714Y-54364000D01*
X43188095Y-54411619D01*
X43140476Y-54506857D01*
X43140476Y-54602095D01*
X43188095Y-54744952D01*
X43759523Y-55316380D01*
X43140476Y-55316380D01*
X48950476Y-55316380D02*
X49283809Y-54840190D01*
X49521904Y-55316380D02*
X49521904Y-54316380D01*
X49140952Y-54316380D01*
X49045714Y-54364000D01*
X48998095Y-54411619D01*
X48950476Y-54506857D01*
X48950476Y-54649714D01*
X48998095Y-54744952D01*
X49045714Y-54792571D01*
X49140952Y-54840190D01*
X49521904Y-54840190D01*
X48521904Y-55316380D02*
X48521904Y-54316380D01*
X47950476Y-55316380D01*
X47950476Y-54316380D01*
X46950476Y-55316380D02*
X47521904Y-55316380D01*
X47236190Y-55316380D02*
X47236190Y-54316380D01*
X47331428Y-54459238D01*
X47426666Y-54554476D01*
X47521904Y-54602095D01*
X37163333Y-61792380D02*
X37163333Y-62506666D01*
X37210952Y-62649523D01*
X37306190Y-62744761D01*
X37449047Y-62792380D01*
X37544285Y-62792380D01*
X36258571Y-61792380D02*
X36449047Y-61792380D01*
X36544285Y-61840000D01*
X36591904Y-61887619D01*
X36687142Y-62030476D01*
X36734761Y-62220952D01*
X36734761Y-62601904D01*
X36687142Y-62697142D01*
X36639523Y-62744761D01*
X36544285Y-62792380D01*
X36353809Y-62792380D01*
X36258571Y-62744761D01*
X36210952Y-62697142D01*
X36163333Y-62601904D01*
X36163333Y-62363809D01*
X36210952Y-62268571D01*
X36258571Y-62220952D01*
X36353809Y-62173333D01*
X36544285Y-62173333D01*
X36639523Y-62220952D01*
X36687142Y-62268571D01*
X36734761Y-62363809D01*
X38433333Y-10247380D02*
X38433333Y-10961666D01*
X38480952Y-11104523D01*
X38576190Y-11199761D01*
X38719047Y-11247380D01*
X38814285Y-11247380D01*
X37528571Y-10580714D02*
X37528571Y-11247380D01*
X37766666Y-10199761D02*
X38004761Y-10914047D01*
X37385714Y-10914047D01*
X19383333Y-10247380D02*
X19383333Y-10961666D01*
X19430952Y-11104523D01*
X19526190Y-11199761D01*
X19669047Y-11247380D01*
X19764285Y-11247380D01*
X18954761Y-10342619D02*
X18907142Y-10295000D01*
X18811904Y-10247380D01*
X18573809Y-10247380D01*
X18478571Y-10295000D01*
X18430952Y-10342619D01*
X18383333Y-10437857D01*
X18383333Y-10533095D01*
X18430952Y-10675952D01*
X19002380Y-11247380D01*
X18383333Y-11247380D01*
X14938333Y-26757380D02*
X14938333Y-27471666D01*
X14985952Y-27614523D01*
X15081190Y-27709761D01*
X15224047Y-27757380D01*
X15319285Y-27757380D01*
X13938333Y-27757380D02*
X14509761Y-27757380D01*
X14224047Y-27757380D02*
X14224047Y-26757380D01*
X14319285Y-26900238D01*
X14414523Y-26995476D01*
X14509761Y-27043095D01*
M02*
