%TF.GenerationSoftware,KiCad,Pcbnew,5.1.10*%
%TF.CreationDate,2021-06-02T18:32:35+01:00*%
%TF.ProjectId,BB_Dash_Display,42425f44-6173-4685-9f44-6973706c6179,A3*%
%TF.SameCoordinates,PX43d3480PY41672a0*%
%TF.FileFunction,Legend,Bot*%
%TF.FilePolarity,Positive*%
%FSLAX46Y46*%
G04 Gerber Fmt 4.6, Leading zero omitted, Abs format (unit mm)*
G04 Created by KiCad (PCBNEW 5.1.10) date 2021-06-02 18:32:35*
%MOMM*%
%LPD*%
G01*
G04 APERTURE LIST*
%ADD10C,0.150000*%
%ADD11C,0.120000*%
G04 APERTURE END LIST*
D10*
X43654071Y-55808571D02*
X43511214Y-55856190D01*
X43463595Y-55903809D01*
X43415976Y-55999047D01*
X43415976Y-56141904D01*
X43463595Y-56237142D01*
X43511214Y-56284761D01*
X43606452Y-56332380D01*
X43987404Y-56332380D01*
X43987404Y-55332380D01*
X43654071Y-55332380D01*
X43558833Y-55380000D01*
X43511214Y-55427619D01*
X43463595Y-55522857D01*
X43463595Y-55618095D01*
X43511214Y-55713333D01*
X43558833Y-55760952D01*
X43654071Y-55808571D01*
X43987404Y-55808571D01*
X42511214Y-56332380D02*
X42987404Y-56332380D01*
X42987404Y-55332380D01*
X42177880Y-55951428D02*
X41415976Y-55951428D01*
X41796928Y-56332380D02*
X41796928Y-55570476D01*
X43654071Y-53268571D02*
X43511214Y-53316190D01*
X43463595Y-53363809D01*
X43415976Y-53459047D01*
X43415976Y-53601904D01*
X43463595Y-53697142D01*
X43511214Y-53744761D01*
X43606452Y-53792380D01*
X43987404Y-53792380D01*
X43987404Y-52792380D01*
X43654071Y-52792380D01*
X43558833Y-52840000D01*
X43511214Y-52887619D01*
X43463595Y-52982857D01*
X43463595Y-53078095D01*
X43511214Y-53173333D01*
X43558833Y-53220952D01*
X43654071Y-53268571D01*
X43987404Y-53268571D01*
X42511214Y-53792380D02*
X42987404Y-53792380D01*
X42987404Y-52792380D01*
X42177880Y-53411428D02*
X41415976Y-53411428D01*
X15946190Y-17470380D02*
X15946190Y-16470380D01*
X15565238Y-16470380D01*
X15470000Y-16518000D01*
X15422380Y-16565619D01*
X15374761Y-16660857D01*
X15374761Y-16803714D01*
X15422380Y-16898952D01*
X15470000Y-16946571D01*
X15565238Y-16994190D01*
X15946190Y-16994190D01*
X14803333Y-17470380D02*
X14898571Y-17422761D01*
X14946190Y-17375142D01*
X14993809Y-17279904D01*
X14993809Y-16994190D01*
X14946190Y-16898952D01*
X14898571Y-16851333D01*
X14803333Y-16803714D01*
X14660476Y-16803714D01*
X14565238Y-16851333D01*
X14517619Y-16898952D01*
X14470000Y-16994190D01*
X14470000Y-17279904D01*
X14517619Y-17375142D01*
X14565238Y-17422761D01*
X14660476Y-17470380D01*
X14803333Y-17470380D01*
X14136666Y-16803714D02*
X13946190Y-17470380D01*
X13755714Y-16994190D01*
X13565238Y-17470380D01*
X13374761Y-16803714D01*
X12612857Y-17422761D02*
X12708095Y-17470380D01*
X12898571Y-17470380D01*
X12993809Y-17422761D01*
X13041428Y-17327523D01*
X13041428Y-16946571D01*
X12993809Y-16851333D01*
X12898571Y-16803714D01*
X12708095Y-16803714D01*
X12612857Y-16851333D01*
X12565238Y-16946571D01*
X12565238Y-17041809D01*
X13041428Y-17137047D01*
X12136666Y-17470380D02*
X12136666Y-16803714D01*
X12136666Y-16994190D02*
X12089047Y-16898952D01*
X12041428Y-16851333D01*
X11946190Y-16803714D01*
X11850952Y-16803714D01*
X23224761Y-27360571D02*
X23081904Y-27408190D01*
X23034285Y-27455809D01*
X22986666Y-27551047D01*
X22986666Y-27693904D01*
X23034285Y-27789142D01*
X23081904Y-27836761D01*
X23177142Y-27884380D01*
X23558095Y-27884380D01*
X23558095Y-26884380D01*
X23224761Y-26884380D01*
X23129523Y-26932000D01*
X23081904Y-26979619D01*
X23034285Y-27074857D01*
X23034285Y-27170095D01*
X23081904Y-27265333D01*
X23129523Y-27312952D01*
X23224761Y-27360571D01*
X23558095Y-27360571D01*
X22129523Y-27884380D02*
X22129523Y-27360571D01*
X22177142Y-27265333D01*
X22272380Y-27217714D01*
X22462857Y-27217714D01*
X22558095Y-27265333D01*
X22129523Y-27836761D02*
X22224761Y-27884380D01*
X22462857Y-27884380D01*
X22558095Y-27836761D01*
X22605714Y-27741523D01*
X22605714Y-27646285D01*
X22558095Y-27551047D01*
X22462857Y-27503428D01*
X22224761Y-27503428D01*
X22129523Y-27455809D01*
X21224761Y-27836761D02*
X21320000Y-27884380D01*
X21510476Y-27884380D01*
X21605714Y-27836761D01*
X21653333Y-27789142D01*
X21700952Y-27693904D01*
X21700952Y-27408190D01*
X21653333Y-27312952D01*
X21605714Y-27265333D01*
X21510476Y-27217714D01*
X21320000Y-27217714D01*
X21224761Y-27265333D01*
X20796190Y-27884380D02*
X20796190Y-26884380D01*
X20700952Y-27503428D02*
X20415238Y-27884380D01*
X20415238Y-27217714D02*
X20796190Y-27598666D01*
X19843809Y-27884380D02*
X19939047Y-27836761D01*
X19986666Y-27741523D01*
X19986666Y-26884380D01*
X19462857Y-27884380D02*
X19462857Y-27217714D01*
X19462857Y-26884380D02*
X19510476Y-26932000D01*
X19462857Y-26979619D01*
X19415238Y-26932000D01*
X19462857Y-26884380D01*
X19462857Y-26979619D01*
X18558095Y-27217714D02*
X18558095Y-28027238D01*
X18605714Y-28122476D01*
X18653333Y-28170095D01*
X18748571Y-28217714D01*
X18891428Y-28217714D01*
X18986666Y-28170095D01*
X18558095Y-27836761D02*
X18653333Y-27884380D01*
X18843809Y-27884380D01*
X18939047Y-27836761D01*
X18986666Y-27789142D01*
X19034285Y-27693904D01*
X19034285Y-27408190D01*
X18986666Y-27312952D01*
X18939047Y-27265333D01*
X18843809Y-27217714D01*
X18653333Y-27217714D01*
X18558095Y-27265333D01*
X18081904Y-27884380D02*
X18081904Y-26884380D01*
X17653333Y-27884380D02*
X17653333Y-27360571D01*
X17700952Y-27265333D01*
X17796190Y-27217714D01*
X17939047Y-27217714D01*
X18034285Y-27265333D01*
X18081904Y-27312952D01*
X17320000Y-27217714D02*
X16939047Y-27217714D01*
X17177142Y-26884380D02*
X17177142Y-27741523D01*
X17129523Y-27836761D01*
X17034285Y-27884380D01*
X16939047Y-27884380D01*
X32646761Y-37282380D02*
X32646761Y-36282380D01*
X32265809Y-36282380D01*
X32170571Y-36330000D01*
X32122952Y-36377619D01*
X32075333Y-36472857D01*
X32075333Y-36615714D01*
X32122952Y-36710952D01*
X32170571Y-36758571D01*
X32265809Y-36806190D01*
X32646761Y-36806190D01*
X31742000Y-36282380D02*
X31503904Y-37282380D01*
X31313428Y-36568095D01*
X31122952Y-37282380D01*
X30884857Y-36282380D01*
X30503904Y-37282380D02*
X30503904Y-36282380D01*
X30170571Y-36996666D01*
X29837238Y-36282380D01*
X29837238Y-37282380D01*
X41600476Y-16073380D02*
X42076666Y-16073380D01*
X42076666Y-15073380D01*
X44735714Y-16073380D02*
X44735714Y-15073380D01*
X44735714Y-15549571D02*
X44164285Y-15549571D01*
X44164285Y-16073380D02*
X44164285Y-15073380D01*
X47466190Y-15501952D02*
X46513809Y-15501952D01*
X47275714Y-15787666D02*
X46704285Y-15787666D01*
X46990000Y-15073380D02*
X46990000Y-15501952D01*
X46894761Y-16073380D02*
X47085238Y-16073380D01*
X45092857Y-17883142D02*
X45140476Y-17930761D01*
X45283333Y-17978380D01*
X45378571Y-17978380D01*
X45521428Y-17930761D01*
X45616666Y-17835523D01*
X45664285Y-17740285D01*
X45711904Y-17549809D01*
X45711904Y-17406952D01*
X45664285Y-17216476D01*
X45616666Y-17121238D01*
X45521428Y-17026000D01*
X45378571Y-16978380D01*
X45283333Y-16978380D01*
X45140476Y-17026000D01*
X45092857Y-17073619D01*
X44711904Y-17692666D02*
X44235714Y-17692666D01*
X44807142Y-17978380D02*
X44473809Y-16978380D01*
X44140476Y-17978380D01*
X43807142Y-17978380D02*
X43807142Y-16978380D01*
X43235714Y-17978380D01*
X43235714Y-16978380D01*
X13080952Y-15184428D02*
X12319047Y-15184428D01*
X12700000Y-15565380D02*
X12700000Y-14803476D01*
X15620952Y-15184428D02*
X14859047Y-15184428D01*
X32827261Y-19772380D02*
X32493928Y-20772380D01*
X32160595Y-19772380D01*
X31827261Y-20772380D02*
X31827261Y-19772380D01*
X31351071Y-20772380D02*
X31351071Y-19772380D01*
X30779642Y-20772380D01*
X30779642Y-19772380D01*
X32160595Y-22360000D02*
X32255833Y-22312380D01*
X32398690Y-22312380D01*
X32541547Y-22360000D01*
X32636785Y-22455238D01*
X32684404Y-22550476D01*
X32732023Y-22740952D01*
X32732023Y-22883809D01*
X32684404Y-23074285D01*
X32636785Y-23169523D01*
X32541547Y-23264761D01*
X32398690Y-23312380D01*
X32303452Y-23312380D01*
X32160595Y-23264761D01*
X32112976Y-23217142D01*
X32112976Y-22883809D01*
X32303452Y-22883809D01*
X31684404Y-23312380D02*
X31684404Y-22312380D01*
X31112976Y-23312380D01*
X31112976Y-22312380D01*
X30636785Y-23312380D02*
X30636785Y-22312380D01*
X30398690Y-22312380D01*
X30255833Y-22360000D01*
X30160595Y-22455238D01*
X30112976Y-22550476D01*
X30065357Y-22740952D01*
X30065357Y-22883809D01*
X30112976Y-23074285D01*
X30160595Y-23169523D01*
X30255833Y-23264761D01*
X30398690Y-23312380D01*
X30636785Y-23312380D01*
X32160595Y-31250000D02*
X32255833Y-31202380D01*
X32398690Y-31202380D01*
X32541547Y-31250000D01*
X32636785Y-31345238D01*
X32684404Y-31440476D01*
X32732023Y-31630952D01*
X32732023Y-31773809D01*
X32684404Y-31964285D01*
X32636785Y-32059523D01*
X32541547Y-32154761D01*
X32398690Y-32202380D01*
X32303452Y-32202380D01*
X32160595Y-32154761D01*
X32112976Y-32107142D01*
X32112976Y-31773809D01*
X32303452Y-31773809D01*
X31684404Y-32202380D02*
X31684404Y-31202380D01*
X31112976Y-32202380D01*
X31112976Y-31202380D01*
X30636785Y-32202380D02*
X30636785Y-31202380D01*
X30398690Y-31202380D01*
X30255833Y-31250000D01*
X30160595Y-31345238D01*
X30112976Y-31440476D01*
X30065357Y-31630952D01*
X30065357Y-31773809D01*
X30112976Y-31964285D01*
X30160595Y-32059523D01*
X30255833Y-32154761D01*
X30398690Y-32202380D01*
X30636785Y-32202380D01*
X32208214Y-28662380D02*
X32684404Y-28662380D01*
X32732023Y-29138571D01*
X32684404Y-29090952D01*
X32589166Y-29043333D01*
X32351071Y-29043333D01*
X32255833Y-29090952D01*
X32208214Y-29138571D01*
X32160595Y-29233809D01*
X32160595Y-29471904D01*
X32208214Y-29567142D01*
X32255833Y-29614761D01*
X32351071Y-29662380D01*
X32589166Y-29662380D01*
X32684404Y-29614761D01*
X32732023Y-29567142D01*
X31874880Y-28662380D02*
X31541547Y-29662380D01*
X31208214Y-28662380D01*
X41050595Y-31250000D02*
X41145833Y-31202380D01*
X41288690Y-31202380D01*
X41431547Y-31250000D01*
X41526785Y-31345238D01*
X41574404Y-31440476D01*
X41622023Y-31630952D01*
X41622023Y-31773809D01*
X41574404Y-31964285D01*
X41526785Y-32059523D01*
X41431547Y-32154761D01*
X41288690Y-32202380D01*
X41193452Y-32202380D01*
X41050595Y-32154761D01*
X41002976Y-32107142D01*
X41002976Y-31773809D01*
X41193452Y-31773809D01*
X40574404Y-32202380D02*
X40574404Y-31202380D01*
X40002976Y-32202380D01*
X40002976Y-31202380D01*
X39526785Y-32202380D02*
X39526785Y-31202380D01*
X39288690Y-31202380D01*
X39145833Y-31250000D01*
X39050595Y-31345238D01*
X39002976Y-31440476D01*
X38955357Y-31630952D01*
X38955357Y-31773809D01*
X39002976Y-31964285D01*
X39050595Y-32059523D01*
X39145833Y-32154761D01*
X39288690Y-32202380D01*
X39526785Y-32202380D01*
X41669642Y-28662380D02*
X41050595Y-28662380D01*
X41383928Y-29043333D01*
X41241071Y-29043333D01*
X41145833Y-29090952D01*
X41098214Y-29138571D01*
X41050595Y-29233809D01*
X41050595Y-29471904D01*
X41098214Y-29567142D01*
X41145833Y-29614761D01*
X41241071Y-29662380D01*
X41526785Y-29662380D01*
X41622023Y-29614761D01*
X41669642Y-29567142D01*
X40764880Y-28662380D02*
X40431547Y-29662380D01*
X40098214Y-28662380D01*
X39860119Y-28662380D02*
X39241071Y-28662380D01*
X39574404Y-29043333D01*
X39431547Y-29043333D01*
X39336309Y-29090952D01*
X39288690Y-29138571D01*
X39241071Y-29233809D01*
X39241071Y-29471904D01*
X39288690Y-29567142D01*
X39336309Y-29614761D01*
X39431547Y-29662380D01*
X39717261Y-29662380D01*
X39812500Y-29614761D01*
X39860119Y-29567142D01*
X32684404Y-42872380D02*
X32684404Y-41872380D01*
X32446309Y-41872380D01*
X32303452Y-41920000D01*
X32208214Y-42015238D01*
X32160595Y-42110476D01*
X32112976Y-42300952D01*
X32112976Y-42443809D01*
X32160595Y-42634285D01*
X32208214Y-42729523D01*
X32303452Y-42824761D01*
X32446309Y-42872380D01*
X32684404Y-42872380D01*
X31255833Y-42872380D02*
X31255833Y-42348571D01*
X31303452Y-42253333D01*
X31398690Y-42205714D01*
X31589166Y-42205714D01*
X31684404Y-42253333D01*
X31255833Y-42824761D02*
X31351071Y-42872380D01*
X31589166Y-42872380D01*
X31684404Y-42824761D01*
X31732023Y-42729523D01*
X31732023Y-42634285D01*
X31684404Y-42539047D01*
X31589166Y-42491428D01*
X31351071Y-42491428D01*
X31255833Y-42443809D01*
X30827261Y-42824761D02*
X30732023Y-42872380D01*
X30541547Y-42872380D01*
X30446309Y-42824761D01*
X30398690Y-42729523D01*
X30398690Y-42681904D01*
X30446309Y-42586666D01*
X30541547Y-42539047D01*
X30684404Y-42539047D01*
X30779642Y-42491428D01*
X30827261Y-42396190D01*
X30827261Y-42348571D01*
X30779642Y-42253333D01*
X30684404Y-42205714D01*
X30541547Y-42205714D01*
X30446309Y-42253333D01*
X29970119Y-42872380D02*
X29970119Y-41872380D01*
X29541547Y-42872380D02*
X29541547Y-42348571D01*
X29589166Y-42253333D01*
X29684404Y-42205714D01*
X29827261Y-42205714D01*
X29922500Y-42253333D01*
X29970119Y-42300952D01*
X29065357Y-42872380D02*
X29065357Y-41872380D01*
X29065357Y-42253333D02*
X28970119Y-42205714D01*
X28779642Y-42205714D01*
X28684404Y-42253333D01*
X28636785Y-42300952D01*
X28589166Y-42396190D01*
X28589166Y-42681904D01*
X28636785Y-42777142D01*
X28684404Y-42824761D01*
X28779642Y-42872380D01*
X28970119Y-42872380D01*
X29065357Y-42824761D01*
X28017738Y-42872380D02*
X28112976Y-42824761D01*
X28160595Y-42777142D01*
X28208214Y-42681904D01*
X28208214Y-42396190D01*
X28160595Y-42300952D01*
X28112976Y-42253333D01*
X28017738Y-42205714D01*
X27874880Y-42205714D01*
X27779642Y-42253333D01*
X27732023Y-42300952D01*
X27684404Y-42396190D01*
X27684404Y-42681904D01*
X27732023Y-42777142D01*
X27779642Y-42824761D01*
X27874880Y-42872380D01*
X28017738Y-42872380D01*
X26827261Y-42872380D02*
X26827261Y-42348571D01*
X26874880Y-42253333D01*
X26970119Y-42205714D01*
X27160595Y-42205714D01*
X27255833Y-42253333D01*
X26827261Y-42824761D02*
X26922500Y-42872380D01*
X27160595Y-42872380D01*
X27255833Y-42824761D01*
X27303452Y-42729523D01*
X27303452Y-42634285D01*
X27255833Y-42539047D01*
X27160595Y-42491428D01*
X26922500Y-42491428D01*
X26827261Y-42443809D01*
X26351071Y-42872380D02*
X26351071Y-42205714D01*
X26351071Y-42396190D02*
X26303452Y-42300952D01*
X26255833Y-42253333D01*
X26160595Y-42205714D01*
X26065357Y-42205714D01*
X25303452Y-42872380D02*
X25303452Y-41872380D01*
X25303452Y-42824761D02*
X25398690Y-42872380D01*
X25589166Y-42872380D01*
X25684404Y-42824761D01*
X25732023Y-42777142D01*
X25779642Y-42681904D01*
X25779642Y-42396190D01*
X25732023Y-42300952D01*
X25684404Y-42253333D01*
X25589166Y-42205714D01*
X25398690Y-42205714D01*
X25303452Y-42253333D01*
X24065357Y-42872380D02*
X24065357Y-41872380D01*
X23827261Y-41872380D01*
X23684404Y-41920000D01*
X23589166Y-42015238D01*
X23541547Y-42110476D01*
X23493928Y-42300952D01*
X23493928Y-42443809D01*
X23541547Y-42634285D01*
X23589166Y-42729523D01*
X23684404Y-42824761D01*
X23827261Y-42872380D01*
X24065357Y-42872380D01*
X23065357Y-42872380D02*
X23065357Y-42205714D01*
X23065357Y-41872380D02*
X23112976Y-41920000D01*
X23065357Y-41967619D01*
X23017738Y-41920000D01*
X23065357Y-41872380D01*
X23065357Y-41967619D01*
X22636785Y-42824761D02*
X22541547Y-42872380D01*
X22351071Y-42872380D01*
X22255833Y-42824761D01*
X22208214Y-42729523D01*
X22208214Y-42681904D01*
X22255833Y-42586666D01*
X22351071Y-42539047D01*
X22493928Y-42539047D01*
X22589166Y-42491428D01*
X22636785Y-42396190D01*
X22636785Y-42348571D01*
X22589166Y-42253333D01*
X22493928Y-42205714D01*
X22351071Y-42205714D01*
X22255833Y-42253333D01*
X21779642Y-42205714D02*
X21779642Y-43205714D01*
X21779642Y-42253333D02*
X21684404Y-42205714D01*
X21493928Y-42205714D01*
X21398690Y-42253333D01*
X21351071Y-42300952D01*
X21303452Y-42396190D01*
X21303452Y-42681904D01*
X21351071Y-42777142D01*
X21398690Y-42824761D01*
X21493928Y-42872380D01*
X21684404Y-42872380D01*
X21779642Y-42824761D01*
X20732023Y-42872380D02*
X20827261Y-42824761D01*
X20874880Y-42729523D01*
X20874880Y-41872380D01*
X19922500Y-42872380D02*
X19922500Y-42348571D01*
X19970119Y-42253333D01*
X20065357Y-42205714D01*
X20255833Y-42205714D01*
X20351071Y-42253333D01*
X19922500Y-42824761D02*
X20017738Y-42872380D01*
X20255833Y-42872380D01*
X20351071Y-42824761D01*
X20398690Y-42729523D01*
X20398690Y-42634285D01*
X20351071Y-42539047D01*
X20255833Y-42491428D01*
X20017738Y-42491428D01*
X19922500Y-42443809D01*
X19541547Y-42205714D02*
X19303452Y-42872380D01*
X19065357Y-42205714D02*
X19303452Y-42872380D01*
X19398690Y-43110476D01*
X19446309Y-43158095D01*
X19541547Y-43205714D01*
X32351071Y-43998571D02*
X32208214Y-44046190D01*
X32160595Y-44093809D01*
X32112976Y-44189047D01*
X32112976Y-44331904D01*
X32160595Y-44427142D01*
X32208214Y-44474761D01*
X32303452Y-44522380D01*
X32684404Y-44522380D01*
X32684404Y-43522380D01*
X32351071Y-43522380D01*
X32255833Y-43570000D01*
X32208214Y-43617619D01*
X32160595Y-43712857D01*
X32160595Y-43808095D01*
X32208214Y-43903333D01*
X32255833Y-43950952D01*
X32351071Y-43998571D01*
X32684404Y-43998571D01*
X31303452Y-44474761D02*
X31398690Y-44522380D01*
X31589166Y-44522380D01*
X31684404Y-44474761D01*
X31732023Y-44379523D01*
X31732023Y-43998571D01*
X31684404Y-43903333D01*
X31589166Y-43855714D01*
X31398690Y-43855714D01*
X31303452Y-43903333D01*
X31255833Y-43998571D01*
X31255833Y-44093809D01*
X31732023Y-44189047D01*
X30398690Y-44522380D02*
X30398690Y-43998571D01*
X30446309Y-43903333D01*
X30541547Y-43855714D01*
X30732023Y-43855714D01*
X30827261Y-43903333D01*
X30398690Y-44474761D02*
X30493928Y-44522380D01*
X30732023Y-44522380D01*
X30827261Y-44474761D01*
X30874880Y-44379523D01*
X30874880Y-44284285D01*
X30827261Y-44189047D01*
X30732023Y-44141428D01*
X30493928Y-44141428D01*
X30398690Y-44093809D01*
X29493928Y-43855714D02*
X29493928Y-44665238D01*
X29541547Y-44760476D01*
X29589166Y-44808095D01*
X29684404Y-44855714D01*
X29827261Y-44855714D01*
X29922500Y-44808095D01*
X29493928Y-44474761D02*
X29589166Y-44522380D01*
X29779642Y-44522380D01*
X29874880Y-44474761D01*
X29922500Y-44427142D01*
X29970119Y-44331904D01*
X29970119Y-44046190D01*
X29922500Y-43950952D01*
X29874880Y-43903333D01*
X29779642Y-43855714D01*
X29589166Y-43855714D01*
X29493928Y-43903333D01*
X28874880Y-44522380D02*
X28970119Y-44474761D01*
X29017738Y-44379523D01*
X29017738Y-43522380D01*
X28112976Y-44474761D02*
X28208214Y-44522380D01*
X28398690Y-44522380D01*
X28493928Y-44474761D01*
X28541547Y-44379523D01*
X28541547Y-43998571D01*
X28493928Y-43903333D01*
X28398690Y-43855714D01*
X28208214Y-43855714D01*
X28112976Y-43903333D01*
X28065357Y-43998571D01*
X28065357Y-44093809D01*
X28541547Y-44189047D01*
X27303452Y-43998571D02*
X27160595Y-44046190D01*
X27112976Y-44093809D01*
X27065357Y-44189047D01*
X27065357Y-44331904D01*
X27112976Y-44427142D01*
X27160595Y-44474761D01*
X27255833Y-44522380D01*
X27636785Y-44522380D01*
X27636785Y-43522380D01*
X27303452Y-43522380D01*
X27208214Y-43570000D01*
X27160595Y-43617619D01*
X27112976Y-43712857D01*
X27112976Y-43808095D01*
X27160595Y-43903333D01*
X27208214Y-43950952D01*
X27303452Y-43998571D01*
X27636785Y-43998571D01*
X26493928Y-44522380D02*
X26589166Y-44474761D01*
X26636785Y-44427142D01*
X26684404Y-44331904D01*
X26684404Y-44046190D01*
X26636785Y-43950952D01*
X26589166Y-43903333D01*
X26493928Y-43855714D01*
X26351071Y-43855714D01*
X26255833Y-43903333D01*
X26208214Y-43950952D01*
X26160595Y-44046190D01*
X26160595Y-44331904D01*
X26208214Y-44427142D01*
X26255833Y-44474761D01*
X26351071Y-44522380D01*
X26493928Y-44522380D01*
X25732023Y-43855714D02*
X25732023Y-44522380D01*
X25732023Y-43950952D02*
X25684404Y-43903333D01*
X25589166Y-43855714D01*
X25446309Y-43855714D01*
X25351071Y-43903333D01*
X25303452Y-43998571D01*
X25303452Y-44522380D01*
X24446309Y-44474761D02*
X24541547Y-44522380D01*
X24732023Y-44522380D01*
X24827261Y-44474761D01*
X24874880Y-44379523D01*
X24874880Y-43998571D01*
X24827261Y-43903333D01*
X24732023Y-43855714D01*
X24541547Y-43855714D01*
X24446309Y-43903333D01*
X24398690Y-43998571D01*
X24398690Y-44093809D01*
X24874880Y-44189047D01*
X22636785Y-44427142D02*
X22684404Y-44474761D01*
X22827261Y-44522380D01*
X22922500Y-44522380D01*
X23065357Y-44474761D01*
X23160595Y-44379523D01*
X23208214Y-44284285D01*
X23255833Y-44093809D01*
X23255833Y-43950952D01*
X23208214Y-43760476D01*
X23160595Y-43665238D01*
X23065357Y-43570000D01*
X22922500Y-43522380D01*
X22827261Y-43522380D01*
X22684404Y-43570000D01*
X22636785Y-43617619D01*
X22255833Y-44236666D02*
X21779642Y-44236666D01*
X22351071Y-44522380D02*
X22017738Y-43522380D01*
X21684404Y-44522380D01*
X21351071Y-44522380D02*
X21351071Y-43522380D01*
X20779642Y-44522380D01*
X20779642Y-43522380D01*
X18732023Y-44522380D02*
X18779642Y-44522380D01*
X18874880Y-44474761D01*
X19017738Y-44331904D01*
X19255833Y-44046190D01*
X19351071Y-43903333D01*
X19398690Y-43760476D01*
X19398690Y-43665238D01*
X19351071Y-43570000D01*
X19255833Y-43522380D01*
X19208214Y-43522380D01*
X19112976Y-43570000D01*
X19065357Y-43665238D01*
X19065357Y-43712857D01*
X19112976Y-43808095D01*
X19160595Y-43855714D01*
X19446309Y-44046190D01*
X19493928Y-44093809D01*
X19541547Y-44189047D01*
X19541547Y-44331904D01*
X19493928Y-44427142D01*
X19446309Y-44474761D01*
X19351071Y-44522380D01*
X19208214Y-44522380D01*
X19112976Y-44474761D01*
X19065357Y-44427142D01*
X18922500Y-44236666D01*
X18874880Y-44093809D01*
X18874880Y-43998571D01*
X17065357Y-44522380D02*
X17541547Y-44522380D01*
X17541547Y-43522380D01*
X16160595Y-44427142D02*
X16208214Y-44474761D01*
X16351071Y-44522380D01*
X16446309Y-44522380D01*
X16589166Y-44474761D01*
X16684404Y-44379523D01*
X16732023Y-44284285D01*
X16779642Y-44093809D01*
X16779642Y-43950952D01*
X16732023Y-43760476D01*
X16684404Y-43665238D01*
X16589166Y-43570000D01*
X16446309Y-43522380D01*
X16351071Y-43522380D01*
X16208214Y-43570000D01*
X16160595Y-43617619D01*
X15732023Y-44522380D02*
X15732023Y-43522380D01*
X15493928Y-43522380D01*
X15351071Y-43570000D01*
X15255833Y-43665238D01*
X15208214Y-43760476D01*
X15160595Y-43950952D01*
X15160595Y-44093809D01*
X15208214Y-44284285D01*
X15255833Y-44379523D01*
X15351071Y-44474761D01*
X15493928Y-44522380D01*
X15732023Y-44522380D01*
X32827261Y-45172380D02*
X32493928Y-46172380D01*
X32160595Y-45172380D01*
X31446309Y-46124761D02*
X31541547Y-46172380D01*
X31732023Y-46172380D01*
X31827261Y-46124761D01*
X31874880Y-46029523D01*
X31874880Y-45648571D01*
X31827261Y-45553333D01*
X31732023Y-45505714D01*
X31541547Y-45505714D01*
X31446309Y-45553333D01*
X31398690Y-45648571D01*
X31398690Y-45743809D01*
X31874880Y-45839047D01*
X30970119Y-46172380D02*
X30970119Y-45505714D01*
X30970119Y-45696190D02*
X30922500Y-45600952D01*
X30874880Y-45553333D01*
X30779642Y-45505714D01*
X30684404Y-45505714D01*
X30398690Y-46124761D02*
X30303452Y-46172380D01*
X30112976Y-46172380D01*
X30017738Y-46124761D01*
X29970119Y-46029523D01*
X29970119Y-45981904D01*
X30017738Y-45886666D01*
X30112976Y-45839047D01*
X30255833Y-45839047D01*
X30351071Y-45791428D01*
X30398690Y-45696190D01*
X30398690Y-45648571D01*
X30351071Y-45553333D01*
X30255833Y-45505714D01*
X30112976Y-45505714D01*
X30017738Y-45553333D01*
X29541547Y-46172380D02*
X29541547Y-45505714D01*
X29541547Y-45172380D02*
X29589166Y-45220000D01*
X29541547Y-45267619D01*
X29493928Y-45220000D01*
X29541547Y-45172380D01*
X29541547Y-45267619D01*
X28922500Y-46172380D02*
X29017738Y-46124761D01*
X29065357Y-46077142D01*
X29112976Y-45981904D01*
X29112976Y-45696190D01*
X29065357Y-45600952D01*
X29017738Y-45553333D01*
X28922500Y-45505714D01*
X28779642Y-45505714D01*
X28684404Y-45553333D01*
X28636785Y-45600952D01*
X28589166Y-45696190D01*
X28589166Y-45981904D01*
X28636785Y-46077142D01*
X28684404Y-46124761D01*
X28779642Y-46172380D01*
X28922500Y-46172380D01*
X28160595Y-45505714D02*
X28160595Y-46172380D01*
X28160595Y-45600952D02*
X28112976Y-45553333D01*
X28017738Y-45505714D01*
X27874880Y-45505714D01*
X27779642Y-45553333D01*
X27732023Y-45648571D01*
X27732023Y-46172380D01*
X27255833Y-46077142D02*
X27208214Y-46124761D01*
X27255833Y-46172380D01*
X27303452Y-46124761D01*
X27255833Y-46077142D01*
X27255833Y-46172380D01*
X27255833Y-45553333D02*
X27208214Y-45600952D01*
X27255833Y-45648571D01*
X27303452Y-45600952D01*
X27255833Y-45553333D01*
X27255833Y-45648571D01*
X25446309Y-46172380D02*
X25779642Y-45696190D01*
X26017738Y-46172380D02*
X26017738Y-45172380D01*
X25636785Y-45172380D01*
X25541547Y-45220000D01*
X25493928Y-45267619D01*
X25446309Y-45362857D01*
X25446309Y-45505714D01*
X25493928Y-45600952D01*
X25541547Y-45648571D01*
X25636785Y-45696190D01*
X26017738Y-45696190D01*
X24636785Y-46124761D02*
X24732023Y-46172380D01*
X24922500Y-46172380D01*
X25017738Y-46124761D01*
X25065357Y-46029523D01*
X25065357Y-45648571D01*
X25017738Y-45553333D01*
X24922500Y-45505714D01*
X24732023Y-45505714D01*
X24636785Y-45553333D01*
X24589166Y-45648571D01*
X24589166Y-45743809D01*
X25065357Y-45839047D01*
X24255833Y-45505714D02*
X24017738Y-46172380D01*
X23779642Y-45505714D01*
X22303452Y-45648571D02*
X22160595Y-45696190D01*
X22112976Y-45743809D01*
X22065357Y-45839047D01*
X22065357Y-45981904D01*
X22112976Y-46077142D01*
X22160595Y-46124761D01*
X22255833Y-46172380D01*
X22636785Y-46172380D01*
X22636785Y-45172380D01*
X22303452Y-45172380D01*
X22208214Y-45220000D01*
X22160595Y-45267619D01*
X22112976Y-45362857D01*
X22112976Y-45458095D01*
X22160595Y-45553333D01*
X22208214Y-45600952D01*
X22303452Y-45648571D01*
X22636785Y-45648571D01*
X32684404Y-47822380D02*
X32684404Y-46822380D01*
X32446309Y-46822380D01*
X32303452Y-46870000D01*
X32208214Y-46965238D01*
X32160595Y-47060476D01*
X32112976Y-47250952D01*
X32112976Y-47393809D01*
X32160595Y-47584285D01*
X32208214Y-47679523D01*
X32303452Y-47774761D01*
X32446309Y-47822380D01*
X32684404Y-47822380D01*
X31303452Y-47774761D02*
X31398690Y-47822380D01*
X31589166Y-47822380D01*
X31684404Y-47774761D01*
X31732023Y-47679523D01*
X31732023Y-47298571D01*
X31684404Y-47203333D01*
X31589166Y-47155714D01*
X31398690Y-47155714D01*
X31303452Y-47203333D01*
X31255833Y-47298571D01*
X31255833Y-47393809D01*
X31732023Y-47489047D01*
X30874880Y-47774761D02*
X30779642Y-47822380D01*
X30589166Y-47822380D01*
X30493928Y-47774761D01*
X30446309Y-47679523D01*
X30446309Y-47631904D01*
X30493928Y-47536666D01*
X30589166Y-47489047D01*
X30732023Y-47489047D01*
X30827261Y-47441428D01*
X30874880Y-47346190D01*
X30874880Y-47298571D01*
X30827261Y-47203333D01*
X30732023Y-47155714D01*
X30589166Y-47155714D01*
X30493928Y-47203333D01*
X30017738Y-47822380D02*
X30017738Y-47155714D01*
X30017738Y-46822380D02*
X30065357Y-46870000D01*
X30017738Y-46917619D01*
X29970119Y-46870000D01*
X30017738Y-46822380D01*
X30017738Y-46917619D01*
X29112976Y-47155714D02*
X29112976Y-47965238D01*
X29160595Y-48060476D01*
X29208214Y-48108095D01*
X29303452Y-48155714D01*
X29446309Y-48155714D01*
X29541547Y-48108095D01*
X29112976Y-47774761D02*
X29208214Y-47822380D01*
X29398690Y-47822380D01*
X29493928Y-47774761D01*
X29541547Y-47727142D01*
X29589166Y-47631904D01*
X29589166Y-47346190D01*
X29541547Y-47250952D01*
X29493928Y-47203333D01*
X29398690Y-47155714D01*
X29208214Y-47155714D01*
X29112976Y-47203333D01*
X28636785Y-47155714D02*
X28636785Y-47822380D01*
X28636785Y-47250952D02*
X28589166Y-47203333D01*
X28493928Y-47155714D01*
X28351071Y-47155714D01*
X28255833Y-47203333D01*
X28208214Y-47298571D01*
X28208214Y-47822380D01*
X27351071Y-47774761D02*
X27446309Y-47822380D01*
X27636785Y-47822380D01*
X27732023Y-47774761D01*
X27779642Y-47679523D01*
X27779642Y-47298571D01*
X27732023Y-47203333D01*
X27636785Y-47155714D01*
X27446309Y-47155714D01*
X27351071Y-47203333D01*
X27303452Y-47298571D01*
X27303452Y-47393809D01*
X27779642Y-47489047D01*
X26446309Y-47822380D02*
X26446309Y-46822380D01*
X26446309Y-47774761D02*
X26541547Y-47822380D01*
X26732023Y-47822380D01*
X26827261Y-47774761D01*
X26874880Y-47727142D01*
X26922500Y-47631904D01*
X26922500Y-47346190D01*
X26874880Y-47250952D01*
X26827261Y-47203333D01*
X26732023Y-47155714D01*
X26541547Y-47155714D01*
X26446309Y-47203333D01*
X25208214Y-47822380D02*
X25208214Y-46822380D01*
X25208214Y-47203333D02*
X25112976Y-47155714D01*
X24922500Y-47155714D01*
X24827261Y-47203333D01*
X24779642Y-47250952D01*
X24732023Y-47346190D01*
X24732023Y-47631904D01*
X24779642Y-47727142D01*
X24827261Y-47774761D01*
X24922500Y-47822380D01*
X25112976Y-47822380D01*
X25208214Y-47774761D01*
X24398690Y-47155714D02*
X24160595Y-47822380D01*
X23922500Y-47155714D02*
X24160595Y-47822380D01*
X24255833Y-48060476D01*
X24303452Y-48108095D01*
X24398690Y-48155714D01*
X23541547Y-47727142D02*
X23493928Y-47774761D01*
X23541547Y-47822380D01*
X23589166Y-47774761D01*
X23541547Y-47727142D01*
X23541547Y-47822380D01*
X23541547Y-47203333D02*
X23493928Y-47250952D01*
X23541547Y-47298571D01*
X23589166Y-47250952D01*
X23541547Y-47203333D01*
X23541547Y-47298571D01*
X22351071Y-47536666D02*
X21874880Y-47536666D01*
X22446309Y-47822380D02*
X22112976Y-46822380D01*
X21779642Y-47822380D01*
X21446309Y-47155714D02*
X21446309Y-47822380D01*
X21446309Y-47250952D02*
X21398690Y-47203333D01*
X21303452Y-47155714D01*
X21160595Y-47155714D01*
X21065357Y-47203333D01*
X21017738Y-47298571D01*
X21017738Y-47822380D01*
X20112976Y-47822380D02*
X20112976Y-46822380D01*
X20112976Y-47774761D02*
X20208214Y-47822380D01*
X20398690Y-47822380D01*
X20493928Y-47774761D01*
X20541547Y-47727142D01*
X20589166Y-47631904D01*
X20589166Y-47346190D01*
X20541547Y-47250952D01*
X20493928Y-47203333D01*
X20398690Y-47155714D01*
X20208214Y-47155714D01*
X20112976Y-47203333D01*
X19636785Y-47822380D02*
X19636785Y-47155714D01*
X19636785Y-47346190D02*
X19589166Y-47250952D01*
X19541547Y-47203333D01*
X19446309Y-47155714D01*
X19351071Y-47155714D01*
X18636785Y-47774761D02*
X18732023Y-47822380D01*
X18922500Y-47822380D01*
X19017738Y-47774761D01*
X19065357Y-47679523D01*
X19065357Y-47298571D01*
X19017738Y-47203333D01*
X18922500Y-47155714D01*
X18732023Y-47155714D01*
X18636785Y-47203333D01*
X18589166Y-47298571D01*
X18589166Y-47393809D01*
X19065357Y-47489047D01*
X18255833Y-47155714D02*
X18065357Y-47822380D01*
X17874880Y-47346190D01*
X17684404Y-47822380D01*
X17493928Y-47155714D01*
X15779642Y-47727142D02*
X15827261Y-47774761D01*
X15970119Y-47822380D01*
X16065357Y-47822380D01*
X16208214Y-47774761D01*
X16303452Y-47679523D01*
X16351071Y-47584285D01*
X16398690Y-47393809D01*
X16398690Y-47250952D01*
X16351071Y-47060476D01*
X16303452Y-46965238D01*
X16208214Y-46870000D01*
X16065357Y-46822380D01*
X15970119Y-46822380D01*
X15827261Y-46870000D01*
X15779642Y-46917619D01*
X15351071Y-47822380D02*
X15351071Y-46822380D01*
X14922500Y-47822380D02*
X14922500Y-47298571D01*
X14970119Y-47203333D01*
X15065357Y-47155714D01*
X15208214Y-47155714D01*
X15303452Y-47203333D01*
X15351071Y-47250952D01*
X14065357Y-47774761D02*
X14160595Y-47822380D01*
X14351071Y-47822380D01*
X14446309Y-47774761D01*
X14493928Y-47679523D01*
X14493928Y-47298571D01*
X14446309Y-47203333D01*
X14351071Y-47155714D01*
X14160595Y-47155714D01*
X14065357Y-47203333D01*
X14017738Y-47298571D01*
X14017738Y-47393809D01*
X14493928Y-47489047D01*
X13589166Y-47155714D02*
X13589166Y-47822380D01*
X13589166Y-47250952D02*
X13541547Y-47203333D01*
X13446309Y-47155714D01*
X13303452Y-47155714D01*
X13208214Y-47203333D01*
X13160595Y-47298571D01*
X13160595Y-47822380D01*
X32684404Y-49472380D02*
X32684404Y-48472380D01*
X32446309Y-48472380D01*
X32303452Y-48520000D01*
X32208214Y-48615238D01*
X32160595Y-48710476D01*
X32112976Y-48900952D01*
X32112976Y-49043809D01*
X32160595Y-49234285D01*
X32208214Y-49329523D01*
X32303452Y-49424761D01*
X32446309Y-49472380D01*
X32684404Y-49472380D01*
X31255833Y-49472380D02*
X31255833Y-48948571D01*
X31303452Y-48853333D01*
X31398690Y-48805714D01*
X31589166Y-48805714D01*
X31684404Y-48853333D01*
X31255833Y-49424761D02*
X31351071Y-49472380D01*
X31589166Y-49472380D01*
X31684404Y-49424761D01*
X31732023Y-49329523D01*
X31732023Y-49234285D01*
X31684404Y-49139047D01*
X31589166Y-49091428D01*
X31351071Y-49091428D01*
X31255833Y-49043809D01*
X30922500Y-48805714D02*
X30541547Y-48805714D01*
X30779642Y-48472380D02*
X30779642Y-49329523D01*
X30732023Y-49424761D01*
X30636785Y-49472380D01*
X30541547Y-49472380D01*
X29827261Y-49424761D02*
X29922500Y-49472380D01*
X30112976Y-49472380D01*
X30208214Y-49424761D01*
X30255833Y-49329523D01*
X30255833Y-48948571D01*
X30208214Y-48853333D01*
X30112976Y-48805714D01*
X29922500Y-48805714D01*
X29827261Y-48853333D01*
X29779642Y-48948571D01*
X29779642Y-49043809D01*
X30255833Y-49139047D01*
X29351071Y-49377142D02*
X29303452Y-49424761D01*
X29351071Y-49472380D01*
X29398690Y-49424761D01*
X29351071Y-49377142D01*
X29351071Y-49472380D01*
X29351071Y-48853333D02*
X29303452Y-48900952D01*
X29351071Y-48948571D01*
X29398690Y-48900952D01*
X29351071Y-48853333D01*
X29351071Y-48948571D01*
X28160595Y-48567619D02*
X28112976Y-48520000D01*
X28017738Y-48472380D01*
X27779642Y-48472380D01*
X27684404Y-48520000D01*
X27636785Y-48567619D01*
X27589166Y-48662857D01*
X27589166Y-48758095D01*
X27636785Y-48900952D01*
X28208214Y-49472380D01*
X27589166Y-49472380D01*
X26970119Y-48472380D02*
X26874880Y-48472380D01*
X26779642Y-48520000D01*
X26732023Y-48567619D01*
X26684404Y-48662857D01*
X26636785Y-48853333D01*
X26636785Y-49091428D01*
X26684404Y-49281904D01*
X26732023Y-49377142D01*
X26779642Y-49424761D01*
X26874880Y-49472380D01*
X26970119Y-49472380D01*
X27065357Y-49424761D01*
X27112976Y-49377142D01*
X27160595Y-49281904D01*
X27208214Y-49091428D01*
X27208214Y-48853333D01*
X27160595Y-48662857D01*
X27112976Y-48567619D01*
X27065357Y-48520000D01*
X26970119Y-48472380D01*
X26255833Y-48567619D02*
X26208214Y-48520000D01*
X26112976Y-48472380D01*
X25874880Y-48472380D01*
X25779642Y-48520000D01*
X25732023Y-48567619D01*
X25684404Y-48662857D01*
X25684404Y-48758095D01*
X25732023Y-48900952D01*
X26303452Y-49472380D01*
X25684404Y-49472380D01*
X25065357Y-48472380D02*
X24970119Y-48472380D01*
X24874880Y-48520000D01*
X24827261Y-48567619D01*
X24779642Y-48662857D01*
X24732023Y-48853333D01*
X24732023Y-49091428D01*
X24779642Y-49281904D01*
X24827261Y-49377142D01*
X24874880Y-49424761D01*
X24970119Y-49472380D01*
X25065357Y-49472380D01*
X25160595Y-49424761D01*
X25208214Y-49377142D01*
X25255833Y-49281904D01*
X25303452Y-49091428D01*
X25303452Y-48853333D01*
X25255833Y-48662857D01*
X25208214Y-48567619D01*
X25160595Y-48520000D01*
X25065357Y-48472380D01*
X24303452Y-49091428D02*
X23541547Y-49091428D01*
X22874880Y-48472380D02*
X22779642Y-48472380D01*
X22684404Y-48520000D01*
X22636785Y-48567619D01*
X22589166Y-48662857D01*
X22541547Y-48853333D01*
X22541547Y-49091428D01*
X22589166Y-49281904D01*
X22636785Y-49377142D01*
X22684404Y-49424761D01*
X22779642Y-49472380D01*
X22874880Y-49472380D01*
X22970119Y-49424761D01*
X23017738Y-49377142D01*
X23065357Y-49281904D01*
X23112976Y-49091428D01*
X23112976Y-48853333D01*
X23065357Y-48662857D01*
X23017738Y-48567619D01*
X22970119Y-48520000D01*
X22874880Y-48472380D01*
X21684404Y-48472380D02*
X21874880Y-48472380D01*
X21970119Y-48520000D01*
X22017738Y-48567619D01*
X22112976Y-48710476D01*
X22160595Y-48900952D01*
X22160595Y-49281904D01*
X22112976Y-49377142D01*
X22065357Y-49424761D01*
X21970119Y-49472380D01*
X21779642Y-49472380D01*
X21684404Y-49424761D01*
X21636785Y-49377142D01*
X21589166Y-49281904D01*
X21589166Y-49043809D01*
X21636785Y-48948571D01*
X21684404Y-48900952D01*
X21779642Y-48853333D01*
X21970119Y-48853333D01*
X22065357Y-48900952D01*
X22112976Y-48948571D01*
X22160595Y-49043809D01*
X21160595Y-49091428D02*
X20398690Y-49091428D01*
X19732023Y-48472380D02*
X19636785Y-48472380D01*
X19541547Y-48520000D01*
X19493928Y-48567619D01*
X19446309Y-48662857D01*
X19398690Y-48853333D01*
X19398690Y-49091428D01*
X19446309Y-49281904D01*
X19493928Y-49377142D01*
X19541547Y-49424761D01*
X19636785Y-49472380D01*
X19732023Y-49472380D01*
X19827261Y-49424761D01*
X19874880Y-49377142D01*
X19922500Y-49281904D01*
X19970119Y-49091428D01*
X19970119Y-48853333D01*
X19922500Y-48662857D01*
X19874880Y-48567619D01*
X19827261Y-48520000D01*
X19732023Y-48472380D01*
X19017738Y-48567619D02*
X18970119Y-48520000D01*
X18874880Y-48472380D01*
X18636785Y-48472380D01*
X18541547Y-48520000D01*
X18493928Y-48567619D01*
X18446309Y-48662857D01*
X18446309Y-48758095D01*
X18493928Y-48900952D01*
X19065357Y-49472380D01*
X18446309Y-49472380D01*
D11*
%TO.C,F1*%
X22965000Y-15325000D02*
X22965000Y-14865000D01*
X22965000Y-15325000D02*
X32915000Y-15325000D01*
X32915000Y-15325000D02*
X32915000Y-14865000D01*
X22965000Y-10535000D02*
X22965000Y-10075000D01*
X22965000Y-10075000D02*
X32915000Y-10075000D01*
X32915000Y-10075000D02*
X32915000Y-10535000D01*
%TO.C,RN5*%
X24540000Y-54110000D02*
X24540000Y-55110000D01*
X21180000Y-54110000D02*
X21180000Y-55110000D01*
%TO.C,RN4*%
X28350000Y-54110000D02*
X28350000Y-55110000D01*
X24990000Y-54110000D02*
X24990000Y-55110000D01*
%TO.C,RN3*%
X32160000Y-54110000D02*
X32160000Y-55110000D01*
X28800000Y-54110000D02*
X28800000Y-55110000D01*
%TO.C,RN2*%
X35970000Y-54110000D02*
X35970000Y-55110000D01*
X32610000Y-54110000D02*
X32610000Y-55110000D01*
%TO.C,RN1*%
X39780000Y-54110000D02*
X39780000Y-55110000D01*
X36420000Y-54110000D02*
X36420000Y-55110000D01*
%TO.C,JP1*%
X18920000Y-30464000D02*
X21720000Y-30464000D01*
X21720000Y-30464000D02*
X21720000Y-28464000D01*
X21720000Y-28464000D02*
X18920000Y-28464000D01*
X18920000Y-28464000D02*
X18920000Y-30464000D01*
%TO.C,TP9*%
X35490000Y-22860000D02*
G75*
G03*
X35490000Y-22860000I-1200000J0D01*
G01*
%TO.C,TP6*%
X35490000Y-31750000D02*
G75*
G03*
X35490000Y-31750000I-1200000J0D01*
G01*
%TO.C,TP3*%
X44380000Y-31750000D02*
G75*
G03*
X44380000Y-31750000I-1200000J0D01*
G01*
%TO.C,TP8*%
X44380000Y-29210000D02*
G75*
G03*
X44380000Y-29210000I-1200000J0D01*
G01*
%TO.C,TP5*%
X35490000Y-29210000D02*
G75*
G03*
X35490000Y-29210000I-1200000J0D01*
G01*
%TO.C,TP2*%
X35490000Y-20320000D02*
G75*
G03*
X35490000Y-20320000I-1200000J0D01*
G01*
%TO.C,TP7*%
X46920000Y-53340000D02*
G75*
G03*
X46920000Y-53340000I-1200000J0D01*
G01*
%TO.C,TP4*%
X46920000Y-55880000D02*
G75*
G03*
X46920000Y-55880000I-1200000J0D01*
G01*
%TO.C,TP1*%
X35490000Y-36830000D02*
G75*
G03*
X35490000Y-36830000I-1200000J0D01*
G01*
%TO.C,J1*%
X40640000Y-59660000D02*
X40640000Y-58460000D01*
X18830000Y-65460000D02*
X18830000Y-63720000D01*
X42130000Y-65460000D02*
X18830000Y-65460000D01*
X42130000Y-63720000D02*
X42130000Y-65460000D01*
X18830000Y-59660000D02*
X18830000Y-61000000D01*
X20320000Y-59660000D02*
X18830000Y-59660000D01*
X42130000Y-59660000D02*
X42130000Y-61000000D01*
X40640000Y-59660000D02*
X42130000Y-59660000D01*
%TO.C,J2*%
X39050000Y-14410000D02*
X41460000Y-14410000D01*
X39050000Y-12000000D02*
X39050000Y-14410000D01*
X49470000Y-14110000D02*
X39350000Y-14110000D01*
X49470000Y-5990000D02*
X49470000Y-14110000D01*
X39350000Y-5990000D02*
X49470000Y-5990000D01*
X39350000Y-14110000D02*
X39350000Y-5990000D01*
%TO.C,J3*%
X9840000Y-14410000D02*
X12250000Y-14410000D01*
X9840000Y-12000000D02*
X9840000Y-14410000D01*
X17760000Y-14110000D02*
X10140000Y-14110000D01*
X17760000Y-5990000D02*
X17760000Y-14110000D01*
X10140000Y-5990000D02*
X17760000Y-5990000D01*
X10140000Y-14110000D02*
X10140000Y-5990000D01*
%TO.C,D2*%
X19320000Y-10450000D02*
X19320000Y-14350000D01*
X21320000Y-10450000D02*
X21320000Y-14350000D01*
X19320000Y-10450000D02*
X21320000Y-10450000D01*
%TO.C,F1*%
D10*
X28273333Y-16128571D02*
X28606666Y-16128571D01*
X28606666Y-16652380D02*
X28606666Y-15652380D01*
X28130476Y-15652380D01*
X27225714Y-16652380D02*
X27797142Y-16652380D01*
X27511428Y-16652380D02*
X27511428Y-15652380D01*
X27606666Y-15795238D01*
X27701904Y-15890476D01*
X27797142Y-15938095D01*
%TO.C,RN5*%
X23550476Y-52776380D02*
X23883809Y-52300190D01*
X24121904Y-52776380D02*
X24121904Y-51776380D01*
X23740952Y-51776380D01*
X23645714Y-51824000D01*
X23598095Y-51871619D01*
X23550476Y-51966857D01*
X23550476Y-52109714D01*
X23598095Y-52204952D01*
X23645714Y-52252571D01*
X23740952Y-52300190D01*
X24121904Y-52300190D01*
X23121904Y-52776380D02*
X23121904Y-51776380D01*
X22550476Y-52776380D01*
X22550476Y-51776380D01*
X21598095Y-51776380D02*
X22074285Y-51776380D01*
X22121904Y-52252571D01*
X22074285Y-52204952D01*
X21979047Y-52157333D01*
X21740952Y-52157333D01*
X21645714Y-52204952D01*
X21598095Y-52252571D01*
X21550476Y-52347809D01*
X21550476Y-52585904D01*
X21598095Y-52681142D01*
X21645714Y-52728761D01*
X21740952Y-52776380D01*
X21979047Y-52776380D01*
X22074285Y-52728761D01*
X22121904Y-52681142D01*
%TO.C,RN4*%
X27360476Y-52776380D02*
X27693809Y-52300190D01*
X27931904Y-52776380D02*
X27931904Y-51776380D01*
X27550952Y-51776380D01*
X27455714Y-51824000D01*
X27408095Y-51871619D01*
X27360476Y-51966857D01*
X27360476Y-52109714D01*
X27408095Y-52204952D01*
X27455714Y-52252571D01*
X27550952Y-52300190D01*
X27931904Y-52300190D01*
X26931904Y-52776380D02*
X26931904Y-51776380D01*
X26360476Y-52776380D01*
X26360476Y-51776380D01*
X25455714Y-52109714D02*
X25455714Y-52776380D01*
X25693809Y-51728761D02*
X25931904Y-52443047D01*
X25312857Y-52443047D01*
%TO.C,RN3*%
X31170476Y-52776380D02*
X31503809Y-52300190D01*
X31741904Y-52776380D02*
X31741904Y-51776380D01*
X31360952Y-51776380D01*
X31265714Y-51824000D01*
X31218095Y-51871619D01*
X31170476Y-51966857D01*
X31170476Y-52109714D01*
X31218095Y-52204952D01*
X31265714Y-52252571D01*
X31360952Y-52300190D01*
X31741904Y-52300190D01*
X30741904Y-52776380D02*
X30741904Y-51776380D01*
X30170476Y-52776380D01*
X30170476Y-51776380D01*
X29789523Y-51776380D02*
X29170476Y-51776380D01*
X29503809Y-52157333D01*
X29360952Y-52157333D01*
X29265714Y-52204952D01*
X29218095Y-52252571D01*
X29170476Y-52347809D01*
X29170476Y-52585904D01*
X29218095Y-52681142D01*
X29265714Y-52728761D01*
X29360952Y-52776380D01*
X29646666Y-52776380D01*
X29741904Y-52728761D01*
X29789523Y-52681142D01*
%TO.C,RN2*%
X34980476Y-52776380D02*
X35313809Y-52300190D01*
X35551904Y-52776380D02*
X35551904Y-51776380D01*
X35170952Y-51776380D01*
X35075714Y-51824000D01*
X35028095Y-51871619D01*
X34980476Y-51966857D01*
X34980476Y-52109714D01*
X35028095Y-52204952D01*
X35075714Y-52252571D01*
X35170952Y-52300190D01*
X35551904Y-52300190D01*
X34551904Y-52776380D02*
X34551904Y-51776380D01*
X33980476Y-52776380D01*
X33980476Y-51776380D01*
X33551904Y-51871619D02*
X33504285Y-51824000D01*
X33409047Y-51776380D01*
X33170952Y-51776380D01*
X33075714Y-51824000D01*
X33028095Y-51871619D01*
X32980476Y-51966857D01*
X32980476Y-52062095D01*
X33028095Y-52204952D01*
X33599523Y-52776380D01*
X32980476Y-52776380D01*
%TO.C,RN1*%
X38790476Y-52776380D02*
X39123809Y-52300190D01*
X39361904Y-52776380D02*
X39361904Y-51776380D01*
X38980952Y-51776380D01*
X38885714Y-51824000D01*
X38838095Y-51871619D01*
X38790476Y-51966857D01*
X38790476Y-52109714D01*
X38838095Y-52204952D01*
X38885714Y-52252571D01*
X38980952Y-52300190D01*
X39361904Y-52300190D01*
X38361904Y-52776380D02*
X38361904Y-51776380D01*
X37790476Y-52776380D01*
X37790476Y-51776380D01*
X36790476Y-52776380D02*
X37361904Y-52776380D01*
X37076190Y-52776380D02*
X37076190Y-51776380D01*
X37171428Y-51919238D01*
X37266666Y-52014476D01*
X37361904Y-52062095D01*
%TO.C,JP1*%
X21153333Y-30694380D02*
X21153333Y-31408666D01*
X21200952Y-31551523D01*
X21296190Y-31646761D01*
X21439047Y-31694380D01*
X21534285Y-31694380D01*
X20677142Y-31694380D02*
X20677142Y-30694380D01*
X20296190Y-30694380D01*
X20200952Y-30742000D01*
X20153333Y-30789619D01*
X20105714Y-30884857D01*
X20105714Y-31027714D01*
X20153333Y-31122952D01*
X20200952Y-31170571D01*
X20296190Y-31218190D01*
X20677142Y-31218190D01*
X19153333Y-31694380D02*
X19724761Y-31694380D01*
X19439047Y-31694380D02*
X19439047Y-30694380D01*
X19534285Y-30837238D01*
X19629523Y-30932476D01*
X19724761Y-30980095D01*
%TO.C,J1*%
X30813333Y-56712380D02*
X30813333Y-57426666D01*
X30860952Y-57569523D01*
X30956190Y-57664761D01*
X31099047Y-57712380D01*
X31194285Y-57712380D01*
X29813333Y-57712380D02*
X30384761Y-57712380D01*
X30099047Y-57712380D02*
X30099047Y-56712380D01*
X30194285Y-56855238D01*
X30289523Y-56950476D01*
X30384761Y-56998095D01*
%TO.C,J2*%
X38393333Y-12152380D02*
X38393333Y-12866666D01*
X38440952Y-13009523D01*
X38536190Y-13104761D01*
X38679047Y-13152380D01*
X38774285Y-13152380D01*
X37964761Y-12247619D02*
X37917142Y-12200000D01*
X37821904Y-12152380D01*
X37583809Y-12152380D01*
X37488571Y-12200000D01*
X37440952Y-12247619D01*
X37393333Y-12342857D01*
X37393333Y-12438095D01*
X37440952Y-12580952D01*
X38012380Y-13152380D01*
X37393333Y-13152380D01*
%TO.C,J3*%
X11001333Y-14692380D02*
X11001333Y-15406666D01*
X11048952Y-15549523D01*
X11144190Y-15644761D01*
X11287047Y-15692380D01*
X11382285Y-15692380D01*
X10620380Y-14692380D02*
X10001333Y-14692380D01*
X10334666Y-15073333D01*
X10191809Y-15073333D01*
X10096571Y-15120952D01*
X10048952Y-15168571D01*
X10001333Y-15263809D01*
X10001333Y-15501904D01*
X10048952Y-15597142D01*
X10096571Y-15644761D01*
X10191809Y-15692380D01*
X10477523Y-15692380D01*
X10572761Y-15644761D01*
X10620380Y-15597142D01*
%TO.C,D2*%
X21058095Y-16200380D02*
X21058095Y-15200380D01*
X20820000Y-15200380D01*
X20677142Y-15248000D01*
X20581904Y-15343238D01*
X20534285Y-15438476D01*
X20486666Y-15628952D01*
X20486666Y-15771809D01*
X20534285Y-15962285D01*
X20581904Y-16057523D01*
X20677142Y-16152761D01*
X20820000Y-16200380D01*
X21058095Y-16200380D01*
X20105714Y-15295619D02*
X20058095Y-15248000D01*
X19962857Y-15200380D01*
X19724761Y-15200380D01*
X19629523Y-15248000D01*
X19581904Y-15295619D01*
X19534285Y-15390857D01*
X19534285Y-15486095D01*
X19581904Y-15628952D01*
X20153333Y-16200380D01*
X19534285Y-16200380D01*
%TD*%
M02*
