G04 #@! TF.GenerationSoftware,KiCad,Pcbnew,5.1.5*
G04 #@! TF.CreationDate,2020-03-07T18:02:42+00:00*
G04 #@! TF.ProjectId,BB_Dash_Display,42425f44-6173-4685-9f44-6973706c6179,A2*
G04 #@! TF.SameCoordinates,PX43d3480PY41672a0*
G04 #@! TF.FileFunction,Legend,Top*
G04 #@! TF.FilePolarity,Positive*
%FSLAX46Y46*%
G04 Gerber Fmt 4.6, Leading zero omitted, Abs format (unit mm)*
G04 Created by KiCad (PCBNEW 5.1.5) date 2020-03-07 18:02:42*
%MOMM*%
%LPD*%
G04 APERTURE LIST*
%ADD10C,0.120000*%
%ADD11C,0.150000*%
G04 APERTURE END LIST*
D10*
X46580000Y-52450000D02*
X41180000Y-52450000D01*
X46580000Y-49150000D02*
X41180000Y-49150000D01*
X46580000Y-52450000D02*
X46580000Y-49150000D01*
X24730225Y-10975000D02*
X24730225Y-11475000D01*
X24480225Y-11225000D02*
X24980225Y-11225000D01*
X29886000Y-12416000D02*
X29886000Y-12984000D01*
X29846000Y-12182000D02*
X29846000Y-13218000D01*
X29806000Y-12023000D02*
X29806000Y-13377000D01*
X29766000Y-11895000D02*
X29766000Y-13505000D01*
X29726000Y-11785000D02*
X29726000Y-13615000D01*
X29686000Y-11689000D02*
X29686000Y-13711000D01*
X29646000Y-11602000D02*
X29646000Y-13798000D01*
X29606000Y-11522000D02*
X29606000Y-13878000D01*
X29566000Y-13740000D02*
X29566000Y-13951000D01*
X29566000Y-11449000D02*
X29566000Y-11660000D01*
X29526000Y-13740000D02*
X29526000Y-14019000D01*
X29526000Y-11381000D02*
X29526000Y-11660000D01*
X29486000Y-13740000D02*
X29486000Y-14083000D01*
X29486000Y-11317000D02*
X29486000Y-11660000D01*
X29446000Y-13740000D02*
X29446000Y-14143000D01*
X29446000Y-11257000D02*
X29446000Y-11660000D01*
X29406000Y-13740000D02*
X29406000Y-14200000D01*
X29406000Y-11200000D02*
X29406000Y-11660000D01*
X29366000Y-13740000D02*
X29366000Y-14254000D01*
X29366000Y-11146000D02*
X29366000Y-11660000D01*
X29326000Y-13740000D02*
X29326000Y-14305000D01*
X29326000Y-11095000D02*
X29326000Y-11660000D01*
X29286000Y-13740000D02*
X29286000Y-14353000D01*
X29286000Y-11047000D02*
X29286000Y-11660000D01*
X29246000Y-13740000D02*
X29246000Y-14399000D01*
X29246000Y-11001000D02*
X29246000Y-11660000D01*
X29206000Y-13740000D02*
X29206000Y-14443000D01*
X29206000Y-10957000D02*
X29206000Y-11660000D01*
X29166000Y-13740000D02*
X29166000Y-14485000D01*
X29166000Y-10915000D02*
X29166000Y-11660000D01*
X29126000Y-13740000D02*
X29126000Y-14526000D01*
X29126000Y-10874000D02*
X29126000Y-11660000D01*
X29086000Y-13740000D02*
X29086000Y-14564000D01*
X29086000Y-10836000D02*
X29086000Y-11660000D01*
X29046000Y-13740000D02*
X29046000Y-14601000D01*
X29046000Y-10799000D02*
X29046000Y-11660000D01*
X29006000Y-13740000D02*
X29006000Y-14637000D01*
X29006000Y-10763000D02*
X29006000Y-11660000D01*
X28966000Y-13740000D02*
X28966000Y-14671000D01*
X28966000Y-10729000D02*
X28966000Y-11660000D01*
X28926000Y-13740000D02*
X28926000Y-14704000D01*
X28926000Y-10696000D02*
X28926000Y-11660000D01*
X28886000Y-13740000D02*
X28886000Y-14735000D01*
X28886000Y-10665000D02*
X28886000Y-11660000D01*
X28846000Y-13740000D02*
X28846000Y-14765000D01*
X28846000Y-10635000D02*
X28846000Y-11660000D01*
X28806000Y-13740000D02*
X28806000Y-14795000D01*
X28806000Y-10605000D02*
X28806000Y-11660000D01*
X28766000Y-13740000D02*
X28766000Y-14822000D01*
X28766000Y-10578000D02*
X28766000Y-11660000D01*
X28726000Y-13740000D02*
X28726000Y-14849000D01*
X28726000Y-10551000D02*
X28726000Y-11660000D01*
X28686000Y-13740000D02*
X28686000Y-14875000D01*
X28686000Y-10525000D02*
X28686000Y-11660000D01*
X28646000Y-13740000D02*
X28646000Y-14900000D01*
X28646000Y-10500000D02*
X28646000Y-11660000D01*
X28606000Y-13740000D02*
X28606000Y-14924000D01*
X28606000Y-10476000D02*
X28606000Y-11660000D01*
X28566000Y-13740000D02*
X28566000Y-14947000D01*
X28566000Y-10453000D02*
X28566000Y-11660000D01*
X28526000Y-13740000D02*
X28526000Y-14968000D01*
X28526000Y-10432000D02*
X28526000Y-11660000D01*
X28486000Y-13740000D02*
X28486000Y-14990000D01*
X28486000Y-10410000D02*
X28486000Y-11660000D01*
X28446000Y-13740000D02*
X28446000Y-15010000D01*
X28446000Y-10390000D02*
X28446000Y-11660000D01*
X28406000Y-13740000D02*
X28406000Y-15029000D01*
X28406000Y-10371000D02*
X28406000Y-11660000D01*
X28366000Y-13740000D02*
X28366000Y-15048000D01*
X28366000Y-10352000D02*
X28366000Y-11660000D01*
X28326000Y-13740000D02*
X28326000Y-15065000D01*
X28326000Y-10335000D02*
X28326000Y-11660000D01*
X28286000Y-13740000D02*
X28286000Y-15082000D01*
X28286000Y-10318000D02*
X28286000Y-11660000D01*
X28246000Y-13740000D02*
X28246000Y-15098000D01*
X28246000Y-10302000D02*
X28246000Y-11660000D01*
X28206000Y-13740000D02*
X28206000Y-15114000D01*
X28206000Y-10286000D02*
X28206000Y-11660000D01*
X28166000Y-13740000D02*
X28166000Y-15128000D01*
X28166000Y-10272000D02*
X28166000Y-11660000D01*
X28126000Y-13740000D02*
X28126000Y-15142000D01*
X28126000Y-10258000D02*
X28126000Y-11660000D01*
X28086000Y-13740000D02*
X28086000Y-15155000D01*
X28086000Y-10245000D02*
X28086000Y-11660000D01*
X28046000Y-13740000D02*
X28046000Y-15168000D01*
X28046000Y-10232000D02*
X28046000Y-11660000D01*
X28006000Y-13740000D02*
X28006000Y-15180000D01*
X28006000Y-10220000D02*
X28006000Y-11660000D01*
X27965000Y-13740000D02*
X27965000Y-15191000D01*
X27965000Y-10209000D02*
X27965000Y-11660000D01*
X27925000Y-13740000D02*
X27925000Y-15201000D01*
X27925000Y-10199000D02*
X27925000Y-11660000D01*
X27885000Y-13740000D02*
X27885000Y-15211000D01*
X27885000Y-10189000D02*
X27885000Y-11660000D01*
X27845000Y-13740000D02*
X27845000Y-15220000D01*
X27845000Y-10180000D02*
X27845000Y-11660000D01*
X27805000Y-13740000D02*
X27805000Y-15228000D01*
X27805000Y-10172000D02*
X27805000Y-11660000D01*
X27765000Y-13740000D02*
X27765000Y-15236000D01*
X27765000Y-10164000D02*
X27765000Y-11660000D01*
X27725000Y-13740000D02*
X27725000Y-15243000D01*
X27725000Y-10157000D02*
X27725000Y-11660000D01*
X27685000Y-13740000D02*
X27685000Y-15250000D01*
X27685000Y-10150000D02*
X27685000Y-11660000D01*
X27645000Y-13740000D02*
X27645000Y-15256000D01*
X27645000Y-10144000D02*
X27645000Y-11660000D01*
X27605000Y-13740000D02*
X27605000Y-15261000D01*
X27605000Y-10139000D02*
X27605000Y-11660000D01*
X27565000Y-13740000D02*
X27565000Y-15265000D01*
X27565000Y-10135000D02*
X27565000Y-11660000D01*
X27525000Y-13740000D02*
X27525000Y-15269000D01*
X27525000Y-10131000D02*
X27525000Y-11660000D01*
X27485000Y-10127000D02*
X27485000Y-15273000D01*
X27445000Y-10124000D02*
X27445000Y-15276000D01*
X27405000Y-10122000D02*
X27405000Y-15278000D01*
X27365000Y-10121000D02*
X27365000Y-15279000D01*
X27325000Y-10120000D02*
X27325000Y-15280000D01*
X27285000Y-10120000D02*
X27285000Y-15280000D01*
X29905000Y-12700000D02*
G75*
G03X29905000Y-12700000I-2620000J0D01*
G01*
X22150000Y-40381422D02*
X22150000Y-40898578D01*
X23570000Y-40381422D02*
X23570000Y-40898578D01*
X11990000Y-40381422D02*
X11990000Y-40898578D01*
X13410000Y-40381422D02*
X13410000Y-40898578D01*
X8950000Y-6290000D02*
X7620000Y-6290000D01*
X8950000Y-7620000D02*
X8950000Y-6290000D01*
X6350000Y-6290000D02*
X3750000Y-6290000D01*
X6350000Y-8890000D02*
X6350000Y-6290000D01*
X8950000Y-8890000D02*
X6350000Y-8890000D01*
X3750000Y-6290000D02*
X3750000Y-64830000D01*
X8950000Y-8890000D02*
X8950000Y-64830000D01*
X8950000Y-64830000D02*
X3750000Y-64830000D01*
D11*
X45720000Y-28956000D02*
X45720000Y-16764000D01*
X30480000Y-28956000D02*
X45720000Y-28956000D01*
X30480000Y-16764000D02*
X30480000Y-28956000D01*
X30480000Y-28956000D02*
X45720000Y-28956000D01*
X30480000Y-16764000D02*
X45720000Y-16764000D01*
D10*
X42512064Y-36105000D02*
X41307936Y-36105000D01*
X42512064Y-38825000D02*
X41307936Y-38825000D01*
X30930000Y-68980000D02*
X30930000Y-68180000D01*
X27490000Y-68980000D02*
X27490000Y-68180000D01*
X16251422Y-61670000D02*
X16768578Y-61670000D01*
X16251422Y-60250000D02*
X16768578Y-60250000D01*
X38767936Y-46630000D02*
X39972064Y-46630000D01*
X38767936Y-44810000D02*
X39972064Y-44810000D01*
X44810000Y-41307936D02*
X44810000Y-42512064D01*
X46630000Y-41307936D02*
X46630000Y-42512064D01*
X43847936Y-69490000D02*
X45052064Y-69490000D01*
X43847936Y-67670000D02*
X45052064Y-67670000D01*
X42512064Y-32110000D02*
X41307936Y-32110000D01*
X42512064Y-33930000D02*
X41307936Y-33930000D01*
X33687936Y-33930000D02*
X34892064Y-33930000D01*
X33687936Y-32110000D02*
X34892064Y-32110000D01*
X42810000Y-40300000D02*
X40360000Y-40300000D01*
X41010000Y-43520000D02*
X42810000Y-43520000D01*
X17780000Y-43200000D02*
X21230000Y-43200000D01*
X17780000Y-43200000D02*
X15830000Y-43200000D01*
X17780000Y-38080000D02*
X19730000Y-38080000D01*
X17780000Y-38080000D02*
X15830000Y-38080000D01*
X44191422Y-46430000D02*
X44708578Y-46430000D01*
X44191422Y-45010000D02*
X44708578Y-45010000D01*
X48335000Y-37723578D02*
X48335000Y-37206422D01*
X46915000Y-37723578D02*
X46915000Y-37206422D01*
X37841422Y-69290000D02*
X38358578Y-69290000D01*
X37841422Y-67870000D02*
X38358578Y-67870000D01*
X57210000Y-6290000D02*
X55880000Y-6290000D01*
X57210000Y-7620000D02*
X57210000Y-6290000D01*
X54610000Y-6290000D02*
X52010000Y-6290000D01*
X54610000Y-8890000D02*
X54610000Y-6290000D01*
X57210000Y-8890000D02*
X54610000Y-8890000D01*
X52010000Y-6290000D02*
X52010000Y-64830000D01*
X57210000Y-8890000D02*
X57210000Y-64830000D01*
X57210000Y-64830000D02*
X52010000Y-64830000D01*
X37100000Y-44160000D02*
X37100000Y-40260000D01*
X39100000Y-44160000D02*
X39100000Y-40260000D01*
X37100000Y-44160000D02*
X39100000Y-44160000D01*
X23586000Y-14970000D02*
X19686000Y-14970000D01*
X23586000Y-12970000D02*
X19686000Y-12970000D01*
X23586000Y-14970000D02*
X23586000Y-12970000D01*
D11*
X42441904Y-48966380D02*
X42441904Y-47966380D01*
X42680000Y-47966380D01*
X42822857Y-48014000D01*
X42918095Y-48109238D01*
X42965714Y-48204476D01*
X43013333Y-48394952D01*
X43013333Y-48537809D01*
X42965714Y-48728285D01*
X42918095Y-48823523D01*
X42822857Y-48918761D01*
X42680000Y-48966380D01*
X42441904Y-48966380D01*
X43346666Y-47966380D02*
X43965714Y-47966380D01*
X43632380Y-48347333D01*
X43775238Y-48347333D01*
X43870476Y-48394952D01*
X43918095Y-48442571D01*
X43965714Y-48537809D01*
X43965714Y-48775904D01*
X43918095Y-48871142D01*
X43870476Y-48918761D01*
X43775238Y-48966380D01*
X43489523Y-48966380D01*
X43394285Y-48918761D01*
X43346666Y-48871142D01*
X31329333Y-13057142D02*
X31281714Y-13104761D01*
X31138857Y-13152380D01*
X31043619Y-13152380D01*
X30900761Y-13104761D01*
X30805523Y-13009523D01*
X30757904Y-12914285D01*
X30710285Y-12723809D01*
X30710285Y-12580952D01*
X30757904Y-12390476D01*
X30805523Y-12295238D01*
X30900761Y-12200000D01*
X31043619Y-12152380D01*
X31138857Y-12152380D01*
X31281714Y-12200000D01*
X31329333Y-12247619D01*
X31900761Y-12580952D02*
X31805523Y-12533333D01*
X31757904Y-12485714D01*
X31710285Y-12390476D01*
X31710285Y-12342857D01*
X31757904Y-12247619D01*
X31805523Y-12200000D01*
X31900761Y-12152380D01*
X32091238Y-12152380D01*
X32186476Y-12200000D01*
X32234095Y-12247619D01*
X32281714Y-12342857D01*
X32281714Y-12390476D01*
X32234095Y-12485714D01*
X32186476Y-12533333D01*
X32091238Y-12580952D01*
X31900761Y-12580952D01*
X31805523Y-12628571D01*
X31757904Y-12676190D01*
X31710285Y-12771428D01*
X31710285Y-12961904D01*
X31757904Y-13057142D01*
X31805523Y-13104761D01*
X31900761Y-13152380D01*
X32091238Y-13152380D01*
X32186476Y-13104761D01*
X32234095Y-13057142D01*
X32281714Y-12961904D01*
X32281714Y-12771428D01*
X32234095Y-12676190D01*
X32186476Y-12628571D01*
X32091238Y-12580952D01*
X24741142Y-40806666D02*
X24788761Y-40854285D01*
X24836380Y-40997142D01*
X24836380Y-41092380D01*
X24788761Y-41235238D01*
X24693523Y-41330476D01*
X24598285Y-41378095D01*
X24407809Y-41425714D01*
X24264952Y-41425714D01*
X24074476Y-41378095D01*
X23979238Y-41330476D01*
X23884000Y-41235238D01*
X23836380Y-41092380D01*
X23836380Y-40997142D01*
X23884000Y-40854285D01*
X23931619Y-40806666D01*
X23836380Y-40473333D02*
X23836380Y-39806666D01*
X24836380Y-40235238D01*
X11533142Y-40806666D02*
X11580761Y-40854285D01*
X11628380Y-40997142D01*
X11628380Y-41092380D01*
X11580761Y-41235238D01*
X11485523Y-41330476D01*
X11390285Y-41378095D01*
X11199809Y-41425714D01*
X11056952Y-41425714D01*
X10866476Y-41378095D01*
X10771238Y-41330476D01*
X10676000Y-41235238D01*
X10628380Y-41092380D01*
X10628380Y-40997142D01*
X10676000Y-40854285D01*
X10723619Y-40806666D01*
X10628380Y-39949523D02*
X10628380Y-40140000D01*
X10676000Y-40235238D01*
X10723619Y-40282857D01*
X10866476Y-40378095D01*
X11056952Y-40425714D01*
X11437904Y-40425714D01*
X11533142Y-40378095D01*
X11580761Y-40330476D01*
X11628380Y-40235238D01*
X11628380Y-40044761D01*
X11580761Y-39949523D01*
X11533142Y-39901904D01*
X11437904Y-39854285D01*
X11199809Y-39854285D01*
X11104571Y-39901904D01*
X11056952Y-39949523D01*
X11009333Y-40044761D01*
X11009333Y-40235238D01*
X11056952Y-40330476D01*
X11104571Y-40378095D01*
X11199809Y-40425714D01*
X5611904Y-5742380D02*
X5611904Y-4742380D01*
X5992857Y-4742380D01*
X6088095Y-4790000D01*
X6135714Y-4837619D01*
X6183333Y-4932857D01*
X6183333Y-5075714D01*
X6135714Y-5170952D01*
X6088095Y-5218571D01*
X5992857Y-5266190D01*
X5611904Y-5266190D01*
X6754761Y-5170952D02*
X6659523Y-5123333D01*
X6611904Y-5075714D01*
X6564285Y-4980476D01*
X6564285Y-4932857D01*
X6611904Y-4837619D01*
X6659523Y-4790000D01*
X6754761Y-4742380D01*
X6945238Y-4742380D01*
X7040476Y-4790000D01*
X7088095Y-4837619D01*
X7135714Y-4932857D01*
X7135714Y-4980476D01*
X7088095Y-5075714D01*
X7040476Y-5123333D01*
X6945238Y-5170952D01*
X6754761Y-5170952D01*
X6659523Y-5218571D01*
X6611904Y-5266190D01*
X6564285Y-5361428D01*
X6564285Y-5551904D01*
X6611904Y-5647142D01*
X6659523Y-5694761D01*
X6754761Y-5742380D01*
X6945238Y-5742380D01*
X7040476Y-5694761D01*
X7088095Y-5647142D01*
X7135714Y-5551904D01*
X7135714Y-5361428D01*
X7088095Y-5266190D01*
X7040476Y-5218571D01*
X6945238Y-5170952D01*
X37338095Y-15200380D02*
X37338095Y-16009904D01*
X37385714Y-16105142D01*
X37433333Y-16152761D01*
X37528571Y-16200380D01*
X37719047Y-16200380D01*
X37814285Y-16152761D01*
X37861904Y-16105142D01*
X37909523Y-16009904D01*
X37909523Y-15200380D01*
X38338095Y-15295619D02*
X38385714Y-15248000D01*
X38480952Y-15200380D01*
X38719047Y-15200380D01*
X38814285Y-15248000D01*
X38861904Y-15295619D01*
X38909523Y-15390857D01*
X38909523Y-15486095D01*
X38861904Y-15628952D01*
X38290476Y-16200380D01*
X38909523Y-16200380D01*
X41743333Y-35758380D02*
X41267142Y-35758380D01*
X41267142Y-34758380D01*
X42600476Y-35758380D02*
X42029047Y-35758380D01*
X42314761Y-35758380D02*
X42314761Y-34758380D01*
X42219523Y-34901238D01*
X42124285Y-34996476D01*
X42029047Y-35044095D01*
X32262380Y-69270476D02*
X31786190Y-69603809D01*
X32262380Y-69841904D02*
X31262380Y-69841904D01*
X31262380Y-69460952D01*
X31310000Y-69365714D01*
X31357619Y-69318095D01*
X31452857Y-69270476D01*
X31595714Y-69270476D01*
X31690952Y-69318095D01*
X31738571Y-69365714D01*
X31786190Y-69460952D01*
X31786190Y-69841904D01*
X32262380Y-68841904D02*
X31262380Y-68841904D01*
X32262380Y-68270476D01*
X31262380Y-68270476D01*
X31690952Y-67651428D02*
X31643333Y-67746666D01*
X31595714Y-67794285D01*
X31500476Y-67841904D01*
X31452857Y-67841904D01*
X31357619Y-67794285D01*
X31310000Y-67746666D01*
X31262380Y-67651428D01*
X31262380Y-67460952D01*
X31310000Y-67365714D01*
X31357619Y-67318095D01*
X31452857Y-67270476D01*
X31500476Y-67270476D01*
X31595714Y-67318095D01*
X31643333Y-67365714D01*
X31690952Y-67460952D01*
X31690952Y-67651428D01*
X31738571Y-67746666D01*
X31786190Y-67794285D01*
X31881428Y-67841904D01*
X32071904Y-67841904D01*
X32167142Y-67794285D01*
X32214761Y-67746666D01*
X32262380Y-67651428D01*
X32262380Y-67460952D01*
X32214761Y-67365714D01*
X32167142Y-67318095D01*
X32071904Y-67270476D01*
X31881428Y-67270476D01*
X31786190Y-67318095D01*
X31738571Y-67365714D01*
X31690952Y-67460952D01*
X16343333Y-62936380D02*
X16010000Y-62460190D01*
X15771904Y-62936380D02*
X15771904Y-61936380D01*
X16152857Y-61936380D01*
X16248095Y-61984000D01*
X16295714Y-62031619D01*
X16343333Y-62126857D01*
X16343333Y-62269714D01*
X16295714Y-62364952D01*
X16248095Y-62412571D01*
X16152857Y-62460190D01*
X15771904Y-62460190D01*
X17200476Y-62269714D02*
X17200476Y-62936380D01*
X16962380Y-61888761D02*
X16724285Y-62603047D01*
X17343333Y-62603047D01*
X39203333Y-47855142D02*
X39155714Y-47902761D01*
X39012857Y-47950380D01*
X38917619Y-47950380D01*
X38774761Y-47902761D01*
X38679523Y-47807523D01*
X38631904Y-47712285D01*
X38584285Y-47521809D01*
X38584285Y-47378952D01*
X38631904Y-47188476D01*
X38679523Y-47093238D01*
X38774761Y-46998000D01*
X38917619Y-46950380D01*
X39012857Y-46950380D01*
X39155714Y-46998000D01*
X39203333Y-47045619D01*
X40108095Y-46950380D02*
X39631904Y-46950380D01*
X39584285Y-47426571D01*
X39631904Y-47378952D01*
X39727142Y-47331333D01*
X39965238Y-47331333D01*
X40060476Y-47378952D01*
X40108095Y-47426571D01*
X40155714Y-47521809D01*
X40155714Y-47759904D01*
X40108095Y-47855142D01*
X40060476Y-47902761D01*
X39965238Y-47950380D01*
X39727142Y-47950380D01*
X39631904Y-47902761D01*
X39584285Y-47855142D01*
X46077142Y-38774666D02*
X46124761Y-38822285D01*
X46172380Y-38965142D01*
X46172380Y-39060380D01*
X46124761Y-39203238D01*
X46029523Y-39298476D01*
X45934285Y-39346095D01*
X45743809Y-39393714D01*
X45600952Y-39393714D01*
X45410476Y-39346095D01*
X45315238Y-39298476D01*
X45220000Y-39203238D01*
X45172380Y-39060380D01*
X45172380Y-38965142D01*
X45220000Y-38822285D01*
X45267619Y-38774666D01*
X45505714Y-37917523D02*
X46172380Y-37917523D01*
X45124761Y-38155619D02*
X45839047Y-38393714D01*
X45839047Y-37774666D01*
X44283333Y-67159142D02*
X44235714Y-67206761D01*
X44092857Y-67254380D01*
X43997619Y-67254380D01*
X43854761Y-67206761D01*
X43759523Y-67111523D01*
X43711904Y-67016285D01*
X43664285Y-66825809D01*
X43664285Y-66682952D01*
X43711904Y-66492476D01*
X43759523Y-66397238D01*
X43854761Y-66302000D01*
X43997619Y-66254380D01*
X44092857Y-66254380D01*
X44235714Y-66302000D01*
X44283333Y-66349619D01*
X44616666Y-66254380D02*
X45235714Y-66254380D01*
X44902380Y-66635333D01*
X45045238Y-66635333D01*
X45140476Y-66682952D01*
X45188095Y-66730571D01*
X45235714Y-66825809D01*
X45235714Y-67063904D01*
X45188095Y-67159142D01*
X45140476Y-67206761D01*
X45045238Y-67254380D01*
X44759523Y-67254380D01*
X44664285Y-67206761D01*
X44616666Y-67159142D01*
X41743333Y-31599142D02*
X41695714Y-31646761D01*
X41552857Y-31694380D01*
X41457619Y-31694380D01*
X41314761Y-31646761D01*
X41219523Y-31551523D01*
X41171904Y-31456285D01*
X41124285Y-31265809D01*
X41124285Y-31122952D01*
X41171904Y-30932476D01*
X41219523Y-30837238D01*
X41314761Y-30742000D01*
X41457619Y-30694380D01*
X41552857Y-30694380D01*
X41695714Y-30742000D01*
X41743333Y-30789619D01*
X42124285Y-30789619D02*
X42171904Y-30742000D01*
X42267142Y-30694380D01*
X42505238Y-30694380D01*
X42600476Y-30742000D01*
X42648095Y-30789619D01*
X42695714Y-30884857D01*
X42695714Y-30980095D01*
X42648095Y-31122952D01*
X42076666Y-31694380D01*
X42695714Y-31694380D01*
X34123333Y-31557142D02*
X34075714Y-31604761D01*
X33932857Y-31652380D01*
X33837619Y-31652380D01*
X33694761Y-31604761D01*
X33599523Y-31509523D01*
X33551904Y-31414285D01*
X33504285Y-31223809D01*
X33504285Y-31080952D01*
X33551904Y-30890476D01*
X33599523Y-30795238D01*
X33694761Y-30700000D01*
X33837619Y-30652380D01*
X33932857Y-30652380D01*
X34075714Y-30700000D01*
X34123333Y-30747619D01*
X35075714Y-31652380D02*
X34504285Y-31652380D01*
X34790000Y-31652380D02*
X34790000Y-30652380D01*
X34694761Y-30795238D01*
X34599523Y-30890476D01*
X34504285Y-30938095D01*
X41148095Y-39076380D02*
X41148095Y-39885904D01*
X41195714Y-39981142D01*
X41243333Y-40028761D01*
X41338571Y-40076380D01*
X41529047Y-40076380D01*
X41624285Y-40028761D01*
X41671904Y-39981142D01*
X41719523Y-39885904D01*
X41719523Y-39076380D01*
X42100476Y-39076380D02*
X42719523Y-39076380D01*
X42386190Y-39457333D01*
X42529047Y-39457333D01*
X42624285Y-39504952D01*
X42671904Y-39552571D01*
X42719523Y-39647809D01*
X42719523Y-39885904D01*
X42671904Y-39981142D01*
X42624285Y-40028761D01*
X42529047Y-40076380D01*
X42243333Y-40076380D01*
X42148095Y-40028761D01*
X42100476Y-39981142D01*
X17018095Y-36790380D02*
X17018095Y-37599904D01*
X17065714Y-37695142D01*
X17113333Y-37742761D01*
X17208571Y-37790380D01*
X17399047Y-37790380D01*
X17494285Y-37742761D01*
X17541904Y-37695142D01*
X17589523Y-37599904D01*
X17589523Y-36790380D01*
X18589523Y-37790380D02*
X18018095Y-37790380D01*
X18303809Y-37790380D02*
X18303809Y-36790380D01*
X18208571Y-36933238D01*
X18113333Y-37028476D01*
X18018095Y-37076095D01*
X44283333Y-47696380D02*
X43950000Y-47220190D01*
X43711904Y-47696380D02*
X43711904Y-46696380D01*
X44092857Y-46696380D01*
X44188095Y-46744000D01*
X44235714Y-46791619D01*
X44283333Y-46886857D01*
X44283333Y-47029714D01*
X44235714Y-47124952D01*
X44188095Y-47172571D01*
X44092857Y-47220190D01*
X43711904Y-47220190D01*
X44616666Y-46696380D02*
X45235714Y-46696380D01*
X44902380Y-47077333D01*
X45045238Y-47077333D01*
X45140476Y-47124952D01*
X45188095Y-47172571D01*
X45235714Y-47267809D01*
X45235714Y-47505904D01*
X45188095Y-47601142D01*
X45140476Y-47648761D01*
X45045238Y-47696380D01*
X44759523Y-47696380D01*
X44664285Y-47648761D01*
X44616666Y-47601142D01*
X46553380Y-36488666D02*
X46077190Y-36822000D01*
X46553380Y-37060095D02*
X45553380Y-37060095D01*
X45553380Y-36679142D01*
X45601000Y-36583904D01*
X45648619Y-36536285D01*
X45743857Y-36488666D01*
X45886714Y-36488666D01*
X45981952Y-36536285D01*
X46029571Y-36583904D01*
X46077190Y-36679142D01*
X46077190Y-37060095D01*
X45648619Y-36107714D02*
X45601000Y-36060095D01*
X45553380Y-35964857D01*
X45553380Y-35726761D01*
X45601000Y-35631523D01*
X45648619Y-35583904D01*
X45743857Y-35536285D01*
X45839095Y-35536285D01*
X45981952Y-35583904D01*
X46553380Y-36155333D01*
X46553380Y-35536285D01*
X37933333Y-67508380D02*
X37600000Y-67032190D01*
X37361904Y-67508380D02*
X37361904Y-66508380D01*
X37742857Y-66508380D01*
X37838095Y-66556000D01*
X37885714Y-66603619D01*
X37933333Y-66698857D01*
X37933333Y-66841714D01*
X37885714Y-66936952D01*
X37838095Y-66984571D01*
X37742857Y-67032190D01*
X37361904Y-67032190D01*
X38885714Y-67508380D02*
X38314285Y-67508380D01*
X38600000Y-67508380D02*
X38600000Y-66508380D01*
X38504761Y-66651238D01*
X38409523Y-66746476D01*
X38314285Y-66794095D01*
X53871904Y-5742380D02*
X53871904Y-4742380D01*
X54252857Y-4742380D01*
X54348095Y-4790000D01*
X54395714Y-4837619D01*
X54443333Y-4932857D01*
X54443333Y-5075714D01*
X54395714Y-5170952D01*
X54348095Y-5218571D01*
X54252857Y-5266190D01*
X53871904Y-5266190D01*
X54919523Y-5742380D02*
X55110000Y-5742380D01*
X55205238Y-5694761D01*
X55252857Y-5647142D01*
X55348095Y-5504285D01*
X55395714Y-5313809D01*
X55395714Y-4932857D01*
X55348095Y-4837619D01*
X55300476Y-4790000D01*
X55205238Y-4742380D01*
X55014761Y-4742380D01*
X54919523Y-4790000D01*
X54871904Y-4837619D01*
X54824285Y-4932857D01*
X54824285Y-5170952D01*
X54871904Y-5266190D01*
X54919523Y-5313809D01*
X55014761Y-5361428D01*
X55205238Y-5361428D01*
X55300476Y-5313809D01*
X55348095Y-5266190D01*
X55395714Y-5170952D01*
X38552380Y-39346095D02*
X37552380Y-39346095D01*
X37552380Y-39108000D01*
X37600000Y-38965142D01*
X37695238Y-38869904D01*
X37790476Y-38822285D01*
X37980952Y-38774666D01*
X38123809Y-38774666D01*
X38314285Y-38822285D01*
X38409523Y-38869904D01*
X38504761Y-38965142D01*
X38552380Y-39108000D01*
X38552380Y-39346095D01*
X37647619Y-38393714D02*
X37600000Y-38346095D01*
X37552380Y-38250857D01*
X37552380Y-38012761D01*
X37600000Y-37917523D01*
X37647619Y-37869904D01*
X37742857Y-37822285D01*
X37838095Y-37822285D01*
X37980952Y-37869904D01*
X38552380Y-38441333D01*
X38552380Y-37822285D01*
X20597904Y-12644380D02*
X20597904Y-11644380D01*
X20836000Y-11644380D01*
X20978857Y-11692000D01*
X21074095Y-11787238D01*
X21121714Y-11882476D01*
X21169333Y-12072952D01*
X21169333Y-12215809D01*
X21121714Y-12406285D01*
X21074095Y-12501523D01*
X20978857Y-12596761D01*
X20836000Y-12644380D01*
X20597904Y-12644380D01*
X22121714Y-12644380D02*
X21550285Y-12644380D01*
X21836000Y-12644380D02*
X21836000Y-11644380D01*
X21740761Y-11787238D01*
X21645523Y-11882476D01*
X21550285Y-11930095D01*
M02*
